IBM Plex Sans-Thin Italic.ufo
<glyph name="exclam" format="1">
  <advance width="247"/>
  <unicode hex="0021"/>
  <outline>
    <contour>
      <point x="114" y="176" type="line" name="hr00"/>
      <point x="167" y="415" type="line"/>
      <point x="223" y="698" type="line"/>
      <point x="201" y="698" type="line"/>
      <point x="145" y="415" type="line"/>
      <point x="102" y="176" type="line"/>
    </contour>
    <contour>
      <point x="75" y="-5" type="curve" smooth="yes"/>
      <point x="95" y="-5"/>
      <point x="100" y="5"/>
      <point x="103" y="16" type="curve" smooth="yes"/>
      <point x="104" y="20"/>
      <point x="106" y="29"/>
      <point x="106" y="34" type="curve" smooth="yes"/>
      <point x="106" y="43"/>
      <point x="100" y="53"/>
      <point x="81" y="53" type="curve" smooth="yes"/>
      <point x="61" y="53"/>
      <point x="55" y="43"/>
      <point x="52" y="32" type="curve" smooth="yes"/>
      <point x="51" y="28"/>
      <point x="49" y="19"/>
      <point x="49" y="14" type="curve" smooth="yes"/>
      <point x="49" y="5"/>
      <point x="55" y="-5"/>
    </contour>
  </outline>
</glyph>
<glyph name="numbersign" format="1">
  <advance width="710"/>
  <unicode hex="0023"/>
  <outline>
    <contour>
      <point x="318" y="0" type="line" name="hr00"/>
      <point x="339" y="0" type="line"/>
      <point x="421" y="220" type="line"/>
      <point x="575" y="220" type="line"/>
      <point x="579" y="239" type="line"/>
      <point x="428" y="239" type="line"/>
      <point x="509" y="459" type="line"/>
      <point x="662" y="459" type="line"/>
      <point x="666" y="478" type="line"/>
      <point x="517" y="478" type="line"/>
      <point x="599" y="698" type="line"/>
      <point x="578" y="698" type="line"/>
      <point x="496" y="478" type="line"/>
      <point x="310" y="478" type="line"/>
      <point x="392" y="698" type="line"/>
      <point x="371" y="698" type="line"/>
      <point x="289" y="478" type="line"/>
      <point x="135" y="478" type="line"/>
      <point x="131" y="459" type="line"/>
      <point x="282" y="459" type="line"/>
      <point x="201" y="239" type="line"/>
      <point x="48" y="239" type="line"/>
      <point x="44" y="220" type="line"/>
      <point x="193" y="220" type="line"/>
      <point x="111" y="0" type="line"/>
      <point x="132" y="0" type="line"/>
      <point x="214" y="220" type="line"/>
      <point x="400" y="220" type="line"/>
    </contour>
    <contour>
      <point x="221" y="239" type="line"/>
      <point x="303" y="459" type="line"/>
      <point x="489" y="459" type="line"/>
      <point x="407" y="239" type="line"/>
    </contour>
  </outline>
</glyph>
<glyph name="dollar" format="1">
  <advance width="536"/>
  <unicode hex="0024"/>
  <outline>
    <contour>
      <point x="193" y="-82" type="line" name="hr00"/>
      <point x="213" y="-82" type="line"/>
      <point x="229" y="0" type="line"/>
      <point x="238" y="0" type="line" smooth="yes"/>
      <point x="399" y="0"/>
      <point x="469" y="92"/>
      <point x="469" y="201" type="curve" smooth="yes"/>
      <point x="469" y="281"/>
      <point x="425" y="330"/>
      <point x="333" y="354" type="curve" smooth="yes"/>
      <point x="302" y="362" type="line"/>
      <point x="364" y="677" type="line"/>
      <point x="442" y="672"/>
      <point x="478" y="647"/>
      <point x="510" y="589" type="curve"/>
      <point x="528" y="600" type="line"/>
      <point x="498" y="656"/>
      <point x="458" y="690"/>
      <point x="368" y="697" type="curve"/>
      <point x="385" y="780" type="line"/>
      <point x="365" y="780" type="line"/>
      <point x="349" y="698" type="line"/>
      <point x="331" y="698" type="line" smooth="yes"/>
      <point x="182" y="698"/>
      <point x="110" y="613"/>
      <point x="110" y="513" type="curve" smooth="yes"/>
      <point x="110" y="432"/>
      <point x="152" y="382"/>
      <point x="242" y="358" type="curve" smooth="yes"/>
      <point x="279" y="348" type="line"/>
      <point x="213" y="21" type="line"/>
      <point x="121" y="26"/>
      <point x="68" y="65"/>
      <point x="32" y="126" type="curve"/>
      <point x="14" y="113" type="line"/>
      <point x="52" y="50"/>
      <point x="111" y="7"/>
      <point x="210" y="1" type="curve"/>
    </contour>
    <contour>
      <point x="328" y="336" type="line" smooth="yes"/>
      <point x="411" y="314"/>
      <point x="447" y="274"/>
      <point x="447" y="201" type="curve" smooth="yes"/>
      <point x="447" y="104"/>
      <point x="389" y="20"/>
      <point x="239" y="20" type="curve" smooth="yes"/>
      <point x="233" y="20" type="line"/>
      <point x="298" y="344" type="line"/>
    </contour>
    <contour>
      <point x="132" y="513" type="curve" smooth="yes"/>
      <point x="132" y="602"/>
      <point x="193" y="678"/>
      <point x="330" y="678" type="curve" smooth="yes"/>
      <point x="345" y="678" type="line"/>
      <point x="283" y="367" type="line"/>
      <point x="248" y="376" type="line" smooth="yes"/>
      <point x="167" y="397"/>
      <point x="132" y="439"/>
    </contour>
  </outline>
</glyph>
<glyph name="ampersand" format="1">
  <advance width="677"/>
  <unicode hex="0026"/>
  <outline>
    <contour>
      <point x="563" y="0" type="line"/>
      <point x="589" y="0" type="line"/>
      <point x="483" y="132" type="line"/>
      <point x="519" y="187"/>
      <point x="545" y="260"/>
      <point x="560" y="331" type="curve"/>
      <point x="650" y="331" type="line"/>
      <point x="654" y="351" type="line"/>
      <point x="545" y="351" type="line"/>
      <point x="531" y="280"/>
      <point x="505" y="201"/>
      <point x="471" y="147" type="curve"/>
      <point x="294" y="368" type="line"/>
      <point x="483" y="462"/>
      <point x="535" y="505"/>
      <point x="535" y="593" type="curve" smooth="yes"/>
      <point x="535" y="661"/>
      <point x="484" y="710"/>
      <point x="391" y="710" type="curve" smooth="yes"/>
      <point x="268" y="710"/>
      <point x="198" y="626"/>
      <point x="198" y="524" type="curve" smooth="yes"/>
      <point x="198" y="490"/>
      <point x="211" y="443"/>
      <point x="264" y="374" type="curve"/>
      <point x="96" y="293"/>
      <point x="49" y="217"/>
      <point x="49" y="136" type="curve" smooth="yes"/>
      <point x="49" y="36"/>
      <point x="123" y="-12"/>
      <point x="229" y="-12" type="curve" smooth="yes" name="hr01"/>
      <point x="326" y="-12"/>
      <point x="415" y="42"/>
      <point x="471" y="115" type="curve"/>
    </contour>
    <contour>
      <point x="387" y="691" type="curve" smooth="yes"/>
      <point x="468" y="691"/>
      <point x="513" y="655"/>
      <point x="513" y="592" type="curve" smooth="yes"/>
      <point x="513" y="513"/>
      <point x="460" y="468"/>
      <point x="282" y="383" type="curve"/>
      <point x="230" y="451"/>
      <point x="220" y="494"/>
      <point x="220" y="524" type="curve" smooth="yes"/>
      <point x="220" y="533"/>
      <point x="222" y="544"/>
      <point x="227" y="569" type="curve" smooth="yes"/>
      <point x="241" y="641"/>
      <point x="301" y="691"/>
    </contour>
    <contour>
      <point x="459" y="130" type="line"/>
      <point x="407" y="59"/>
      <point x="326" y="8"/>
      <point x="233" y="8" type="curve" smooth="yes" name="hr03"/>
      <point x="136" y="8"/>
      <point x="71" y="46"/>
      <point x="71" y="133" type="curve" smooth="yes"/>
      <point x="71" y="143"/>
      <point x="72" y="151"/>
      <point x="74" y="162" type="curve" smooth="yes"/>
      <point x="88" y="240"/>
      <point x="136" y="289"/>
      <point x="276" y="359" type="curve"/>
    </contour>
  </outline>
</glyph>
<glyph name="quotesingle" format="1">
  <advance width="220"/>
  <unicode hex="0027"/>
  <outline>
    <contour>
      <point x="167" y="490" type="line" name="hr00"/>
      <point x="217" y="740" type="line"/>
      <point x="197" y="740" type="line"/>
      <point x="147" y="490" type="line"/>
    </contour>
  </outline>
</glyph>
<glyph name="parenleft" format="1">
  <advance width="330"/>
  <unicode hex="0028"/>
  <outline>
    <contour>
      <point x="108" y="232" type="curve" smooth="yes" name="hr00"/>
      <point x="108" y="76"/>
      <point x="155" y="-52"/>
      <point x="226" y="-138" type="curve"/>
      <point x="247" y="-138" type="line"/>
      <point x="164" y="-38"/>
      <point x="127" y="83"/>
      <point x="127" y="232" type="curve" smooth="yes"/>
      <point x="127" y="261"/>
      <point x="129" y="289"/>
      <point x="134" y="319" type="curve" smooth="yes"/>
      <point x="140" y="353" type="line" smooth="yes"/>
      <point x="170" y="522"/>
      <point x="273" y="673"/>
      <point x="398" y="760" type="curve"/>
      <point x="372" y="760" type="line"/>
      <point x="228" y="659"/>
      <point x="108" y="453"/>
    </contour>
  </outline>
</glyph>
<glyph name="parenright" format="1">
  <advance width="330"/>
  <unicode hex="0029"/>
  <outline>
    <contour>
      <point x="241" y="390" type="curve" smooth="yes" name="hr00"/>
      <point x="241" y="546"/>
      <point x="194" y="674"/>
      <point x="123" y="760" type="curve"/>
      <point x="102" y="760" type="line"/>
      <point x="185" y="660"/>
      <point x="222" y="539"/>
      <point x="222" y="390" type="curve" smooth="yes"/>
      <point x="222" y="361"/>
      <point x="220" y="334"/>
      <point x="215" y="303" type="curve" smooth="yes"/>
      <point x="209" y="269" type="line" smooth="yes"/>
      <point x="179" y="100"/>
      <point x="76" y="-51"/>
      <point x="-49" y="-138" type="curve"/>
      <point x="-23" y="-138" type="line"/>
      <point x="121" y="-37"/>
      <point x="241" y="169"/>
    </contour>
  </outline>
</glyph>
<glyph name="asterisk" format="1">
  <advance width="363"/>
  <unicode hex="002A"/>
  <outline>
    <contour>
      <point x="244" y="565" type="line" name="hr00"/>
      <point x="312" y="436" type="line"/>
      <point x="328" y="446" type="line"/>
      <point x="260" y="574" type="line"/>
      <point x="418" y="621" type="line"/>
      <point x="413" y="640" type="line"/>
      <point x="257" y="590" type="line"/>
      <point x="288" y="747" type="line"/>
      <point x="268" y="747" type="line"/>
      <point x="239" y="591" type="line"/>
      <point x="100" y="640" type="line"/>
      <point x="92" y="621" type="line"/>
      <point x="230" y="576" type="line"/>
      <point x="111" y="447" type="line"/>
      <point x="126" y="436" type="line"/>
    </contour>
  </outline>
</glyph>
<glyph name="plus" format="1">
  <advance width="600"/>
  <unicode hex="002B"/>
  <outline>
    <contour>
      <point x="272" y="62" type="line" name="hr00"/>
      <point x="319" y="296" type="line"/>
      <point x="547" y="296" type="line"/>
      <point x="551" y="315" type="line"/>
      <point x="323" y="315" type="line"/>
      <point x="370" y="549" type="line"/>
      <point x="349" y="549" type="line"/>
      <point x="302" y="315" type="line"/>
      <point x="74" y="315" type="line"/>
      <point x="70" y="296" type="line"/>
      <point x="298" y="296" type="line"/>
      <point x="251" y="62" type="line"/>
    </contour>
  </outline>
</glyph>
<glyph name="comma" format="1">
  <advance width="240"/>
  <unicode hex="002C"/>
  <outline>
    <contour>
      <point x="77" y="53" type="curve" smooth="yes" name="hr00"/>
      <point x="57" y="53"/>
      <point x="51" y="43"/>
      <point x="48" y="32" type="curve" smooth="yes"/>
      <point x="47" y="28"/>
      <point x="45" y="19"/>
      <point x="45" y="14" type="curve" smooth="yes"/>
      <point x="45" y="5"/>
      <point x="50" y="-5"/>
      <point x="72" y="-5" type="curve"/>
      <point x="61" y="-42"/>
      <point x="31" y="-97"/>
      <point x="-29" y="-147" type="curve"/>
      <point x="-8" y="-147" type="line"/>
      <point x="42" y="-107"/>
      <point x="86" y="-39"/>
      <point x="99" y="15" type="curve" smooth="yes"/>
      <point x="100" y="19"/>
      <point x="102" y="29"/>
      <point x="102" y="34" type="curve" smooth="yes"/>
      <point x="102" y="43"/>
      <point x="96" y="53"/>
    </contour>
  </outline>
</glyph>
<glyph name="hyphen" format="1">
  <advance width="388"/>
  <unicode hex="002D"/>
  <outline>
    <contour>
      <point x="317" y="295" type="line" name="hr00"/>
      <point x="321" y="315" type="line"/>
      <point x="92" y="315" type="line"/>
      <point x="88" y="295" type="line"/>
    </contour>
  </outline>
</glyph>
<glyph name="period" format="1">
  <advance width="240"/>
  <unicode hex="002E"/>
  <outline>
    <contour>
      <point x="71" y="-5" type="curve" smooth="yes" name="hr00"/>
      <point x="91" y="-5"/>
      <point x="96" y="5"/>
      <point x="99" y="16" type="curve" smooth="yes"/>
      <point x="100" y="20"/>
      <point x="102" y="29"/>
      <point x="102" y="34" type="curve" smooth="yes"/>
      <point x="102" y="43"/>
      <point x="96" y="53"/>
      <point x="77" y="53" type="curve" smooth="yes"/>
      <point x="57" y="53"/>
      <point x="51" y="43"/>
      <point x="48" y="32" type="curve" smooth="yes"/>
      <point x="47" y="28"/>
      <point x="45" y="19"/>
      <point x="45" y="14" type="curve" smooth="yes"/>
      <point x="45" y="5"/>
      <point x="51" y="-5"/>
    </contour>
  </outline>
</glyph>
<glyph name="slash" format="1">
  <advance width="301"/>
  <unicode hex="002F"/>
  <outline>
    <contour>
      <point x="-57" y="-151" type="line" name="hr00"/>
      <point x="369" y="740" type="line"/>
      <point x="349" y="740" type="line"/>
      <point x="-77" y="-151" type="line"/>
    </contour>
  </outline>
</glyph>
<glyph name="zero" format="1">
  <advance width="600"/>
  <unicode hex="0030"/>
  <outline>
    <contour>
      <point x="254" y="-12" type="curve" smooth="yes" name="hr00"/>
      <point x="475" y="-12"/>
      <point x="557" y="280"/>
      <point x="557" y="479" type="curve" smooth="yes"/>
      <point x="557" y="633"/>
      <point x="499" y="710"/>
      <point x="378" y="710" type="curve" smooth="yes"/>
      <point x="157" y="710"/>
      <point x="75" y="418"/>
      <point x="75" y="219" type="curve" smooth="yes"/>
      <point x="75" y="65"/>
      <point x="133" y="-12"/>
    </contour>
    <contour>
      <point x="254" y="8" type="curve" smooth="yes"/>
      <point x="138" y="8"/>
      <point x="96" y="86"/>
      <point x="96" y="219" type="curve" smooth="yes"/>
      <point x="96" y="253"/>
      <point x="99" y="291"/>
      <point x="107" y="331" type="curve" smooth="yes"/>
      <point x="119" y="390" type="line" smooth="yes"/>
      <point x="158" y="582"/>
      <point x="251" y="690"/>
      <point x="378" y="690" type="curve" smooth="yes"/>
      <point x="494" y="690"/>
      <point x="536" y="612"/>
      <point x="536" y="479" type="curve" smooth="yes"/>
      <point x="536" y="445"/>
      <point x="533" y="407"/>
      <point x="525" y="367" type="curve" smooth="yes"/>
      <point x="513" y="308" type="line" smooth="yes"/>
      <point x="474" y="116"/>
      <point x="381" y="8"/>
    </contour>
  </outline>
</glyph>
<glyph name="one" format="1">
  <advance width="600"/>
  <unicode hex="0031"/>
  <outline>
    <contour>
      <point x="500" y="0" type="line" name="hr00"/>
      <point x="504" y="20" type="line"/>
      <point x="293" y="20" type="line"/>
      <point x="428" y="698" type="line"/>
      <point x="389" y="698" type="line"/>
      <point x="138" y="517" type="line"/>
      <point x="149" y="501" type="line"/>
      <point x="399" y="682" type="line"/>
      <point x="402" y="682" type="line"/>
      <point x="271" y="20" type="line"/>
      <point x="52" y="20" type="line"/>
      <point x="48" y="0" type="line"/>
    </contour>
  </outline>
</glyph>
<glyph name="two" format="1">
  <advance width="600"/>
  <unicode hex="0032"/>
  <outline>
    <contour>
      <point x="470" y="20" type="line" name="hr00"/>
      <point x="63" y="20" type="line"/>
      <point x="383" y="289" type="line" smooth="yes"/>
      <point x="491" y="380"/>
      <point x="538" y="453"/>
      <point x="538" y="556" type="curve" smooth="yes"/>
      <point x="538" y="643"/>
      <point x="485" y="710"/>
      <point x="370" y="710" type="curve" smooth="yes"/>
      <point x="263" y="710"/>
      <point x="187" y="662"/>
      <point x="146" y="557" type="curve"/>
      <point x="165" y="551" type="line"/>
      <point x="205" y="648"/>
      <point x="271" y="690"/>
      <point x="368" y="690" type="curve" smooth="yes"/>
      <point x="471" y="690"/>
      <point x="517" y="635"/>
      <point x="517" y="556" type="curve" smooth="yes"/>
      <point x="517" y="545"/>
      <point x="517" y="531"/>
      <point x="508" y="490" type="curve" smooth="yes"/>
      <point x="495" y="426"/>
      <point x="441" y="363"/>
      <point x="367" y="302" type="curve" smooth="yes"/>
      <point x="38" y="24" type="line"/>
      <point x="33" y="0" type="line"/>
      <point x="467" y="0" type="line"/>
    </contour>
  </outline>
</glyph>
<glyph name="three" format="1">
  <advance width="600"/>
  <unicode hex="0033"/>
  <outline>
    <contour>
      <point x="211" y="376" type="line" name="hr00"/>
      <point x="207" y="356" type="line"/>
      <point x="302" y="356" type="line" smooth="yes"/>
      <point x="407" y="356"/>
      <point x="459" y="300"/>
      <point x="459" y="216" type="curve" smooth="yes"/>
      <point x="459" y="207"/>
      <point x="458" y="195"/>
      <point x="451" y="160" type="curve" smooth="yes"/>
      <point x="433" y="67"/>
      <point x="355" y="8"/>
      <point x="246" y="8" type="curve" smooth="yes"/>
      <point x="151" y="8"/>
      <point x="88" y="36"/>
      <point x="57" y="105" type="curve"/>
      <point x="40" y="95" type="line"/>
      <point x="72" y="21"/>
      <point x="147" y="-12"/>
      <point x="245" y="-12" type="curve" smooth="yes"/>
      <point x="384" y="-12"/>
      <point x="481" y="76"/>
      <point x="481" y="216" type="curve" smooth="yes"/>
      <point x="481" y="297"/>
      <point x="430" y="354"/>
      <point x="361" y="363" type="curve"/>
      <point x="362" y="366" type="line"/>
      <point x="467" y="382"/>
      <point x="533" y="453"/>
      <point x="533" y="560" type="curve" smooth="yes"/>
      <point x="533" y="655"/>
      <point x="460" y="710"/>
      <point x="363" y="710" type="curve" smooth="yes"/>
      <point x="258" y="710"/>
      <point x="193" y="669"/>
      <point x="154" y="599" type="curve"/>
      <point x="172" y="590" type="line"/>
      <point x="212" y="659"/>
      <point x="267" y="690"/>
      <point x="360" y="690" type="curve" smooth="yes"/>
      <point x="453" y="690"/>
      <point x="511" y="640"/>
      <point x="511" y="558" type="curve" smooth="yes"/>
      <point x="511" y="547"/>
      <point x="510" y="539"/>
      <point x="504" y="512" type="curve" smooth="yes"/>
      <point x="485" y="425"/>
      <point x="413" y="376"/>
      <point x="305" y="376" type="curve" smooth="yes"/>
    </contour>
  </outline>
</glyph>
<glyph name="four" format="1">
  <advance width="600"/>
  <unicode hex="0034"/>
  <outline>
    <contour>
      <point x="379" y="0" type="line" name="hr00"/>
      <point x="411" y="160" type="line"/>
      <point x="528" y="160" type="line"/>
      <point x="532" y="179" type="line"/>
      <point x="415" y="179" type="line"/>
      <point x="519" y="698" type="line"/>
      <point x="490" y="698" type="line"/>
      <point x="29" y="181" type="line"/>
      <point x="25" y="160" type="line"/>
      <point x="390" y="160" type="line"/>
      <point x="358" y="0" type="line"/>
    </contour>
    <contour>
      <point x="489" y="670" type="line"/>
      <point x="492" y="670" type="line"/>
      <point x="394" y="179" type="line"/>
      <point x="53" y="179" type="line"/>
    </contour>
  </outline>
</glyph>
<glyph name="five" format="1">
  <advance width="600"/>
  <unicode hex="0035"/>
  <outline>
    <contour>
      <point x="575" y="698" type="line" name="hr00"/>
      <point x="233" y="698" type="line"/>
      <point x="133" y="326" type="line"/>
      <point x="157" y="323" type="line"/>
      <point x="207" y="370"/>
      <point x="249" y="393"/>
      <point x="328" y="393" type="curve" smooth="yes"/>
      <point x="434" y="393"/>
      <point x="483" y="337"/>
      <point x="483" y="245" type="curve" smooth="yes"/>
      <point x="483" y="233"/>
      <point x="482" y="218"/>
      <point x="474" y="178" type="curve" smooth="yes"/>
      <point x="454" y="75"/>
      <point x="384" y="8"/>
      <point x="259" y="8" type="curve" smooth="yes"/>
      <point x="183" y="8"/>
      <point x="109" y="33"/>
      <point x="78" y="105" type="curve"/>
      <point x="61" y="95" type="line"/>
      <point x="92" y="21"/>
      <point x="172" y="-12"/>
      <point x="260" y="-12" type="curve" smooth="yes"/>
      <point x="406" y="-12"/>
      <point x="505" y="84"/>
      <point x="505" y="245" type="curve" smooth="yes"/>
      <point x="505" y="350"/>
      <point x="446" y="413"/>
      <point x="329" y="413" type="curve" smooth="yes"/>
      <point x="258" y="413"/>
      <point x="206" y="393"/>
      <point x="161" y="343" type="curve"/>
      <point x="158" y="344" type="line"/>
      <point x="248" y="678" type="line"/>
      <point x="572" y="678" type="line"/>
    </contour>
  </outline>
</glyph>
<glyph name="six" format="1">
  <advance width="600"/>
  <unicode hex="0036"/>
  <outline>
    <contour>
      <point x="267" y="-12" type="curve" smooth="yes" name="hr00"/>
      <point x="414" y="-12"/>
      <point x="518" y="101"/>
      <point x="518" y="245" type="curve" smooth="yes"/>
      <point x="518" y="351"/>
      <point x="448" y="416"/>
      <point x="339" y="416" type="curve" smooth="yes"/>
      <point x="254" y="416"/>
      <point x="174" y="384"/>
      <point x="128" y="296" type="curve"/>
      <point x="125" y="297" type="line"/>
      <point x="185" y="465"/>
      <point x="295" y="585"/>
      <point x="494" y="698" type="curve"/>
      <point x="460" y="698" type="line"/>
      <point x="248" y="584"/>
      <point x="85" y="383"/>
      <point x="85" y="168" type="curve" smooth="yes"/>
      <point x="85" y="62"/>
      <point x="140" y="-12"/>
    </contour>
    <contour>
      <point x="266" y="8" type="curve" smooth="yes"/>
      <point x="157" y="8"/>
      <point x="106" y="71"/>
      <point x="106" y="160" type="curve" smooth="yes"/>
      <point x="106" y="170"/>
      <point x="107" y="182"/>
      <point x="114" y="221" type="curve" smooth="yes"/>
      <point x="134" y="320"/>
      <point x="218" y="396"/>
      <point x="336" y="396" type="curve" smooth="yes"/>
      <point x="445" y="396"/>
      <point x="496" y="334"/>
      <point x="496" y="245" type="curve" smooth="yes"/>
      <point x="496" y="235"/>
      <point x="495" y="223"/>
      <point x="488" y="183" type="curve" smooth="yes"/>
      <point x="471" y="84"/>
      <point x="384" y="8"/>
    </contour>
  </outline>
</glyph>
<glyph name="seven" format="1">
  <advance width="600"/>
  <unicode hex="0037"/>
  <outline>
    <contour>
      <point x="169" y="0" type="line" name="hr00"/>
      <point x="604" y="678" type="line"/>
      <point x="608" y="698" type="line"/>
      <point x="173" y="698" type="line"/>
      <point x="136" y="512" type="line"/>
      <point x="157" y="512" type="line"/>
      <point x="190" y="678" type="line"/>
      <point x="579" y="678" type="line"/>
      <point x="144" y="0" type="line"/>
    </contour>
  </outline>
</glyph>
<glyph name="eight" format="1">
  <advance width="600"/>
  <unicode hex="0038"/>
  <outline>
    <contour>
      <point x="245" y="-12" type="curve" smooth="yes" name="hr00"/>
      <point x="396" y="-12"/>
      <point x="506" y="78"/>
      <point x="506" y="209" type="curve" smooth="yes"/>
      <point x="506" y="290"/>
      <point x="466" y="341"/>
      <point x="388" y="362" type="curve"/>
      <point x="389" y="366" type="line"/>
      <point x="484" y="385"/>
      <point x="553" y="459"/>
      <point x="553" y="561" type="curve" smooth="yes"/>
      <point x="553" y="652"/>
      <point x="487" y="710"/>
      <point x="372" y="710" type="curve" smooth="yes"/>
      <point x="237" y="710"/>
      <point x="139" y="629"/>
      <point x="139" y="506" type="curve" smooth="yes"/>
      <point x="139" y="434"/>
      <point x="175" y="388"/>
      <point x="242" y="371" type="curve"/>
      <point x="242" y="367" type="line"/>
      <point x="126" y="349"/>
      <point x="47" y="266"/>
      <point x="47" y="154" type="curve" smooth="yes"/>
      <point x="47" y="54"/>
      <point x="118" y="-12"/>
    </contour>
    <contour>
      <point x="246" y="8" type="curve" smooth="yes"/>
      <point x="132" y="8"/>
      <point x="70" y="66"/>
      <point x="70" y="150" type="curve" smooth="yes"/>
      <point x="70" y="159"/>
      <point x="70" y="166"/>
      <point x="76" y="200" type="curve" smooth="yes"/>
      <point x="94" y="293"/>
      <point x="186" y="356"/>
      <point x="307" y="356" type="curve" smooth="yes"/>
      <point x="421" y="356"/>
      <point x="484" y="298"/>
      <point x="484" y="214" type="curve" smooth="yes"/>
      <point x="484" y="205"/>
      <point x="483" y="197"/>
      <point x="477" y="164" type="curve" smooth="yes"/>
      <point x="460" y="70"/>
      <point x="367" y="8"/>
    </contour>
    <contour>
      <point x="322" y="376" type="curve" smooth="yes"/>
      <point x="219" y="376"/>
      <point x="162" y="424"/>
      <point x="162" y="501" type="curve" smooth="yes"/>
      <point x="162" y="509"/>
      <point x="162" y="518"/>
      <point x="168" y="550" type="curve" smooth="yes"/>
      <point x="185" y="636"/>
      <point x="261" y="690"/>
      <point x="370" y="690" type="curve" smooth="yes"/>
      <point x="473" y="690"/>
      <point x="530" y="642"/>
      <point x="530" y="565" type="curve" smooth="yes"/>
      <point x="530" y="557"/>
      <point x="529" y="548"/>
      <point x="523" y="516" type="curve" smooth="yes"/>
      <point x="507" y="430"/>
      <point x="431" y="376"/>
    </contour>
  </outline>
</glyph>
<glyph name="nine" format="1">
  <advance width="600"/>
  <unicode hex="0039"/>
  <outline>
    <contour>
      <point x="547" y="530" type="curve" smooth="yes" name="hr00"/>
      <point x="547" y="636"/>
      <point x="492" y="710"/>
      <point x="365" y="710" type="curve" smooth="yes"/>
      <point x="218" y="710"/>
      <point x="114" y="597"/>
      <point x="114" y="453" type="curve" smooth="yes"/>
      <point x="114" y="347"/>
      <point x="184" y="282"/>
      <point x="293" y="282" type="curve" smooth="yes"/>
      <point x="378" y="282"/>
      <point x="458" y="314"/>
      <point x="504" y="402" type="curve"/>
      <point x="507" y="401" type="line"/>
      <point x="447" y="233"/>
      <point x="337" y="113"/>
      <point x="138" y="0" type="curve"/>
      <point x="172" y="0" type="line"/>
      <point x="384" y="114"/>
      <point x="547" y="315"/>
    </contour>
    <contour>
      <point x="296" y="302" type="curve" smooth="yes"/>
      <point x="187" y="302"/>
      <point x="136" y="364"/>
      <point x="136" y="453" type="curve" smooth="yes"/>
      <point x="136" y="463"/>
      <point x="138" y="477"/>
      <point x="144" y="515" type="curve" smooth="yes"/>
      <point x="160" y="615"/>
      <point x="248" y="690"/>
      <point x="366" y="690" type="curve" smooth="yes"/>
      <point x="475" y="690"/>
      <point x="526" y="628"/>
      <point x="526" y="539" type="curve" smooth="yes"/>
      <point x="526" y="529"/>
      <point x="525" y="515"/>
      <point x="518" y="477" type="curve" smooth="yes"/>
      <point x="500" y="378"/>
      <point x="414" y="302"/>
    </contour>
  </outline>
</glyph>
<glyph name="less" format="1">
  <advance width="600"/>
  <unicode hex="003C"/>
  <outline>
    <contour>
      <point x="475" y="38" type="line" name="hr00"/>
      <point x="479" y="59" type="line"/>
      <point x="121" y="302" type="line"/>
      <point x="121" y="304" type="line"/>
      <point x="577" y="547" type="line"/>
      <point x="581" y="572" type="line"/>
      <point x="100" y="314" type="line"/>
      <point x="96" y="296" type="line"/>
    </contour>
  </outline>
</glyph>
<glyph name="equal" format="1">
  <advance width="600"/>
  <unicode hex="003D"/>
  <outline>
    <contour>
      <point x="554" y="385" type="line" name="hr00"/>
      <point x="558" y="404" type="line"/>
      <point x="82" y="404" type="line"/>
      <point x="78" y="385" type="line"/>
    </contour>
    <contour>
      <point x="518" y="207" type="line"/>
      <point x="522" y="226" type="line"/>
      <point x="46" y="226" type="line"/>
      <point x="42" y="207" type="line"/>
    </contour>
  </outline>
</glyph>
<glyph name="greater" format="1">
  <advance width="600"/>
  <unicode hex="003E"/>
  <outline>
    <contour>
      <point x="39" y="38" type="line" name="hr00"/>
      <point x="520" y="296" type="line"/>
      <point x="524" y="314" type="line"/>
      <point x="145" y="572" type="line"/>
      <point x="141" y="551" type="line"/>
      <point x="499" y="308" type="line"/>
      <point x="499" y="306" type="line"/>
      <point x="43" y="63" type="line"/>
    </contour>
  </outline>
</glyph>
<glyph name="question" format="1">
  <advance width="453"/>
  <unicode hex="003F"/>
  <outline>
    <contour>
      <point x="201" y="176" type="line" name="hr00"/>
      <point x="231" y="331" type="line"/>
      <point x="395" y="346"/>
      <point x="469" y="428"/>
      <point x="469" y="554" type="curve" smooth="yes"/>
      <point x="469" y="648"/>
      <point x="404" y="710"/>
      <point x="300" y="710" type="curve" smooth="yes"/>
      <point x="192" y="710"/>
      <point x="127" y="651"/>
      <point x="91" y="560" type="curve"/>
      <point x="110" y="554" type="line"/>
      <point x="146" y="639"/>
      <point x="199" y="691"/>
      <point x="299" y="691" type="curve" smooth="yes"/>
      <point x="395" y="691"/>
      <point x="447" y="639"/>
      <point x="447" y="554" type="curve" smooth="yes"/>
      <point x="447" y="545"/>
      <point x="444" y="522"/>
      <point x="442" y="508" type="curve" smooth="yes"/>
      <point x="428" y="411"/>
      <point x="356" y="360"/>
      <point x="212" y="349" type="curve"/>
      <point x="179" y="176" type="line"/>
    </contour>
    <contour>
      <point x="157" y="-5" type="curve" smooth="yes"/>
      <point x="177" y="-5"/>
      <point x="182" y="5"/>
      <point x="185" y="16" type="curve" smooth="yes"/>
      <point x="186" y="20"/>
      <point x="188" y="29"/>
      <point x="188" y="34" type="curve" smooth="yes"/>
      <point x="188" y="43"/>
      <point x="182" y="53"/>
      <point x="163" y="53" type="curve" smooth="yes"/>
      <point x="143" y="53"/>
      <point x="137" y="43"/>
      <point x="134" y="32" type="curve" smooth="yes"/>
      <point x="133" y="28"/>
      <point x="131" y="19"/>
      <point x="131" y="14" type="curve" smooth="yes"/>
      <point x="131" y="5"/>
      <point x="137" y="-5"/>
    </contour>
  </outline>
</glyph>
<glyph name="at" format="1">
  <advance width="880"/>
  <unicode hex="0040"/>
  <outline>
    <contour>
      <point x="600" y="-121" type="line" name="hr00"/>
      <point x="603" y="-103" type="line"/>
      <point x="367" y="-103" type="line" smooth="yes"/>
      <point x="196" y="-103"/>
      <point x="85" y="4"/>
      <point x="85" y="186" type="curve" smooth="yes"/>
      <point x="85" y="215"/>
      <point x="88" y="242"/>
      <point x="95" y="274" type="curve" smooth="yes"/>
      <point x="106" y="326" type="line" smooth="yes"/>
      <point x="150" y="533"/>
      <point x="325" y="692"/>
      <point x="528" y="692" type="curve" smooth="yes"/>
      <point x="698" y="692"/>
      <point x="814" y="592"/>
      <point x="814" y="414" type="curve" smooth="yes"/>
      <point x="814" y="390"/>
      <point x="811" y="368"/>
      <point x="806" y="342" type="curve" smooth="yes"/>
      <point x="797" y="295" type="line" smooth="yes"/>
      <point x="772" y="163"/>
      <point x="704" y="87"/>
      <point x="633" y="87" type="curve" smooth="yes"/>
      <point x="594" y="87"/>
      <point x="573" y="106"/>
      <point x="573" y="138" type="curve" smooth="yes"/>
      <point x="573" y="146"/>
      <point x="573" y="154"/>
      <point x="575" y="163" type="curve" smooth="yes"/>
      <point x="641" y="496" type="line"/>
      <point x="621" y="496" type="line"/>
      <point x="608" y="426" type="line"/>
      <point x="605" y="426" type="line"/>
      <point x="596" y="468"/>
      <point x="549" y="508"/>
      <point x="486" y="508" type="curve" smooth="yes"/>
      <point x="375" y="508"/>
      <point x="296" y="437"/>
      <point x="269" y="287" type="curve" smooth="yes"/>
      <point x="264" y="259"/>
      <point x="261" y="232"/>
      <point x="261" y="210" type="curve" smooth="yes"/>
      <point x="261" y="123"/>
      <point x="311" y="69"/>
      <point x="398" y="69" type="curve" smooth="yes"/>
      <point x="471" y="69"/>
      <point x="522" y="112"/>
      <point x="549" y="150" type="curve"/>
      <point x="552" y="150" type="line"/>
      <point x="552" y="147"/>
      <point x="552" y="141"/>
      <point x="552" y="138" type="curve" smooth="yes"/>
      <point x="552" y="97"/>
      <point x="582" y="69"/>
      <point x="630" y="69" type="curve" smooth="yes"/>
      <point x="731" y="69"/>
      <point x="799" y="177"/>
      <point x="824" y="320" type="curve" smooth="yes"/>
      <point x="830" y="354"/>
      <point x="834" y="385"/>
      <point x="834" y="414" type="curve" smooth="yes"/>
      <point x="834" y="607"/>
      <point x="706" y="710"/>
      <point x="532" y="710" type="curve" smooth="yes"/>
      <point x="308" y="710"/>
      <point x="128" y="547"/>
      <point x="78" y="300" type="curve" smooth="yes"/>
      <point x="70" y="259"/>
      <point x="66" y="221"/>
      <point x="66" y="186" type="curve" smooth="yes"/>
      <point x="66" y="-10"/>
      <point x="181" y="-121"/>
      <point x="364" y="-121" type="curve" smooth="yes"/>
    </contour>
    <contour>
      <point x="401" y="87" type="curve" smooth="yes"/>
      <point x="322" y="87"/>
      <point x="282" y="134"/>
      <point x="282" y="210" type="curve" smooth="yes"/>
      <point x="282" y="228"/>
      <point x="284" y="247"/>
      <point x="288" y="268" type="curve" smooth="yes"/>
      <point x="295" y="306" type="line" smooth="yes"/>
      <point x="318" y="420"/>
      <point x="385" y="490"/>
      <point x="482" y="490" type="curve" smooth="yes"/>
      <point x="557" y="490"/>
      <point x="609" y="438"/>
      <point x="594" y="362" type="curve" smooth="yes"/>
      <point x="564" y="212" type="line" smooth="yes"/>
      <point x="551" y="146"/>
      <point x="474" y="87"/>
    </contour>
  </outline>
</glyph>
<glyph name="A" format="1">
  <advance width="594"/>
  <unicode hex="0041"/>
  <outline>
    <contour>
      <point x="519" y="0" type="line" name="hr00"/>
      <point x="384" y="698" type="line"/>
      <point x="354" y="698" type="line"/>
      <point x="-12" y="0" type="line"/>
      <point x="12" y="0" type="line"/>
      <point x="134" y="234" type="line"/>
      <point x="452" y="234" type="line"/>
      <point x="497" y="0" type="line"/>
    </contour>
    <contour>
      <point x="448" y="253" type="line"/>
      <point x="144" y="253" type="line"/>
      <point x="364" y="673" type="line"/>
      <point x="367" y="673" type="line"/>
    </contour>
    <contour>
      <point x="252" y="0" type="move" name="bottom"/>
    </contour>
    <contour>
      <point x="519" y="0" type="move" name="bottomright"/>
    </contour>
    <contour>
      <point x="369" y="698" type="move" name="top"/>
    </contour>
  </outline>
</glyph>
<glyph name="B" format="1">
  <advance width="606"/>
  <unicode hex="0042"/>
  <outline>
    <contour>
      <point x="55" y="0" type="line" name="hr00"/>
      <point x="321" y="0" type="line" smooth="yes"/>
      <point x="451" y="0"/>
      <point x="531" y="84"/>
      <point x="531" y="228" type="curve" smooth="yes"/>
      <point x="531" y="295"/>
      <point x="495" y="352"/>
      <point x="429" y="367" type="curve"/>
      <point x="429" y="370" type="line"/>
      <point x="535" y="391"/>
      <point x="564" y="479"/>
      <point x="564" y="561" type="curve" smooth="yes"/>
      <point x="564" y="649"/>
      <point x="510" y="698"/>
      <point x="414" y="698" type="curve" smooth="yes"/>
      <point x="193" y="698" type="line"/>
    </contour>
    <contour>
      <point x="81" y="20" type="line"/>
      <point x="148" y="358" type="line"/>
      <point x="377" y="358" type="line" smooth="yes"/>
      <point x="469" y="358"/>
      <point x="509" y="298"/>
      <point x="509" y="228" type="curve" smooth="yes"/>
      <point x="509" y="217"/>
      <point x="508" y="198"/>
      <point x="500" y="159" type="curve" smooth="yes"/>
      <point x="484" y="79"/>
      <point x="426" y="20"/>
      <point x="323" y="20" type="curve" smooth="yes"/>
    </contour>
    <contour>
      <point x="152" y="378" type="line"/>
      <point x="211" y="678" type="line"/>
      <point x="413" y="678" type="line" smooth="yes"/>
      <point x="505" y="678"/>
      <point x="542" y="632"/>
      <point x="542" y="562" type="curve" smooth="yes"/>
      <point x="542" y="551"/>
      <point x="541" y="538"/>
      <point x="533" y="495" type="curve" smooth="yes"/>
      <point x="519" y="422"/>
      <point x="461" y="378"/>
      <point x="367" y="378" type="curve" smooth="yes"/>
    </contour>
    <contour>
      <point x="234" y="0" type="move" name="bottom"/>
    </contour>
    <contour>
      <point x="347" y="698" type="move" name="top"/>
    </contour>
  </outline>
</glyph>
<glyph name="C" format="1">
  <advance width="595"/>
  <unicode hex="0043"/>
  <outline>
    <contour>
      <point x="291" y="-12" type="curve" smooth="yes" name="hr00"/>
      <point x="388" y="-12"/>
      <point x="457" y="32"/>
      <point x="519" y="141" type="curve"/>
      <point x="500" y="151" type="line"/>
      <point x="447" y="55"/>
      <point x="384" y="8"/>
      <point x="291" y="8" type="curve" smooth="yes"/>
      <point x="162" y="8"/>
      <point x="91" y="90"/>
      <point x="91" y="220" type="curve" smooth="yes"/>
      <point x="91" y="248"/>
      <point x="93" y="287"/>
      <point x="101" y="329" type="curve" smooth="yes"/>
      <point x="112" y="384" type="line" smooth="yes"/>
      <point x="149" y="570"/>
      <point x="255" y="690"/>
      <point x="397" y="690" type="curve" smooth="yes"/>
      <point x="501" y="690"/>
      <point x="547" y="640"/>
      <point x="568" y="564" type="curve"/>
      <point x="589" y="569" type="line"/>
      <point x="567" y="656"/>
      <point x="510" y="710"/>
      <point x="398" y="710" type="curve" smooth="yes"/>
      <point x="158" y="710"/>
      <point x="69" y="418"/>
      <point x="69" y="220" type="curve" smooth="yes"/>
      <point x="69" y="69"/>
      <point x="159" y="-12"/>
    </contour>
    <contour>
      <point x="292" y="0" type="move" name="bottom"/>
    </contour>
    <contour>
      <point x="398" y="698" type="move" name="top"/>
    </contour>
  </outline>
</glyph>
<glyph name="D" format="1">
  <advance width="648"/>
  <unicode hex="0044"/>
  <outline>
    <contour>
      <point x="55" y="0" type="line" name="hr00"/>
      <point x="282" y="0" type="line" smooth="yes"/>
      <point x="510" y="0"/>
      <point x="610" y="241"/>
      <point x="610" y="468" type="curve" smooth="yes"/>
      <point x="610" y="612"/>
      <point x="530" y="698"/>
      <point x="378" y="698" type="curve" smooth="yes"/>
      <point x="193" y="698" type="line"/>
    </contour>
    <contour>
      <point x="81" y="20" type="line"/>
      <point x="211" y="678" type="line"/>
      <point x="375" y="678" type="line" smooth="yes"/>
      <point x="519" y="678"/>
      <point x="588" y="598"/>
      <point x="588" y="468" type="curve" smooth="yes"/>
      <point x="588" y="440"/>
      <point x="586" y="400"/>
      <point x="578" y="358" type="curve" smooth="yes"/>
      <point x="567" y="303" type="line" smooth="yes"/>
      <point x="536" y="150"/>
      <point x="440" y="20"/>
      <point x="282" y="20" type="curve" smooth="yes"/>
    </contour>
    <contour>
      <point x="239" y="0" type="move" name="bottom"/>
    </contour>
    <contour>
      <point x="367" y="698" type="move" name="top"/>
    </contour>
  </outline>
</glyph>
<glyph name="E" format="1">
  <advance width="553"/>
  <unicode hex="0045"/>
  <outline>
    <contour>
      <point x="432" y="0" type="line" name="hr00"/>
      <point x="436" y="20" type="line"/>
      <point x="80" y="20" type="line"/>
      <point x="145" y="344" type="line"/>
      <point x="489" y="344" type="line"/>
      <point x="493" y="364" type="line"/>
      <point x="149" y="364" type="line"/>
      <point x="212" y="678" type="line"/>
      <point x="568" y="678" type="line"/>
      <point x="572" y="698" type="line"/>
      <point x="194" y="698" type="line"/>
      <point x="54" y="0" type="line"/>
    </contour>
    <contour>
      <point x="247" y="0" type="move" name="bottom"/>
    </contour>
    <contour>
      <point x="432" y="0" type="move" name="bottomright"/>
    </contour>
    <contour>
      <point x="380" y="698" type="move" name="top"/>
    </contour>
  </outline>
</glyph>
<glyph name="F" format="1">
  <advance width="528"/>
  <unicode hex="0046"/>
  <outline>
    <contour>
      <point x="76" y="0" type="line" name="hr00"/>
      <point x="145" y="344" type="line"/>
      <point x="479" y="344" type="line"/>
      <point x="483" y="364" type="line"/>
      <point x="149" y="364" type="line"/>
      <point x="212" y="678" type="line"/>
      <point x="560" y="678" type="line"/>
      <point x="564" y="698" type="line"/>
      <point x="194" y="698" type="line"/>
      <point x="54" y="0" type="line"/>
    </contour>
    <contour>
      <point x="69" y="0" type="move" name="bottom"/>
    </contour>
    <contour>
      <point x="378" y="698" type="move" name="top"/>
    </contour>
  </outline>
</glyph>
<glyph name="G" format="1">
  <advance width="660"/>
  <unicode hex="0047"/>
  <outline>
    <contour>
      <point x="502" y="0" type="line"/>
      <point x="523" y="0" type="line"/>
      <point x="589" y="332" type="line"/>
      <point x="391" y="332" type="line"/>
      <point x="387" y="312" type="line"/>
      <point x="563" y="312" type="line"/>
      <point x="541" y="205" type="line" smooth="yes"/>
      <point x="513" y="67"/>
      <point x="401" y="8"/>
      <point x="295" y="8" type="curve" name="hr01"/>
      <point x="163" y="8"/>
      <point x="91" y="90"/>
      <point x="91" y="220" type="curve" smooth="yes"/>
      <point x="91" y="248"/>
      <point x="93" y="287"/>
      <point x="101" y="329" type="curve" smooth="yes"/>
      <point x="112" y="384" type="line" smooth="yes"/>
      <point x="149" y="570"/>
      <point x="255" y="690"/>
      <point x="402" y="690" type="curve" smooth="yes"/>
      <point x="516" y="690"/>
      <point x="566" y="641"/>
      <point x="589" y="564" type="curve"/>
      <point x="610" y="569" type="line"/>
      <point x="586" y="657"/>
      <point x="524" y="710"/>
      <point x="403" y="710" type="curve" smooth="yes"/>
      <point x="156" y="710"/>
      <point x="69" y="418"/>
      <point x="69" y="220" type="curve" smooth="yes"/>
      <point x="69" y="69"/>
      <point x="161" y="-12"/>
      <point x="295" y="-12" type="curve"/>
      <point x="390" y="-12"/>
      <point x="470" y="26"/>
      <point x="522" y="114" type="curve" name="hr02"/>
      <point x="525" y="114" type="line"/>
    </contour>
    <contour>
      <point x="296" y="0" type="move" name="bottom"/>
    </contour>
    <contour>
      <point x="405" y="698" type="move" name="top"/>
    </contour>
  </outline>
</glyph>
<glyph name="H" format="1">
  <advance width="680"/>
  <unicode hex="0048"/>
  <outline>
    <contour>
      <point x="502" y="0" type="line" name="hr00"/>
      <point x="524" y="0" type="line"/>
      <point x="664" y="698" type="line"/>
      <point x="642" y="698" type="line"/>
      <point x="575" y="364" type="line"/>
      <point x="149" y="364" type="line"/>
      <point x="216" y="698" type="line"/>
      <point x="194" y="698" type="line"/>
      <point x="54" y="0" type="line"/>
      <point x="76" y="0" type="line"/>
      <point x="145" y="344" type="line"/>
      <point x="571" y="344" type="line"/>
    </contour>
    <contour>
      <point x="289" y="0" type="move" name="bottom"/>
    </contour>
    <contour>
      <point x="429" y="698" type="move" name="top"/>
    </contour>
  </outline>
</glyph>
<glyph name="I" format="1">
  <advance width="368"/>
  <unicode hex="0049"/>
  <outline>
    <contour>
      <point x="251" y="0" type="line" name="hr00"/>
      <point x="255" y="19" type="line"/>
      <point x="148" y="19" type="line"/>
      <point x="280" y="679" type="line"/>
      <point x="387" y="679" type="line"/>
      <point x="391" y="698" type="line"/>
      <point x="155" y="698" type="line"/>
      <point x="151" y="679" type="line"/>
      <point x="258" y="679" type="line"/>
      <point x="126" y="19" type="line"/>
      <point x="19" y="19" type="line"/>
      <point x="15" y="0" type="line"/>
    </contour>
    <contour>
      <point x="133" y="0" type="move" name="bottom"/>
    </contour>
    <contour>
      <point x="253" y="0" type="move" name="bottomright"/>
    </contour>
    <contour>
      <point x="272" y="698" type="move" name="top"/>
    </contour>
  </outline>
</glyph>
<glyph name="J" format="1">
  <advance width="455"/>
  <unicode hex="004A"/>
  <outline>
    <contour>
      <point x="178" y="698" type="line" name="hr00"/>
      <point x="175" y="678" type="line"/>
      <point x="421" y="678" type="line"/>
      <point x="322" y="184" type="line" smooth="yes"/>
      <point x="300" y="72"/>
      <point x="237" y="8"/>
      <point x="142" y="8" type="curve" smooth="yes"/>
      <point x="64" y="8"/>
      <point x="14" y="46"/>
      <point x="6" y="123" type="curve"/>
      <point x="-14" y="118" type="line"/>
      <point x="-8" y="43"/>
      <point x="45" y="-12"/>
      <point x="142" y="-12" type="curve" smooth="yes"/>
      <point x="246" y="-12"/>
      <point x="319" y="56"/>
      <point x="343" y="178" type="curve" smooth="yes"/>
      <point x="446" y="698" type="line"/>
    </contour>
    <contour>
      <point x="123" y="0" type="move" name="bottom"/>
    </contour>
    <contour>
      <point x="293" y="698" type="move" name="top"/>
    </contour>
  </outline>
</glyph>
<glyph name="K" format="1">
  <advance width="564"/>
  <unicode hex="004B"/>
  <outline>
    <contour>
      <point x="474" y="0" type="line" name="hr00"/>
      <point x="497" y="0" type="line"/>
      <point x="307" y="402" type="line"/>
      <point x="633" y="698" type="line"/>
      <point x="604" y="698" type="line"/>
      <point x="300" y="423" type="line"/>
      <point x="134" y="271" type="line"/>
      <point x="131" y="271" type="line"/>
      <point x="216" y="698" type="line"/>
      <point x="194" y="698" type="line"/>
      <point x="54" y="0" type="line"/>
      <point x="76" y="0" type="line"/>
      <point x="125" y="237" type="line"/>
      <point x="290" y="388" type="line"/>
    </contour>
    <contour>
      <point x="263" y="0" type="move" name="bottom"/>
    </contour>
    <contour>
      <point x="366" y="698" type="move" name="top"/>
    </contour>
  </outline>
</glyph>
<glyph name="L" format="1">
  <advance width="468"/>
  <unicode hex="004C"/>
  <outline>
    <contour>
      <point x="401" y="0" type="line" name="hr00"/>
      <point x="405" y="20" type="line"/>
      <point x="80" y="20" type="line"/>
      <point x="216" y="698" type="line"/>
      <point x="194" y="698" type="line"/>
      <point x="54" y="0" type="line"/>
    </contour>
    <contour>
      <point x="232" y="0" type="move" name="bottom"/>
    </contour>
    <contour>
      <point x="213" y="698" type="move" name="top"/>
    </contour>
    <contour>
      <point x="324" y="740" type="move" name="topright"/>
    </contour>
  </outline>
</glyph>
<glyph name="M" format="1">
  <advance width="780"/>
  <unicode hex="004D"/>
  <outline>
    <contour>
      <point x="603" y="0" type="line" name="hr00"/>
      <point x="624" y="0" type="line"/>
      <point x="764" y="698" type="line"/>
      <point x="729" y="698" type="line"/>
      <point x="395" y="278" type="line"/>
      <point x="392" y="278" type="line"/>
      <point x="226" y="698" type="line"/>
      <point x="194" y="698" type="line"/>
      <point x="54" y="0" type="line"/>
      <point x="75" y="0" type="line"/>
      <point x="210" y="673" type="line"/>
      <point x="213" y="673" type="line"/>
      <point x="386" y="236" type="line"/>
      <point x="735" y="673" type="line"/>
      <point x="738" y="673" type="line"/>
    </contour>
    <contour>
      <point x="349" y="0" type="move" name="bottom"/>
    </contour>
    <contour>
      <point x="480" y="698" type="move" name="top"/>
    </contour>
  </outline>
</glyph>
<glyph name="N" format="1">
  <advance width="680"/>
  <unicode hex="004E"/>
  <outline>
    <contour>
      <point x="494" y="0" type="line" name=""/>
      <point x="524" y="0" type="line"/>
      <point x="664" y="698" type="line"/>
      <point x="643" y="698" type="line"/>
      <point x="509" y="27" type="line"/>
      <point x="506" y="27" type="line"/>
      <point x="224" y="698" type="line"/>
      <point x="194" y="698" type="line"/>
      <point x="54" y="0" type="line"/>
      <point x="75" y="0" type="line"/>
      <point x="209" y="671" type="line"/>
      <point x="212" y="671" type="line"/>
    </contour>
    <contour>
      <point x="297.0" y="0.0" type="move" name="bottom"/>
    </contour>
    <contour>
      <point x="438.0" y="698.0" type="move" name="top"/>
    </contour>
  </outline>
</glyph>
<glyph name="O" format="1">
  <advance width="658"/>
  <unicode hex="004F"/>
  <outline>
    <contour>
      <point x="291" y="-12" type="curve" name="hr00"/>
      <point x="535" y="-12"/>
      <point x="623" y="280"/>
      <point x="623" y="478" type="curve" smooth="yes"/>
      <point x="623" y="629"/>
      <point x="533" y="710"/>
      <point x="401" y="710" type="curve"/>
      <point x="157" y="710"/>
      <point x="69" y="418"/>
      <point x="69" y="220" type="curve" smooth="yes"/>
      <point x="69" y="69"/>
      <point x="159" y="-12"/>
    </contour>
    <contour>
      <point x="291" y="8" type="curve"/>
      <point x="162" y="8"/>
      <point x="91" y="90"/>
      <point x="91" y="220" type="curve" smooth="yes"/>
      <point x="91" y="248"/>
      <point x="93" y="287"/>
      <point x="101" y="329" type="curve" smooth="yes"/>
      <point x="112" y="384" type="line" smooth="yes"/>
      <point x="149" y="570"/>
      <point x="256" y="690"/>
      <point x="401" y="690" type="curve"/>
      <point x="530" y="690"/>
      <point x="601" y="608"/>
      <point x="601" y="478" type="curve" smooth="yes"/>
      <point x="601" y="450"/>
      <point x="599" y="411"/>
      <point x="591" y="369" type="curve" smooth="yes"/>
      <point x="580" y="314" type="line" smooth="yes"/>
      <point x="543" y="128"/>
      <point x="436" y="8"/>
    </contour>
    <contour>
      <point x="271" y="0" type="move" name="bottom"/>
    </contour>
    <contour>
      <point x="421" y="698" type="move" name="top"/>
    </contour>
  </outline>
</glyph>
<glyph name="P" format="1">
  <advance width="582"/>
  <unicode hex="0050"/>
  <outline>
    <contour>
      <point x="76" y="0" type="line" name="hr00"/>
      <point x="141" y="322" type="line"/>
      <point x="386" y="322" type="line" smooth="yes"/>
      <point x="516" y="322"/>
      <point x="596" y="406"/>
      <point x="596" y="550" type="curve" smooth="yes"/>
      <point x="596" y="635"/>
      <point x="542" y="698"/>
      <point x="445" y="698" type="curve" smooth="yes"/>
      <point x="194" y="698" type="line"/>
      <point x="54" y="0" type="line"/>
    </contour>
    <contour>
      <point x="211" y="678" type="line"/>
      <point x="443" y="678" type="line" smooth="yes"/>
      <point x="535" y="678"/>
      <point x="574" y="620"/>
      <point x="574" y="550" type="curve" smooth="yes"/>
      <point x="574" y="539"/>
      <point x="573" y="520"/>
      <point x="565" y="481" type="curve" smooth="yes"/>
      <point x="549" y="401"/>
      <point x="491" y="342"/>
      <point x="388" y="342" type="curve" smooth="yes"/>
      <point x="145" y="342" type="line"/>
    </contour>
    <contour>
      <point x="83" y="0" type="move" name="bottom"/>
    </contour>
    <contour>
      <point x="374" y="698" type="move" name="top"/>
    </contour>
  </outline>
</glyph>
<glyph name="Q" format="1">
  <advance width="658"/>
  <unicode hex="0051"/>
  <outline>
    <contour>
      <point x="236" y="-128" type="curve" smooth="yes" name="hr00"/>
      <point x="236" y="-138"/>
      <point x="242" y="-146"/>
      <point x="259" y="-146" type="curve" smooth="yes"/>
      <point x="357" y="-146" type="line"/>
      <point x="361" y="-126" type="line"/>
      <point x="257" y="-126" type="line"/>
      <point x="283" y="-12" type="line"/>
      <point x="291" y="-12" type="line" smooth="yes"/>
      <point x="535" y="-12"/>
      <point x="623" y="280"/>
      <point x="623" y="478" type="curve" smooth="yes"/>
      <point x="623" y="629"/>
      <point x="533" y="710"/>
      <point x="401" y="710" type="curve" smooth="yes"/>
      <point x="157" y="710"/>
      <point x="69" y="418"/>
      <point x="69" y="220" type="curve" smooth="yes"/>
      <point x="69" y="80"/>
      <point x="145" y="1"/>
      <point x="261" y="-10" type="curve"/>
      <point x="241" y="-99" type="line" smooth="yes"/>
      <point x="238" y="-112"/>
      <point x="236" y="-122"/>
    </contour>
    <contour>
      <point x="291" y="8" type="curve" smooth="yes"/>
      <point x="162" y="8"/>
      <point x="91" y="90"/>
      <point x="91" y="220" type="curve" smooth="yes"/>
      <point x="91" y="248"/>
      <point x="93" y="287"/>
      <point x="101" y="329" type="curve" smooth="yes"/>
      <point x="112" y="384" type="line" smooth="yes"/>
      <point x="149" y="570"/>
      <point x="256" y="690"/>
      <point x="401" y="690" type="curve" smooth="yes"/>
      <point x="530" y="690"/>
      <point x="601" y="608"/>
      <point x="601" y="478" type="curve" smooth="yes"/>
      <point x="601" y="450"/>
      <point x="599" y="411"/>
      <point x="591" y="369" type="curve" smooth="yes"/>
      <point x="580" y="314" type="line" smooth="yes"/>
      <point x="543" y="128"/>
      <point x="436" y="8"/>
    </contour>
    <contour>
      <point x="402" y="698" type="move" name="top"/>
    </contour>
  </outline>
</glyph>
<glyph name="R" format="1">
  <advance width="630"/>
  <unicode hex="0052"/>
  <outline>
    <contour>
      <point x="141" y="322" type="line" name="hr00"/>
      <point x="359" y="322" type="line"/>
      <point x="484" y="0" type="line"/>
      <point x="507" y="0" type="line"/>
      <point x="382" y="322" type="line"/>
      <point x="517" y="322"/>
      <point x="596" y="406"/>
      <point x="596" y="550" type="curve" smooth="yes"/>
      <point x="596" y="635"/>
      <point x="542" y="698"/>
      <point x="445" y="698" type="curve" smooth="yes"/>
      <point x="194" y="698" type="line"/>
      <point x="54" y="0" type="line"/>
      <point x="76" y="0" type="line"/>
    </contour>
    <contour>
      <point x="145" y="342" type="line"/>
      <point x="211" y="678" type="line"/>
      <point x="443" y="678" type="line" smooth="yes"/>
      <point x="535" y="678"/>
      <point x="574" y="620"/>
      <point x="574" y="550" type="curve" smooth="yes"/>
      <point x="574" y="539"/>
      <point x="573" y="520"/>
      <point x="565" y="481" type="curve" smooth="yes"/>
      <point x="549" y="401"/>
      <point x="491" y="342"/>
      <point x="388" y="342" type="curve" smooth="yes"/>
    </contour>
    <contour>
      <point x="272" y="0" type="move" name="bottom"/>
    </contour>
    <contour>
      <point x="374" y="698" type="move" name="top"/>
    </contour>
  </outline>
</glyph>
<glyph name="S" format="1">
  <advance width="536"/>
  <unicode hex="0053"/>
  <outline>
    <contour>
      <point x="235" y="-12" type="curve" smooth="yes" name="hr00"/>
      <point x="396" y="-12"/>
      <point x="466" y="86"/>
      <point x="466" y="204" type="curve" smooth="yes"/>
      <point x="466" y="283"/>
      <point x="421" y="332"/>
      <point x="327" y="357" type="curve" smooth="yes"/>
      <point x="244" y="379" type="line" smooth="yes"/>
      <point x="163" y="400"/>
      <point x="129" y="440"/>
      <point x="129" y="513" type="curve" smooth="yes"/>
      <point x="129" y="608"/>
      <point x="189" y="690"/>
      <point x="323" y="690" type="curve" smooth="yes"/>
      <point x="422" y="690"/>
      <point x="474" y="666"/>
      <point x="510" y="601" type="curve"/>
      <point x="528" y="612" type="line"/>
      <point x="494" y="675"/>
      <point x="438" y="710"/>
      <point x="324" y="710" type="curve" smooth="yes"/>
      <point x="178" y="710"/>
      <point x="107" y="620"/>
      <point x="107" y="513" type="curve" smooth="yes"/>
      <point x="107" y="433"/>
      <point x="146" y="382"/>
      <point x="236" y="359" type="curve" smooth="yes"/>
      <point x="322" y="337" type="line" smooth="yes"/>
      <point x="407" y="315"/>
      <point x="443" y="276"/>
      <point x="443" y="204" type="curve" smooth="yes"/>
      <point x="443" y="99"/>
      <point x="386" y="8"/>
      <point x="236" y="8" type="curve" smooth="yes"/>
      <point x="122" y="8"/>
      <point x="70" y="47"/>
      <point x="32" y="112" type="curve"/>
      <point x="14" y="99" type="line"/>
      <point x="54" y="32"/>
      <point x="114" y="-12"/>
    </contour>
    <contour>
      <point x="224" y="0" type="move" name="bottom"/>
    </contour>
    <contour>
      <point x="325" y="698" type="move" name="top"/>
    </contour>
  </outline>
</glyph>
<glyph name="T" format="1">
  <advance width="548"/>
  <unicode hex="0054"/>
  <outline>
    <contour>
      <point x="619" y="678" type="line" name="hr00"/>
      <point x="623" y="698" type="line"/>
      <point x="103" y="698" type="line"/>
      <point x="99" y="678" type="line"/>
      <point x="348" y="678" type="line"/>
      <point x="212" y="0" type="line"/>
      <point x="234" y="0" type="line"/>
      <point x="370" y="678" type="line"/>
    </contour>
    <contour>
      <point x="224" y="0" type="move" name="bottom"/>
    </contour>
    <contour>
      <point x="362" y="698" type="move" name="top"/>
    </contour>
  </outline>
</glyph>
<glyph name="U" format="1">
  <advance width="639"/>
  <unicode hex="0055"/>
  <outline>
    <contour>
      <point x="185" y="698" type="line" name="hr00"/>
      <point x="101" y="276" type="line" smooth="yes"/>
      <point x="90" y="220"/>
      <point x="82" y="185"/>
      <point x="82" y="148" type="curve" smooth="yes"/>
      <point x="82" y="42"/>
      <point x="153" y="-12"/>
      <point x="273" y="-12" type="curve" smooth="yes"/>
      <point x="438" y="-12"/>
      <point x="502" y="56"/>
      <point x="545" y="270" type="curve" smooth="yes"/>
      <point x="631" y="698" type="line"/>
      <point x="609" y="698" type="line"/>
      <point x="523" y="271" type="line" smooth="yes"/>
      <point x="483" y="72"/>
      <point x="425" y="8"/>
      <point x="273" y="8" type="curve" smooth="yes"/>
      <point x="157" y="8"/>
      <point x="104" y="60"/>
      <point x="104" y="148" type="curve" smooth="yes"/>
      <point x="104" y="178"/>
      <point x="110" y="212"/>
      <point x="122" y="271" type="curve" smooth="yes"/>
      <point x="207" y="698" type="line"/>
    </contour>
    <contour>
      <point x="272" y="0" type="move" name="bottom"/>
    </contour>
    <contour>
      <point x="332" y="0" type="move" name="bottomright"/>
    </contour>
    <contour>
      <point x="408" y="698" type="move" name="top"/>
    </contour>
  </outline>
</glyph>
<glyph name="V" format="1">
  <advance width="566"/>
  <unicode hex="0056"/>
  <outline>
    <contour>
      <point x="247" y="0" type="line" name="hr00"/>
      <point x="627" y="698" type="line"/>
      <point x="603" y="698" type="line"/>
      <point x="238" y="25" type="line"/>
      <point x="235" y="25" type="line"/>
      <point x="139" y="698" type="line"/>
      <point x="117" y="698" type="line"/>
      <point x="217" y="0" type="line"/>
    </contour>
    <contour>
      <point x="232" y="0" type="move" name="bottom"/>
    </contour>
    <contour>
      <point x="371" y="698" type="move" name="top"/>
    </contour>
  </outline>
</glyph>
<glyph name="W" format="1">
  <advance width="864"/>
  <unicode hex="0057"/>
  <outline>
    <contour>
      <point x="192" y="0" type="line" name="hr00"/>
      <point x="516" y="668" type="line"/>
      <point x="519" y="668" type="line"/>
      <point x="569" y="0" type="line"/>
      <point x="600" y="0" type="line"/>
      <point x="929" y="698" type="line"/>
      <point x="905" y="698" type="line"/>
      <point x="592" y="31" type="line"/>
      <point x="589" y="31" type="line"/>
      <point x="538" y="698" type="line"/>
      <point x="507" y="698" type="line"/>
      <point x="184" y="31" type="line"/>
      <point x="181" y="31" type="line"/>
      <point x="143" y="698" type="line"/>
      <point x="121" y="698" type="line"/>
      <point x="161" y="0" type="line"/>
    </contour>
    <contour>
      <point x="402" y="0" type="move" name="bottom"/>
    </contour>
    <contour>
      <point x="522" y="698" type="move" name="top"/>
    </contour>
  </outline>
</glyph>
<glyph name="X" format="1">
  <advance width="552"/>
  <unicode hex="0058"/>
  <outline>
    <contour>
      <point x="306" y="355" type="line" name="hr00"/>
      <point x="602" y="698" type="line"/>
      <point x="574" y="698" type="line"/>
      <point x="297" y="375" type="line"/>
      <point x="294" y="375" type="line"/>
      <point x="142" y="698" type="line"/>
      <point x="118" y="698" type="line"/>
      <point x="279" y="356" type="line"/>
      <point x="-29" y="0" type="line"/>
      <point x="-1" y="0" type="line"/>
      <point x="289" y="336" type="line"/>
      <point x="292" y="336" type="line"/>
      <point x="449" y="0" type="line"/>
      <point x="473" y="0" type="line"/>
    </contour>
    <contour>
      <point x="218" y="0" type="move" name="bottom"/>
    </contour>
    <contour>
      <point x="358" y="698" type="move" name="top"/>
    </contour>
  </outline>
</glyph>
<glyph name="Y" format="1">
  <advance width="540"/>
  <unicode hex="0059"/>
  <outline>
    <contour>
      <point x="230" y="0" type="line" name="hr00"/>
      <point x="289" y="294" type="line"/>
      <point x="609" y="698" type="line"/>
      <point x="583" y="698" type="line"/>
      <point x="283" y="320" type="line"/>
      <point x="280" y="320" type="line"/>
      <point x="132" y="698" type="line"/>
      <point x="109" y="698" type="line"/>
      <point x="267" y="294" type="line"/>
      <point x="208" y="0" type="line"/>
    </contour>
    <contour>
      <point x="219" y="0" type="move" name="bottom"/>
    </contour>
    <contour>
      <point x="359" y="698" type="move" name="top"/>
    </contour>
  </outline>
</glyph>
<glyph name="Z" format="1">
  <advance width="543"/>
  <unicode hex="005A"/>
  <outline>
    <contour>
      <point x="466" y="20" type="line" name="hr00"/>
      <point x="9" y="20" type="line"/>
      <point x="576" y="676" type="line"/>
      <point x="581" y="698" type="line"/>
      <point x="141" y="698" type="line"/>
      <point x="137" y="678" type="line"/>
      <point x="550" y="678" type="line"/>
      <point x="-17" y="22" type="line"/>
      <point x="-22" y="0" type="line"/>
      <point x="462" y="0" type="line"/>
    </contour>
    <contour>
      <point x="225" y="0" type="move" name="bottom"/>
    </contour>
    <contour>
      <point x="360" y="698" type="move" name="top"/>
    </contour>
  </outline>
</glyph>
<glyph name="bracketleft" format="1">
  <advance width="302"/>
  <unicode hex="005B"/>
  <outline>
    <contour>
      <point x="156" y="-138" type="line" name="hr00"/>
      <point x="160" y="-120" type="line"/>
      <point x="56" y="-120" type="line"/>
      <point x="228" y="742" type="line"/>
      <point x="332" y="742" type="line"/>
      <point x="336" y="760" type="line"/>
      <point x="212" y="760" type="line"/>
      <point x="32" y="-138" type="line"/>
    </contour>
  </outline>
</glyph>
<glyph name="backslash" format="1">
  <advance width="301"/>
  <unicode hex="005C"/>
  <outline>
    <contour>
      <point x="217" y="-151" type="line" name="hr00"/>
      <point x="145" y="740" type="line"/>
      <point x="126" y="740" type="line"/>
      <point x="198" y="-151" type="line"/>
    </contour>
  </outline>
</glyph>
<glyph name="bracketright" format="1">
  <advance width="302"/>
  <unicode hex="005D"/>
  <outline>
    <contour>
      <point x="169" y="760" type="line" name="hr00"/>
      <point x="165" y="742" type="line"/>
      <point x="269" y="742" type="line"/>
      <point x="97" y="-120" type="line"/>
      <point x="-7" y="-120" type="line"/>
      <point x="-11" y="-138" type="line"/>
      <point x="113" y="-138" type="line"/>
      <point x="293" y="760" type="line"/>
    </contour>
  </outline>
</glyph>
<glyph name="asciicircum" format="1">
  <advance width="600"/>
  <unicode hex="005E"/>
  <outline>
    <contour>
      <point x="538" y="332" type="line" name="hr00"/>
      <point x="391" y="698" type="line"/>
      <point x="369" y="698" type="line"/>
      <point x="74" y="332" type="line"/>
      <point x="92" y="322" type="line"/>
      <point x="376" y="676" type="line"/>
      <point x="378" y="676" type="line"/>
      <point x="520" y="322" type="line"/>
    </contour>
  </outline>
</glyph>
<glyph name="underscore" format="1">
  <advance width="559"/>
  <unicode hex="005F"/>
  <outline>
    <contour>
      <point x="454" y="-141" type="line" name="hr00"/>
      <point x="458" y="-123" type="line"/>
      <point x="-51" y="-123" type="line"/>
      <point x="-55" y="-141" type="line"/>
    </contour>
  </outline>
</glyph>
<glyph name="grave" format="1">
  <advance width="600"/>
  <unicode hex="0060"/>
  <outline>
    <contour>
      <point x="319" y="587" type="line" name="hr00"/>
      <point x="335" y="596" type="line"/>
      <point x="254" y="751" type="line"/>
      <point x="235" y="740" type="line"/>
    </contour>
    <contour>
      <point x="300" y="540" type="move" name="_top"/>
    </contour>
  </outline>
</glyph>
<glyph name="b" format="1">
  <advance width="560"/>
  <unicode hex="0062"/>
  <outline>
    <contour>
      <point x="53" y="0" type="line"/>
      <point x="74" y="0" type="line"/>
      <point x="92" y="93" type="line"/>
      <point x="95" y="93" type="line"/>
      <point x="113" y="31"/>
      <point x="166" y="-12"/>
      <point x="251" y="-12" type="curve" smooth="yes" name="hr01"/>
      <point x="411" y="-12"/>
      <point x="500" y="146"/>
      <point x="500" y="330" type="curve" smooth="yes"/>
      <point x="500" y="437"/>
      <point x="442" y="518"/>
      <point x="337" y="518" type="curve" smooth="yes"/>
      <point x="252" y="518"/>
      <point x="198" y="469"/>
      <point x="156" y="395" type="curve"/>
      <point x="153" y="395" type="line"/>
      <point x="222" y="740" type="line" name="hr02"/>
      <point x="201" y="740" type="line"/>
    </contour>
    <contour>
      <point x="251" y="7" type="curve" smooth="yes" name="hr03"/>
      <point x="132" y="7"/>
      <point x="93" y="93"/>
      <point x="106" y="160" type="curve" smooth="yes"/>
      <point x="134" y="302" type="line" smooth="yes"/>
      <point x="148" y="372"/>
      <point x="188" y="427"/>
      <point x="227" y="459" type="curve" smooth="yes"/>
      <point x="262" y="488"/>
      <point x="295" y="499"/>
      <point x="337" y="499" type="curve" smooth="yes"/>
      <point x="435" y="499"/>
      <point x="479" y="423"/>
      <point x="479" y="330" type="curve" smooth="yes"/>
      <point x="479" y="302"/>
      <point x="477" y="281"/>
      <point x="473" y="259" type="curve" smooth="yes"/>
      <point x="466" y="224" type="line" smooth="yes"/>
      <point x="440" y="92"/>
      <point x="366" y="7"/>
    </contour>
    <contour>
      <point x="230" y="0" type="move" name="bottom"/>
    </contour>
  </outline>
</glyph>
<glyph name="c" format="1">
  <advance width="479"/>
  <unicode hex="0063"/>
  <outline>
    <contour>
      <point x="223" y="-12" type="curve" smooth="yes" name="hr00"/>
      <point x="310" y="-12"/>
      <point x="373" y="38"/>
      <point x="422" y="114" type="curve"/>
      <point x="405" y="123" type="line"/>
      <point x="359" y="53"/>
      <point x="301" y="7"/>
      <point x="223" y="7" type="curve" smooth="yes"/>
      <point x="123" y="7"/>
      <point x="81" y="87"/>
      <point x="81" y="186" type="curve" smooth="yes"/>
      <point x="81" y="211"/>
      <point x="83" y="224"/>
      <point x="87" y="248" type="curve" smooth="yes"/>
      <point x="96" y="297" type="line" smooth="yes"/>
      <point x="119" y="421"/>
      <point x="197" y="499"/>
      <point x="299" y="499" type="curve" smooth="yes"/>
      <point x="366" y="499"/>
      <point x="417" y="463"/>
      <point x="432" y="398" type="curve"/>
      <point x="451" y="403" type="line"/>
      <point x="437" y="471"/>
      <point x="380" y="518"/>
      <point x="301" y="518" type="curve" smooth="yes"/>
      <point x="146" y="518"/>
      <point x="61" y="373"/>
      <point x="61" y="186" type="curve" smooth="yes"/>
      <point x="61" y="72"/>
      <point x="115" y="-12"/>
    </contour>
    <contour>
      <point x="228" y="0" type="move" name="bottom"/>
    </contour>
    <contour>
      <point x="306" y="540" type="move" name="top"/>
    </contour>
  </outline>
</glyph>
<glyph name="e" format="1">
  <advance width="505"/>
  <unicode hex="0065"/>
  <outline>
    <contour>
      <point x="237" y="-12" type="curve" smooth="yes" name="hr00"/>
      <point x="321" y="-12"/>
      <point x="394" y="30"/>
      <point x="445" y="124" type="curve"/>
      <point x="426" y="132" type="line"/>
      <point x="385" y="54"/>
      <point x="319" y="7"/>
      <point x="237" y="7" type="curve" smooth="yes"/>
      <point x="134" y="7"/>
      <point x="82" y="61"/>
      <point x="82" y="189" type="curve" smooth="yes"/>
      <point x="82" y="200"/>
      <point x="84" y="223"/>
      <point x="85" y="233" type="curve"/>
      <point x="424" y="240"/>
      <point x="466" y="331"/>
      <point x="466" y="395" type="curve" smooth="yes"/>
      <point x="466" y="471"/>
      <point x="403" y="518"/>
      <point x="308" y="518" type="curve" smooth="yes"/>
      <point x="162" y="518"/>
      <point x="61" y="371"/>
      <point x="61" y="187" type="curve" smooth="yes"/>
      <point x="61" y="51"/>
      <point x="124" y="-12"/>
    </contour>
    <contour>
      <point x="306" y="499" type="curve" smooth="yes"/>
      <point x="403" y="499"/>
      <point x="444" y="456"/>
      <point x="444" y="395" type="curve" smooth="yes"/>
      <point x="444" y="328"/>
      <point x="387" y="257"/>
      <point x="87" y="252" type="curve"/>
      <point x="90" y="269" type="line" smooth="yes"/>
      <point x="113" y="402"/>
      <point x="194" y="499"/>
    </contour>
    <contour>
      <point x="243" y="0" type="move" name="bottom"/>
    </contour>
    <contour>
      <point x="307" y="0" type="move" name="bottomright"/>
    </contour>
    <contour>
      <point x="317" y="540" type="move" name="top"/>
    </contour>
  </outline>
</glyph>
<glyph name="f" format="1">
  <advance width="282"/>
  <unicode hex="0066"/>
  <outline>
    <contour>
      <point x="190" y="487" type="line" name="hr00"/>
      <point x="294" y="487" type="line"/>
      <point x="298" y="506" type="line"/>
      <point x="194" y="506" type="line"/>
      <point x="236" y="721" type="line"/>
      <point x="341" y="721" type="line"/>
      <point x="345" y="740" type="line"/>
      <point x="251" y="740" type="line" smooth="yes"/>
      <point x="223" y="740"/>
      <point x="217" y="733"/>
      <point x="212" y="707" type="curve" smooth="yes"/>
      <point x="173" y="506" type="line"/>
      <point x="73" y="506" type="line"/>
      <point x="69" y="487" type="line"/>
      <point x="169" y="487" type="line"/>
      <point x="37" y="-181" type="line"/>
      <point x="-58" y="-181" type="line"/>
      <point x="-62" y="-200" type="line"/>
      <point x="22" y="-200" type="line" smooth="yes"/>
      <point x="50" y="-200"/>
      <point x="56" y="-193"/>
      <point x="61" y="-167" type="curve" smooth="yes"/>
    </contour>
  </outline>
</glyph>
<glyph name="g" format="1">
  <advance width="485"/>
  <unicode hex="0067"/>
  <outline>
    <contour>
      <point x="440" y="-55" type="curve" smooth="yes"/>
      <point x="440" y="11"/>
      <point x="394" y="53"/>
      <point x="288" y="53" type="curve" smooth="yes"/>
      <point x="149" y="53" type="line" smooth="yes"/>
      <point x="98" y="53"/>
      <point x="85" y="74"/>
      <point x="85" y="99" type="curve" smooth="yes"/>
      <point x="85" y="138"/>
      <point x="115" y="166"/>
      <point x="192" y="186" type="curve"/>
      <point x="206" y="182"/>
      <point x="221" y="180"/>
      <point x="238" y="180" type="curve" smooth="yes"/>
      <point x="348" y="180"/>
      <point x="429" y="259"/>
      <point x="429" y="386" type="curve" smooth="yes" name="hr01"/>
      <point x="429" y="414"/>
      <point x="420" y="441"/>
      <point x="404" y="463" type="curve"/>
      <point x="418" y="542" type="line" name="hr02"/>
      <point x="519" y="542" type="line"/>
      <point x="522" y="561" type="line"/>
      <point x="429" y="561" type="line" smooth="yes" name="hr03"/>
      <point x="409" y="561"/>
      <point x="401" y="555"/>
      <point x="398" y="536" type="curve" smooth="yes"/>
      <point x="388" y="480" type="line"/>
      <point x="363" y="503"/>
      <point x="326" y="518"/>
      <point x="281" y="518" type="curve" smooth="yes"/>
      <point x="171" y="518"/>
      <point x="90" y="439"/>
      <point x="90" y="312" type="curve" smooth="yes"/>
      <point x="90" y="263"/>
      <point x="116" y="218"/>
      <point x="164" y="196" type="curve"/>
      <point x="163" y="192" type="line"/>
      <point x="111" y="177"/>
      <point x="65" y="149"/>
      <point x="65" y="99" type="curve" smooth="yes"/>
      <point x="65" y="72"/>
      <point x="80" y="47"/>
      <point x="104" y="40" type="curve"/>
      <point x="104" y="37" type="line"/>
      <point x="39" y="15"/>
      <point x="-4" y="-29"/>
      <point x="-4" y="-92" type="curve" smooth="yes"/>
      <point x="-4" y="-165"/>
      <point x="61" y="-212"/>
      <point x="183" y="-212" type="curve" smooth="yes"/>
      <point x="346" y="-212"/>
      <point x="440" y="-161"/>
    </contour>
    <contour>
      <point x="418" y="-56" type="curve" smooth="yes"/>
      <point x="418" y="-151"/>
      <point x="329" y="-193"/>
      <point x="206" y="-193" type="curve" smooth="yes"/>
      <point x="174" y="-193" type="line" smooth="yes"/>
      <point x="84" y="-193"/>
      <point x="18" y="-163"/>
      <point x="18" y="-90" type="curve" smooth="yes"/>
      <point x="18" y="-24"/>
      <point x="66" y="14"/>
      <point x="136" y="33" type="curve"/>
      <point x="284" y="33" type="line" smooth="yes"/>
      <point x="383" y="33"/>
      <point x="418" y="1"/>
    </contour>
    <contour>
      <point x="238" y="199" type="curve" smooth="yes"/>
      <point x="156" y="199"/>
      <point x="111" y="247"/>
      <point x="111" y="312" type="curve" smooth="yes"/>
      <point x="111" y="320"/>
      <point x="112" y="334"/>
      <point x="118" y="368" type="curve" smooth="yes"/>
      <point x="132" y="445"/>
      <point x="191" y="499"/>
      <point x="281" y="499" type="curve" smooth="yes"/>
      <point x="363" y="499"/>
      <point x="408" y="451"/>
      <point x="408" y="386" type="curve" smooth="yes" name="hr05"/>
      <point x="408" y="378"/>
      <point x="407" y="364"/>
      <point x="401" y="330" type="curve" smooth="yes"/>
      <point x="387" y="253"/>
      <point x="328" y="199"/>
    </contour>
    <contour>
      <point x="283" y="540" type="move" name="top"/>
    </contour>
  </outline>
</glyph>
<glyph name="h" format="1">
  <advance width="549"/>
  <unicode hex="0068"/>
  <outline>
    <contour>
      <point x="54" y="0" type="line" name="hr00"/>
      <point x="75" y="0" type="line"/>
      <point x="137" y="312" type="line" smooth="yes"/>
      <point x="149" y="372"/>
      <point x="178" y="411"/>
      <point x="200" y="437" type="curve" smooth="yes"/>
      <point x="240" y="484"/>
      <point x="288" y="499"/>
      <point x="333" y="499" type="curve" smooth="yes"/>
      <point x="408" y="499"/>
      <point x="447" y="460"/>
      <point x="447" y="383" type="curve" smooth="yes"/>
      <point x="447" y="370"/>
      <point x="444" y="342"/>
      <point x="440" y="320" type="curve" smooth="yes"/>
      <point x="383" y="35" type="line" smooth="yes"/>
      <point x="382" y="29"/>
      <point x="381" y="25"/>
      <point x="381" y="19" type="curve" smooth="yes"/>
      <point x="381" y="6"/>
      <point x="389" y="0"/>
      <point x="404" y="0" type="curve" smooth="yes"/>
      <point x="482" y="0" type="line"/>
      <point x="486" y="19" type="line"/>
      <point x="401" y="19" type="line"/>
      <point x="461" y="321" type="line" smooth="yes"/>
      <point x="465" y="341"/>
      <point x="468" y="366"/>
      <point x="468" y="386" type="curve" smooth="yes"/>
      <point x="468" y="469"/>
      <point x="421" y="518"/>
      <point x="336" y="518" type="curve" smooth="yes"/>
      <point x="253" y="518"/>
      <point x="198" y="477"/>
      <point x="158" y="401" type="curve"/>
      <point x="155" y="401" type="line"/>
      <point x="222" y="740" type="line"/>
      <point x="201" y="740" type="line"/>
    </contour>
    <contour>
      <point x="234" y="0" type="move" name="bottom"/>
    </contour>
    <contour>
      <point x="203" y="698" type="move" name="top"/>
    </contour>
  </outline>
</glyph>
<glyph name="i" format="1">
  <advance width="235"/>
  <unicode hex="0069"/>
  <outline>
    <contour>
      <point x="200" y="673" type="curve" smooth="yes" name="hr00"/>
      <point x="217" y="673"/>
      <point x="224" y="680"/>
      <point x="227" y="692" type="curve" smooth="yes"/>
      <point x="228" y="698"/>
      <point x="229" y="702"/>
      <point x="229" y="706" type="curve" smooth="yes"/>
      <point x="229" y="714"/>
      <point x="224" y="722"/>
      <point x="209" y="722" type="curve" smooth="yes"/>
      <point x="192" y="722"/>
      <point x="185" y="715"/>
      <point x="182" y="703" type="curve" smooth="yes"/>
      <point x="181" y="697"/>
      <point x="180" y="693"/>
      <point x="180" y="689" type="curve" smooth="yes"/>
      <point x="180" y="681"/>
      <point x="185" y="673"/>
    </contour>
    <contour>
      <point x="159" y="0" type="line"/>
      <point x="163" y="19" type="line"/>
      <point x="78" y="19" type="line"/>
      <point x="176" y="506" type="line"/>
      <point x="155" y="506" type="line"/>
      <point x="60" y="35" type="line" smooth="yes"/>
      <point x="59" y="29"/>
      <point x="58" y="25"/>
      <point x="58" y="19" type="curve" smooth="yes"/>
      <point x="58" y="6"/>
      <point x="66" y="0"/>
      <point x="81" y="0" type="curve" smooth="yes"/>
    </contour>
    <contour>
      <point x="105" y="0" type="move" name="bottom"/>
    </contour>
    <contour>
      <point x="161" y="0" type="move" name="bottomright"/>
    </contour>
  </outline>
</glyph>
<glyph name="j" format="1">
  <advance width="229"/>
  <unicode hex="006A"/>
  <outline>
    <contour>
      <point x="17" y="-181" type="line" name="hr00"/>
      <point x="-68" y="-181" type="line"/>
      <point x="-72" y="-200" type="line"/>
      <point x="0" y="-200" type="line" smooth="yes"/>
      <point x="28" y="-200"/>
      <point x="36" y="-193"/>
      <point x="41" y="-167" type="curve" smooth="yes"/>
      <point x="175" y="506" type="line"/>
      <point x="154" y="506" type="line"/>
    </contour>
    <contour>
      <point x="199" y="673" type="curve" smooth="yes"/>
      <point x="216" y="673"/>
      <point x="223" y="680"/>
      <point x="226" y="692" type="curve" smooth="yes"/>
      <point x="227" y="698"/>
      <point x="228" y="702"/>
      <point x="228" y="706" type="curve" smooth="yes"/>
      <point x="228" y="714"/>
      <point x="223" y="722"/>
      <point x="208" y="722" type="curve" smooth="yes"/>
      <point x="191" y="722"/>
      <point x="184" y="715"/>
      <point x="181" y="703" type="curve" smooth="yes"/>
      <point x="180" y="697"/>
      <point x="179" y="693"/>
      <point x="179" y="689" type="curve" smooth="yes"/>
      <point x="179" y="681"/>
      <point x="184" y="673"/>
    </contour>
  </outline>
</glyph>
<glyph name="k" format="1">
  <advance width="479"/>
  <unicode hex="006B"/>
  <outline>
    <contour>
      <point x="53" y="0" type="line" name="hr00"/>
      <point x="74" y="0" type="line"/>
      <point x="112" y="189" type="line"/>
      <point x="221" y="280" type="line"/>
      <point x="354" y="21" type="line" smooth="yes"/>
      <point x="362" y="6"/>
      <point x="368" y="0"/>
      <point x="383" y="0" type="curve" smooth="yes"/>
      <point x="431" y="0" type="line"/>
      <point x="435" y="19" type="line"/>
      <point x="378" y="19" type="line"/>
      <point x="237" y="292" type="line"/>
      <point x="480" y="506" type="line"/>
      <point x="453" y="506" type="line"/>
      <point x="234" y="315" type="line"/>
      <point x="122" y="221" type="line"/>
      <point x="118" y="221" type="line"/>
      <point x="222" y="740" type="line"/>
      <point x="201" y="740" type="line"/>
    </contour>
    <contour>
      <point x="228" y="0" type="move" name="bottom"/>
    </contour>
  </outline>
</glyph>
<glyph name="l" format="1">
  <advance width="235"/>
  <unicode hex="006C"/>
  <outline>
    <contour>
      <point x="159" y="0" type="line" name="hr00"/>
      <point x="163" y="19" type="line"/>
      <point x="78" y="19" type="line"/>
      <point x="222" y="740" type="line"/>
      <point x="201" y="740" type="line"/>
      <point x="60" y="35" type="line" smooth="yes"/>
      <point x="59" y="29"/>
      <point x="58" y="25"/>
      <point x="58" y="19" type="curve" smooth="yes"/>
      <point x="58" y="6"/>
      <point x="66" y="0"/>
      <point x="81" y="0" type="curve" smooth="yes"/>
    </contour>
    <contour>
      <point x="103" y="0" type="move" name="bottom"/>
    </contour>
    <contour>
      <point x="211" y="740" type="move" name="top"/>
    </contour>
    <contour>
      <point x="293" y="740" type="move" name="topright"/>
    </contour>
  </outline>
</glyph>
<glyph name="m" format="1">
  <advance width="843"/>
  <unicode hex="006D"/>
  <outline>
    <contour>
      <point x="74" y="0" type="line"/>
      <point x="136" y="312" type="line" smooth="yes"/>
      <point x="147" y="366"/>
      <point x="175" y="410"/>
      <point x="199" y="437" type="curve" smooth="yes"/>
      <point x="238" y="481"/>
      <point x="281" y="499"/>
      <point x="324" y="499" type="curve" smooth="yes"/>
      <point x="395" y="499"/>
      <point x="432" y="460"/>
      <point x="432" y="383" type="curve" smooth="yes"/>
      <point x="432" y="370"/>
      <point x="429" y="342"/>
      <point x="425" y="320" type="curve" smooth="yes"/>
      <point x="361" y="0" type="line"/>
      <point x="382" y="0" type="line"/>
      <point x="446" y="319" type="line" smooth="yes"/>
      <point x="457" y="375"/>
      <point x="479" y="408"/>
      <point x="504" y="437" type="curve" smooth="yes"/>
      <point x="541" y="481"/>
      <point x="589" y="499"/>
      <point x="633" y="499" type="curve" smooth="yes"/>
      <point x="703" y="499"/>
      <point x="741" y="460"/>
      <point x="741" y="383" type="curve" smooth="yes"/>
      <point x="741" y="370"/>
      <point x="738" y="342"/>
      <point x="734" y="320" type="curve" smooth="yes"/>
      <point x="677" y="35" type="line" smooth="yes"/>
      <point x="676" y="29"/>
      <point x="675" y="25"/>
      <point x="675" y="19" type="curve" smooth="yes"/>
      <point x="675" y="6"/>
      <point x="683" y="0"/>
      <point x="698" y="0" type="curve" smooth="yes"/>
      <point x="776" y="0" type="line"/>
      <point x="780" y="19" type="line"/>
      <point x="695" y="19" type="line"/>
      <point x="755" y="321" type="line" smooth="yes"/>
      <point x="759" y="341"/>
      <point x="762" y="366"/>
      <point x="762" y="386" type="curve" smooth="yes"/>
      <point x="762" y="469"/>
      <point x="717" y="518"/>
      <point x="636" y="518" type="curve" smooth="yes"/>
      <point x="553" y="518"/>
      <point x="491" y="469"/>
      <point x="456" y="394" type="curve"/>
      <point x="453" y="394" type="line"/>
      <point x="452" y="463"/>
      <point x="409" y="518"/>
      <point x="327" y="518" type="curve" smooth="yes"/>
      <point x="248" y="518"/>
      <point x="193" y="471"/>
      <point x="157" y="401" type="curve"/>
      <point x="154" y="401" type="line"/>
      <point x="175" y="506" type="line" name="hr01"/>
      <point x="154" y="506" type="line"/>
      <point x="53" y="0" type="line"/>
    </contour>
    <contour>
      <point x="355" y="0" type="move" name="bottom"/>
    </contour>
    <contour>
      <point x="468" y="540" type="move" name="top"/>
    </contour>
  </outline>
</glyph>
<glyph name="n" format="1">
  <advance width="548"/>
  <unicode hex="006E"/>
  <outline>
    <contour>
      <point x="74" y="0" type="line"/>
      <point x="136" y="312" type="line" smooth="yes"/>
      <point x="148" y="372"/>
      <point x="177" y="411"/>
      <point x="199" y="437" type="curve" smooth="yes"/>
      <point x="239" y="484"/>
      <point x="287" y="499"/>
      <point x="332" y="499" type="curve" smooth="yes"/>
      <point x="407" y="499"/>
      <point x="446" y="460"/>
      <point x="446" y="383" type="curve" smooth="yes"/>
      <point x="446" y="370"/>
      <point x="443" y="342"/>
      <point x="439" y="320" type="curve" smooth="yes"/>
      <point x="382" y="35" type="line" smooth="yes"/>
      <point x="381" y="29"/>
      <point x="380" y="25"/>
      <point x="380" y="19" type="curve" smooth="yes"/>
      <point x="380" y="6"/>
      <point x="388" y="0"/>
      <point x="403" y="0" type="curve" smooth="yes"/>
      <point x="481" y="0" type="line"/>
      <point x="485" y="19" type="line"/>
      <point x="400" y="19" type="line"/>
      <point x="460" y="321" type="line" smooth="yes"/>
      <point x="464" y="341"/>
      <point x="467" y="366"/>
      <point x="467" y="386" type="curve" smooth="yes"/>
      <point x="467" y="469"/>
      <point x="420" y="518"/>
      <point x="335" y="518" type="curve" smooth="yes"/>
      <point x="252" y="518"/>
      <point x="197" y="477"/>
      <point x="157" y="401" type="curve"/>
      <point x="154" y="401" type="line"/>
      <point x="175" y="506" type="line" name="hr01"/>
      <point x="154" y="506" type="line"/>
      <point x="53" y="0" type="line"/>
    </contour>
    <contour>
      <point x="239" y="0" type="move" name="bottom"/>
    </contour>
    <contour>
      <point x="335" y="540" type="move" name="top"/>
    </contour>
  </outline>
</glyph>
<glyph name="o" format="1">
  <advance width="534"/>
  <unicode hex="006F"/>
  <outline>
    <contour>
      <point x="225" y="-12" type="curve" smooth="yes" name="hr00"/>
      <point x="390" y="-12"/>
      <point x="475" y="150"/>
      <point x="475" y="337" type="curve" smooth="yes"/>
      <point x="475" y="437"/>
      <point x="416" y="518"/>
      <point x="309" y="518" type="curve" smooth="yes"/>
      <point x="144" y="518"/>
      <point x="59" y="356"/>
      <point x="59" y="169" type="curve" smooth="yes"/>
      <point x="59" y="69"/>
      <point x="118" y="-12"/>
    </contour>
    <contour>
      <point x="227" y="7" type="curve" smooth="yes"/>
      <point x="125" y="7"/>
      <point x="80" y="81"/>
      <point x="80" y="169" type="curve" smooth="yes"/>
      <point x="80" y="195"/>
      <point x="81" y="219"/>
      <point x="85" y="241" type="curve" smooth="yes"/>
      <point x="93" y="281" type="line" smooth="yes"/>
      <point x="120" y="416"/>
      <point x="195" y="499"/>
      <point x="307" y="499" type="curve" smooth="yes"/>
      <point x="409" y="499"/>
      <point x="454" y="425"/>
      <point x="454" y="337" type="curve" smooth="yes"/>
      <point x="454" y="311"/>
      <point x="453" y="287"/>
      <point x="449" y="265" type="curve" smooth="yes"/>
      <point x="441" y="225" type="line" smooth="yes"/>
      <point x="414" y="90"/>
      <point x="339" y="7"/>
    </contour>
    <contour>
      <point x="221" y="0" type="move" name="bottom"/>
    </contour>
    <contour>
      <point x="314" y="540" type="move" name="top"/>
    </contour>
  </outline>
</glyph>
<glyph name="p" format="1">
  <advance width="561"/>
  <unicode hex="0070"/>
  <outline>
    <contour>
      <point x="14" y="-200" type="line"/>
      <point x="35" y="-200" type="line"/>
      <point x="93" y="93" type="line"/>
      <point x="96" y="93" type="line"/>
      <point x="114" y="31"/>
      <point x="167" y="-12"/>
      <point x="252" y="-12" type="curve" smooth="yes"/>
      <point x="412" y="-12"/>
      <point x="501" y="146"/>
      <point x="501" y="330" type="curve" smooth="yes"/>
      <point x="501" y="437"/>
      <point x="443" y="518"/>
      <point x="338" y="518" type="curve" smooth="yes"/>
      <point x="253" y="518"/>
      <point x="199" y="469"/>
      <point x="157" y="395" type="curve"/>
      <point x="154" y="395" type="line"/>
      <point x="176" y="506" type="line" name="hr01"/>
      <point x="155" y="506" type="line"/>
    </contour>
    <contour>
      <point x="252" y="7" type="curve" smooth="yes"/>
      <point x="133" y="7"/>
      <point x="94" y="93"/>
      <point x="107" y="160" type="curve" smooth="yes"/>
      <point x="135" y="302" type="line" smooth="yes"/>
      <point x="149" y="372"/>
      <point x="189" y="427"/>
      <point x="228" y="459" type="curve" smooth="yes"/>
      <point x="263" y="488"/>
      <point x="296" y="499"/>
      <point x="338" y="499" type="curve" smooth="yes" name="hr02"/>
      <point x="436" y="499"/>
      <point x="480" y="423"/>
      <point x="480" y="330" type="curve" smooth="yes"/>
      <point x="480" y="302"/>
      <point x="478" y="281"/>
      <point x="474" y="259" type="curve" smooth="yes"/>
      <point x="467" y="224" type="line" smooth="yes"/>
      <point x="441" y="92"/>
      <point x="367" y="7"/>
    </contour>
    <contour>
      <point x="353" y="540" type="move" name="top"/>
    </contour>
  </outline>
</glyph>
<glyph name="r" format="1">
  <advance width="338"/>
  <unicode hex="0072"/>
  <outline>
    <contour>
      <point x="74" y="0" type="line" name="hr00"/>
      <point x="132" y="293" type="line" smooth="yes"/>
      <point x="153" y="401"/>
      <point x="226" y="487"/>
      <point x="325" y="487" type="curve" smooth="yes"/>
      <point x="354" y="487" type="line"/>
      <point x="358" y="506" type="line"/>
      <point x="328" y="506" type="line" smooth="yes"/>
      <point x="236" y="506"/>
      <point x="189" y="458"/>
      <point x="155" y="392" type="curve"/>
      <point x="152" y="392" type="line"/>
      <point x="175" y="506" type="line"/>
      <point x="154" y="506" type="line"/>
      <point x="53" y="0" type="line"/>
    </contour>
    <contour>
      <point x="64" y="0" type="move" name="bottom"/>
    </contour>
    <contour>
      <point x="267" y="540" type="move" name="top"/>
    </contour>
  </outline>
</glyph>
<glyph name="s" format="1">
  <advance width="448"/>
  <unicode hex="0073"/>
  <outline>
    <contour>
      <point x="199" y="-12" type="curve" smooth="yes" name="hr00"/>
      <point x="297" y="-12"/>
      <point x="375" y="39"/>
      <point x="375" y="139" type="curve" smooth="yes"/>
      <point x="375" y="216"/>
      <point x="325" y="242"/>
      <point x="257" y="260" type="curve" smooth="yes"/>
      <point x="207" y="273" type="line" smooth="yes"/>
      <point x="141" y="290"/>
      <point x="106" y="316"/>
      <point x="106" y="378" type="curve" smooth="yes"/>
      <point x="106" y="456"/>
      <point x="164" y="499"/>
      <point x="251" y="499" type="curve" smooth="yes"/>
      <point x="331" y="499"/>
      <point x="370" y="465"/>
      <point x="398" y="425" type="curve"/>
      <point x="414" y="439" type="line"/>
      <point x="384" y="480"/>
      <point x="339" y="518"/>
      <point x="252" y="518" type="curve" smooth="yes"/>
      <point x="161" y="518"/>
      <point x="85" y="471"/>
      <point x="85" y="378" type="curve" smooth="yes"/>
      <point x="85" y="301"/>
      <point x="133" y="272"/>
      <point x="201" y="254" type="curve" smooth="yes"/>
      <point x="251" y="241" type="line" smooth="yes"/>
      <point x="317" y="224"/>
      <point x="354" y="201"/>
      <point x="354" y="138" type="curve" smooth="yes"/>
      <point x="354" y="54"/>
      <point x="292" y="7"/>
      <point x="199" y="7" type="curve" smooth="yes"/>
      <point x="125" y="7"/>
      <point x="70" y="36"/>
      <point x="31" y="98" type="curve"/>
      <point x="13" y="86" type="line"/>
      <point x="55" y="23"/>
      <point x="115" y="-12"/>
    </contour>
    <contour>
      <point x="198" y="0" type="move" name="bottom"/>
    </contour>
    <contour>
      <point x="254" y="540" type="move" name="top"/>
    </contour>
  </outline>
</glyph>
<glyph name="t" format="1">
  <advance width="302"/>
  <unicode hex="0074"/>
  <outline>
    <contour>
      <point x="206" y="0" type="line" name="hr00"/>
      <point x="210" y="19" type="line"/>
      <point x="97" y="19" type="line"/>
      <point x="190" y="487" type="line"/>
      <point x="311" y="487" type="line"/>
      <point x="315" y="506" type="line"/>
      <point x="194" y="506" type="line"/>
      <point x="223" y="650" type="line"/>
      <point x="202" y="650" type="line"/>
      <point x="178" y="531" type="line" smooth="yes"/>
      <point x="175" y="513"/>
      <point x="168" y="506"/>
      <point x="150" y="506" type="curve" smooth="yes"/>
      <point x="78" y="506" type="line"/>
      <point x="74" y="487" type="line"/>
      <point x="169" y="487" type="line"/>
      <point x="79" y="35" type="line" smooth="yes"/>
      <point x="78" y="29"/>
      <point x="77" y="25"/>
      <point x="77" y="19" type="curve" smooth="yes"/>
      <point x="77" y="6"/>
      <point x="85" y="0"/>
      <point x="100" y="0" type="curve" smooth="yes"/>
    </contour>
    <contour>
      <point x="139" y="0" type="move" name="bottom"/>
    </contour>
    <contour>
      <point x="324" y="740" type="move" name="topright"/>
    </contour>
  </outline>
</glyph>
<glyph name="v" format="1">
  <advance width="460"/>
  <unicode hex="0076"/>
  <outline>
    <contour>
      <point x="189" y="0" type="line" name=""/>
      <point x="477" y="506" type="line"/>
      <point x="454" y="506" type="line"/>
      <point x="181" y="24" type="line"/>
      <point x="178" y="24" type="line"/>
      <point x="93" y="506" type="line"/>
      <point x="73" y="506" type="line"/>
      <point x="163" y="0" type="line"/>
    </contour>
    <contour>
      <point x="179.0" y="0.0" type="move" name="bottom"/>
    </contour>
    <contour>
      <point x="282.0" y="540.0" type="move" name="top"/>
    </contour>
  </outline>
</glyph>
<glyph name="w" format="1">
  <advance width="718"/>
  <unicode hex="0077"/>
  <outline>
    <contour>
      <point x="130" y="0" type="line" name="hr00"/>
      <point x="156" y="0" type="line"/>
      <point x="398" y="472" type="line"/>
      <point x="401" y="472" type="line"/>
      <point x="450" y="0" type="line"/>
      <point x="476" y="0" type="line"/>
      <point x="732" y="506" type="line"/>
      <point x="710" y="506" type="line"/>
      <point x="469" y="27" type="line"/>
      <point x="467" y="27" type="line"/>
      <point x="416" y="506" type="line"/>
      <point x="394" y="506" type="line"/>
      <point x="149" y="27" type="line"/>
      <point x="146" y="27" type="line"/>
      <point x="98" y="506" type="line"/>
      <point x="78" y="506" type="line"/>
    </contour>
    <contour>
      <point x="302" y="0" type="move" name="bottom"/>
    </contour>
    <contour>
      <point x="411" y="540" type="move" name="top"/>
    </contour>
  </outline>
</glyph>
<glyph name="x" format="1">
  <advance width="473"/>
  <unicode hex="0078"/>
  <outline>
    <contour>
      <point x="23" y="0" type="line" name="hr00"/>
      <point x="230" y="239" type="line"/>
      <point x="233" y="239" type="line"/>
      <point x="359" y="0" type="line"/>
      <point x="381" y="0" type="line"/>
      <point x="249" y="253" type="line"/>
      <point x="473" y="506" type="line"/>
      <point x="446" y="506" type="line"/>
      <point x="240" y="271" type="line"/>
      <point x="237" y="271" type="line"/>
      <point x="110" y="506" type="line"/>
      <point x="88" y="506" type="line"/>
      <point x="221" y="257" type="line"/>
      <point x="-4" y="0" type="line"/>
    </contour>
    <contour>
      <point x="190" y="0" type="move" name="bottom"/>
    </contour>
    <contour>
      <point x="292" y="540" type="move" name="top"/>
    </contour>
  </outline>
</glyph>
<glyph name="y" format="1">
  <advance width="460"/>
  <unicode hex="0079"/>
  <outline>
    <contour>
      <point x="181" y="24" type="line" name="hr00"/>
      <point x="178" y="24" type="line"/>
      <point x="93" y="506" type="line"/>
      <point x="73" y="506" type="line"/>
      <point x="164" y="-3" type="line"/>
      <point x="64" y="-181" type="line"/>
      <point x="-20" y="-181" type="line"/>
      <point x="-24" y="-200" type="line"/>
      <point x="51" y="-200" type="line" smooth="yes"/>
      <point x="70" y="-200"/>
      <point x="78" y="-194"/>
      <point x="89" y="-175" type="curve" smooth="yes"/>
      <point x="477" y="506" type="line"/>
      <point x="454" y="506" type="line"/>
    </contour>
    <contour>
      <point x="302" y="0" type="move" name="bottom"/>
    </contour>
    <contour>
      <point x="275" y="540" type="move" name="top"/>
    </contour>
  </outline>
</glyph>
<glyph name="z" format="1">
  <advance width="430"/>
  <unicode hex="007A"/>
  <outline>
    <contour>
      <point x="346" y="0" type="line" name="hr00"/>
      <point x="350" y="19" type="line"/>
      <point x="28" y="19" type="line"/>
      <point x="426" y="486" type="line"/>
      <point x="430" y="506" type="line"/>
      <point x="96" y="506" type="line"/>
      <point x="92" y="487" type="line"/>
      <point x="402" y="487" type="line"/>
      <point x="3" y="20" type="line"/>
      <point x="-1" y="0" type="line"/>
    </contour>
    <contour>
      <point x="193" y="0" type="move" name="bottom"/>
    </contour>
    <contour>
      <point x="263" y="540" type="move" name="top"/>
    </contour>
  </outline>
</glyph>
<glyph name="braceleft" format="1">
  <advance width="316"/>
  <unicode hex="007B"/>
  <outline>
    <contour>
      <point x="171" y="-138" type="line" name="hr00"/>
      <point x="175" y="-120" type="line"/>
      <point x="70" y="-120" type="line"/>
      <point x="134" y="201" type="line" smooth="yes"/>
      <point x="136" y="212"/>
      <point x="137" y="221"/>
      <point x="137" y="230" type="curve" smooth="yes"/>
      <point x="137" y="279"/>
      <point x="106" y="303"/>
      <point x="55" y="303" type="curve"/>
      <point x="59" y="319" type="line"/>
      <point x="119" y="319"/>
      <point x="165" y="355"/>
      <point x="178" y="421" type="curve" smooth="yes"/>
      <point x="242" y="742" type="line"/>
      <point x="347" y="742" type="line"/>
      <point x="351" y="760" type="line"/>
      <point x="251" y="760" type="line" smooth="yes"/>
      <point x="234" y="760"/>
      <point x="224" y="753"/>
      <point x="221" y="734" type="curve" smooth="yes"/>
      <point x="158" y="421" type="line" smooth="yes"/>
      <point x="147" y="365"/>
      <point x="107" y="335"/>
      <point x="44" y="335" type="curve"/>
      <point x="34" y="287" type="line"/>
      <point x="85" y="287"/>
      <point x="117" y="273"/>
      <point x="117" y="228" type="curve" smooth="yes"/>
      <point x="117" y="220"/>
      <point x="116" y="211"/>
      <point x="114" y="201" type="curve" smooth="yes"/>
      <point x="54" y="-97" type="line" smooth="yes"/>
      <point x="51" y="-112"/>
      <point x="50" y="-117"/>
      <point x="50" y="-120" type="curve" smooth="yes"/>
      <point x="50" y="-133"/>
      <point x="57" y="-138"/>
      <point x="71" y="-138" type="curve" smooth="yes"/>
    </contour>
  </outline>
</glyph>
<glyph name="bar" format="1">
  <advance width="231"/>
  <unicode hex="007C"/>
  <outline>
    <contour>
      <point x="47" y="-138" type="line" name="hr00"/>
      <point x="227" y="760" type="line"/>
      <point x="207" y="760" type="line"/>
      <point x="27" y="-138" type="line"/>
    </contour>
  </outline>
</glyph>
<glyph name="braceright" format="1">
  <advance width="316"/>
  <unicode hex="007D"/>
  <outline>
    <contour>
      <point x="-12" y="-138" type="line" name="hr00"/>
      <point x="88" y="-138" type="line" smooth="yes"/>
      <point x="105" y="-138"/>
      <point x="115" y="-131"/>
      <point x="118" y="-112" type="curve" smooth="yes"/>
      <point x="181" y="201" type="line" smooth="yes"/>
      <point x="192" y="257"/>
      <point x="232" y="287"/>
      <point x="295" y="287" type="curve"/>
      <point x="305" y="335" type="line"/>
      <point x="254" y="335"/>
      <point x="222" y="349"/>
      <point x="222" y="394" type="curve" smooth="yes"/>
      <point x="222" y="402"/>
      <point x="223" y="411"/>
      <point x="225" y="421" type="curve" smooth="yes"/>
      <point x="285" y="719" type="line" smooth="yes"/>
      <point x="288" y="734"/>
      <point x="289" y="739"/>
      <point x="289" y="742" type="curve" smooth="yes"/>
      <point x="289" y="755"/>
      <point x="282" y="760"/>
      <point x="268" y="760" type="curve" smooth="yes"/>
      <point x="168" y="760" type="line"/>
      <point x="164" y="742" type="line"/>
      <point x="269" y="742" type="line"/>
      <point x="205" y="421" type="line" smooth="yes"/>
      <point x="203" y="410"/>
      <point x="202" y="401"/>
      <point x="202" y="392" type="curve" smooth="yes"/>
      <point x="202" y="343"/>
      <point x="233" y="319"/>
      <point x="284" y="319" type="curve"/>
      <point x="280" y="303" type="line"/>
      <point x="220" y="303"/>
      <point x="174" y="267"/>
      <point x="161" y="201" type="curve" smooth="yes"/>
      <point x="97" y="-120" type="line"/>
      <point x="-8" y="-120" type="line"/>
    </contour>
  </outline>
</glyph>
<glyph name="asciitilde" format="1">
  <advance width="600"/>
  <unicode hex="007E"/>
  <outline>
    <contour>
      <point x="425" y="256" type="curve" smooth="yes" name="hr00"/>
      <point x="468" y="256"/>
      <point x="506" y="271"/>
      <point x="546" y="304" type="curve"/>
      <point x="534" y="318" type="line"/>
      <point x="496" y="288"/>
      <point x="468" y="276"/>
      <point x="429" y="276" type="curve" smooth="yes"/>
      <point x="393" y="276"/>
      <point x="369" y="286"/>
      <point x="316" y="312" type="curve" smooth="yes"/>
      <point x="259" y="340"/>
      <point x="234" y="352"/>
      <point x="195" y="352" type="curve" smooth="yes"/>
      <point x="152" y="352"/>
      <point x="114" y="337"/>
      <point x="74" y="304" type="curve"/>
      <point x="86" y="290" type="line"/>
      <point x="124" y="320"/>
      <point x="152" y="332"/>
      <point x="191" y="332" type="curve" smooth="yes"/>
      <point x="227" y="332"/>
      <point x="251" y="322"/>
      <point x="304" y="296" type="curve" smooth="yes"/>
      <point x="361" y="268"/>
      <point x="386" y="256"/>
    </contour>
  </outline>
</glyph>
<glyph name="exclamdown" format="1">
  <advance width="247"/>
  <unicode hex="00A1"/>
  <outline>
    <contour>
      <point x="46" y="-192" type="line" name="hr00"/>
      <point x="102" y="91" type="line"/>
      <point x="145" y="330" type="line"/>
      <point x="133" y="330" type="line"/>
      <point x="80" y="91" type="line"/>
      <point x="24" y="-192" type="line"/>
    </contour>
    <contour>
      <point x="166" y="453" type="curve" smooth="yes"/>
      <point x="186" y="453"/>
      <point x="192" y="463"/>
      <point x="195" y="474" type="curve" smooth="yes"/>
      <point x="196" y="478"/>
      <point x="198" y="487"/>
      <point x="198" y="492" type="curve" smooth="yes"/>
      <point x="198" y="501"/>
      <point x="192" y="511"/>
      <point x="172" y="511" type="curve" smooth="yes"/>
      <point x="152" y="511"/>
      <point x="147" y="501"/>
      <point x="144" y="490" type="curve" smooth="yes"/>
      <point x="143" y="486"/>
      <point x="141" y="477"/>
      <point x="141" y="472" type="curve" smooth="yes"/>
      <point x="141" y="463"/>
      <point x="147" y="453"/>
    </contour>
  </outline>
</glyph>
<glyph name="cent" format="1">
  <advance width="488"/>
  <unicode hex="00A2"/>
  <outline>
    <contour>
      <point x="178" y="-114" type="line" name="hr00"/>
      <point x="198" y="-114" type="line"/>
      <point x="218" y="-12" type="line"/>
      <point x="301" y="-12"/>
      <point x="363" y="25"/>
      <point x="422" y="114" type="curve"/>
      <point x="405" y="123" type="line"/>
      <point x="355" y="48"/>
      <point x="300" y="7"/>
      <point x="222" y="7" type="curve"/>
      <point x="320" y="498" type="line"/>
      <point x="376" y="491"/>
      <point x="419" y="456"/>
      <point x="432" y="398" type="curve"/>
      <point x="451" y="403" type="line"/>
      <point x="438" y="464"/>
      <point x="391" y="508"/>
      <point x="323" y="517" type="curve"/>
      <point x="344" y="620" type="line"/>
      <point x="324" y="620" type="line"/>
      <point x="304" y="518" type="line"/>
      <point x="144" y="518"/>
      <point x="61" y="373"/>
      <point x="61" y="186" type="curve" smooth="yes"/>
      <point x="61" y="81"/>
      <point x="106" y="1"/>
      <point x="199" y="-11" type="curve"/>
    </contour>
    <contour>
      <point x="81" y="186" type="curve" smooth="yes"/>
      <point x="81" y="211"/>
      <point x="83" y="224"/>
      <point x="87" y="248" type="curve" smooth="yes"/>
      <point x="96" y="297" type="line" smooth="yes"/>
      <point x="119" y="421"/>
      <point x="196" y="499"/>
      <point x="300" y="499" type="curve"/>
      <point x="202" y="8" type="line"/>
      <point x="117" y="18"/>
      <point x="81" y="94"/>
    </contour>
  </outline>
</glyph>
<glyph name="sterling" format="1">
  <advance width="579"/>
  <unicode hex="00A3"/>
  <outline>
    <contour>
      <point x="463" y="0" type="line"/>
      <point x="467" y="20" type="line"/>
      <point x="63" y="20" type="line"/>
      <point x="64" y="22" type="line"/>
      <point x="153" y="63"/>
      <point x="208" y="152"/>
      <point x="208" y="260" type="curve" smooth="yes"/>
      <point x="208" y="277"/>
      <point x="207" y="294"/>
      <point x="205" y="311" type="curve"/>
      <point x="412" y="311" type="line"/>
      <point x="416" y="331" type="line"/>
      <point x="203" y="331" type="line"/>
      <point x="196" y="388"/>
      <point x="189" y="445"/>
      <point x="189" y="497" type="curve" smooth="yes" name="hr01"/>
      <point x="189" y="620"/>
      <point x="278" y="690"/>
      <point x="389" y="690" type="curve" smooth="yes"/>
      <point x="470" y="690"/>
      <point x="527" y="659"/>
      <point x="557" y="582" type="curve"/>
      <point x="577" y="592" type="line"/>
      <point x="544" y="672"/>
      <point x="477" y="710"/>
      <point x="390" y="710" type="curve" smooth="yes"/>
      <point x="268" y="710"/>
      <point x="167" y="631"/>
      <point x="167" y="497" type="curve" smooth="yes"/>
      <point x="167" y="445"/>
      <point x="174" y="388"/>
      <point x="181" y="331" type="curve"/>
      <point x="90" y="331" type="line"/>
      <point x="86" y="311" type="line"/>
      <point x="183" y="311" type="line"/>
      <point x="185" y="294"/>
      <point x="186" y="277"/>
      <point x="186" y="260" type="curve" smooth="yes" name="hr02"/>
      <point x="186" y="152"/>
      <point x="132" y="69"/>
      <point x="38" y="25" type="curve"/>
      <point x="33" y="0" type="line"/>
    </contour>
  </outline>
</glyph>
<glyph name="currency" format="1">
  <advance width="582"/>
  <unicode hex="00A4"/>
  <outline>
    <contour>
      <point x="267" y="129" type="curve" smooth="yes" name="hr00"/>
      <point x="329" y="129"/>
      <point x="381" y="149"/>
      <point x="421" y="187" type="curve"/>
      <point x="511" y="74" type="line"/>
      <point x="527" y="87" type="line"/>
      <point x="435" y="202" type="line"/>
      <point x="465" y="237"/>
      <point x="486" y="285"/>
      <point x="498" y="346" type="curve" smooth="yes"/>
      <point x="503" y="372"/>
      <point x="506" y="395"/>
      <point x="506" y="417" type="curve" smooth="yes"/>
      <point x="506" y="446"/>
      <point x="501" y="470"/>
      <point x="492" y="491" type="curve"/>
      <point x="618" y="596" type="line"/>
      <point x="604" y="612" type="line"/>
      <point x="482" y="510" type="line"/>
      <point x="457" y="548"/>
      <point x="414" y="569"/>
      <point x="354" y="569" type="curve" smooth="yes"/>
      <point x="292" y="569"/>
      <point x="240" y="549"/>
      <point x="200" y="511" type="curve"/>
      <point x="110" y="624" type="line"/>
      <point x="94" y="611" type="line"/>
      <point x="186" y="496" type="line"/>
      <point x="156" y="461"/>
      <point x="135" y="413"/>
      <point x="123" y="352" type="curve" smooth="yes"/>
      <point x="118" y="326"/>
      <point x="115" y="303"/>
      <point x="115" y="281" type="curve" smooth="yes"/>
      <point x="115" y="252"/>
      <point x="120" y="228"/>
      <point x="129" y="207" type="curve"/>
      <point x="3" y="102" type="line"/>
      <point x="17" y="86" type="line"/>
      <point x="139" y="188" type="line"/>
      <point x="164" y="150"/>
      <point x="207" y="129"/>
    </contour>
    <contour>
      <point x="270" y="148" type="curve" smooth="yes"/>
      <point x="179" y="148"/>
      <point x="135" y="196"/>
      <point x="135" y="277" type="curve" smooth="yes"/>
      <point x="135" y="292"/>
      <point x="137" y="309"/>
      <point x="140" y="326" type="curve" smooth="yes"/>
      <point x="149" y="372" type="line" smooth="yes"/>
      <point x="171" y="482"/>
      <point x="243" y="550"/>
      <point x="351" y="550" type="curve" smooth="yes"/>
      <point x="442" y="550"/>
      <point x="486" y="502"/>
      <point x="486" y="421" type="curve" smooth="yes"/>
      <point x="486" y="406"/>
      <point x="484" y="389"/>
      <point x="481" y="372" type="curve" smooth="yes"/>
      <point x="472" y="326" type="line" smooth="yes"/>
      <point x="450" y="216"/>
      <point x="378" y="148"/>
    </contour>
  </outline>
</glyph>
<glyph name="yen" format="1">
  <advance width="566"/>
  <unicode hex="00A5"/>
  <outline>
    <contour>
      <point x="475" y="168" type="line" name="hr00"/>
      <point x="479" y="187" type="line"/>
      <point x="281" y="187" type="line"/>
      <point x="309" y="325" type="line"/>
      <point x="507" y="325" type="line"/>
      <point x="511" y="344" type="line"/>
      <point x="325" y="344" type="line"/>
      <point x="612" y="698" type="line"/>
      <point x="586" y="698" type="line"/>
      <point x="302" y="348" type="line"/>
      <point x="299" y="348" type="line"/>
      <point x="155" y="698" type="line"/>
      <point x="132" y="698" type="line"/>
      <point x="279" y="344" type="line"/>
      <point x="93" y="344" type="line"/>
      <point x="89" y="325" type="line"/>
      <point x="287" y="325" type="line"/>
      <point x="259" y="187" type="line"/>
      <point x="61" y="187" type="line"/>
      <point x="57" y="168" type="line"/>
      <point x="255" y="168" type="line"/>
      <point x="221" y="0" type="line"/>
      <point x="243" y="0" type="line"/>
      <point x="277" y="168" type="line"/>
    </contour>
  </outline>
</glyph>
<glyph name="brokenbar" format="1">
  <advance width="231"/>
  <unicode hex="00A6"/>
  <outline>
    <contour>
      <point x="155" y="401" type="line" name="hr00"/>
      <point x="227" y="760" type="line"/>
      <point x="207" y="760" type="line"/>
      <point x="135" y="401" type="line"/>
    </contour>
    <contour>
      <point x="47" y="-138" type="line"/>
      <point x="119" y="221" type="line"/>
      <point x="99" y="221" type="line"/>
      <point x="27" y="-138" type="line"/>
    </contour>
  </outline>
</glyph>
<glyph name="section" format="1">
  <advance width="564"/>
  <unicode hex="00A7"/>
  <outline>
    <contour>
      <point x="390" y="3" type="curve" smooth="yes" name="hr00"/>
      <point x="390" y="55"/>
      <point x="370" y="94"/>
      <point x="329" y="120" type="curve"/>
      <point x="329" y="123" type="line"/>
      <point x="420" y="152"/>
      <point x="477" y="201"/>
      <point x="477" y="283" type="curve" smooth="yes"/>
      <point x="477" y="353"/>
      <point x="442" y="384"/>
      <point x="369" y="408" type="curve" smooth="yes"/>
      <point x="293" y="433" type="line" smooth="yes"/>
      <point x="232" y="453"/>
      <point x="197" y="486"/>
      <point x="197" y="553" type="curve" smooth="yes"/>
      <point x="197" y="643"/>
      <point x="262" y="691"/>
      <point x="365" y="691" type="curve" smooth="yes"/>
      <point x="425" y="691"/>
      <point x="466" y="673"/>
      <point x="498" y="643" type="curve"/>
      <point x="512" y="657" type="line"/>
      <point x="479" y="689"/>
      <point x="433" y="710"/>
      <point x="366" y="710" type="curve" smooth="yes"/>
      <point x="254" y="710"/>
      <point x="176" y="655"/>
      <point x="176" y="553" type="curve" smooth="yes"/>
      <point x="176" y="501"/>
      <point x="196" y="462"/>
      <point x="237" y="436" type="curve"/>
      <point x="237" y="433" type="line"/>
      <point x="146" y="404"/>
      <point x="89" y="355"/>
      <point x="89" y="273" type="curve" smooth="yes"/>
      <point x="89" y="203"/>
      <point x="124" y="172"/>
      <point x="197" y="148" type="curve" smooth="yes"/>
      <point x="273" y="123" type="line" smooth="yes"/>
      <point x="334" y="103"/>
      <point x="369" y="70"/>
      <point x="369" y="3" type="curve" smooth="yes"/>
      <point x="369" y="-87"/>
      <point x="304" y="-135"/>
      <point x="201" y="-135" type="curve" smooth="yes"/>
      <point x="141" y="-135"/>
      <point x="100" y="-117"/>
      <point x="68" y="-87" type="curve"/>
      <point x="54" y="-101" type="line"/>
      <point x="87" y="-133"/>
      <point x="133" y="-154"/>
      <point x="200" y="-154" type="curve" smooth="yes"/>
      <point x="312" y="-154"/>
      <point x="390" y="-99"/>
    </contour>
    <contour>
      <point x="456" y="283" type="curve" smooth="yes"/>
      <point x="456" y="205"/>
      <point x="399" y="161"/>
      <point x="310" y="130" type="curve"/>
      <point x="301" y="134"/>
      <point x="292" y="137"/>
      <point x="282" y="140" type="curve" smooth="yes"/>
      <point x="205" y="165" type="line" smooth="yes"/>
      <point x="135" y="188"/>
      <point x="110" y="215"/>
      <point x="110" y="273" type="curve" smooth="yes"/>
      <point x="110" y="351"/>
      <point x="167" y="395"/>
      <point x="256" y="426" type="curve"/>
      <point x="265" y="422"/>
      <point x="274" y="419"/>
      <point x="284" y="416" type="curve" smooth="yes"/>
      <point x="361" y="391" type="line" smooth="yes"/>
      <point x="431" y="368"/>
      <point x="456" y="341"/>
    </contour>
  </outline>
</glyph>
<glyph name="dieresis" format="1">
  <advance width="600"/>
  <unicode hex="00A8"/>
  <outline>
    <contour>
      <point x="231" y="642" type="curve" smooth="yes" name="hr00"/>
      <point x="247" y="642"/>
      <point x="251" y="650"/>
      <point x="254" y="659" type="curve" smooth="yes"/>
      <point x="256" y="665"/>
      <point x="257" y="669"/>
      <point x="257" y="674" type="curve" smooth="yes"/>
      <point x="257" y="682"/>
      <point x="253" y="691"/>
      <point x="237" y="691" type="curve" smooth="yes"/>
      <point x="221" y="691"/>
      <point x="217" y="683"/>
      <point x="214" y="674" type="curve" smooth="yes"/>
      <point x="212" y="668"/>
      <point x="211" y="664"/>
      <point x="211" y="659" type="curve" smooth="yes"/>
      <point x="211" y="651"/>
      <point x="215" y="642"/>
    </contour>
    <contour>
      <point x="413" y="642" type="curve" smooth="yes"/>
      <point x="429" y="642"/>
      <point x="433" y="650"/>
      <point x="436" y="659" type="curve" smooth="yes"/>
      <point x="438" y="665"/>
      <point x="439" y="669"/>
      <point x="439" y="674" type="curve" smooth="yes"/>
      <point x="439" y="682"/>
      <point x="435" y="691"/>
      <point x="419" y="691" type="curve" smooth="yes"/>
      <point x="403" y="691"/>
      <point x="399" y="683"/>
      <point x="396" y="674" type="curve" smooth="yes"/>
      <point x="394" y="668"/>
      <point x="393" y="664"/>
      <point x="393" y="659" type="curve" smooth="yes"/>
      <point x="393" y="651"/>
      <point x="397" y="642"/>
    </contour>
    <contour>
      <point x="300" y="540" type="move" name="_top"/>
    </contour>
  </outline>
</glyph>
<glyph name="copyright" format="1">
  <advance width="701"/>
  <unicode hex="00A9"/>
  <outline>
    <contour>
      <point x="317" y="-12" type="curve" smooth="yes" name="hr00"/>
      <point x="527" y="-12"/>
      <point x="694" y="160"/>
      <point x="694" y="415" type="curve" smooth="yes"/>
      <point x="694" y="596"/>
      <point x="582" y="710"/>
      <point x="409" y="710" type="curve" smooth="yes"/>
      <point x="199" y="710"/>
      <point x="32" y="538"/>
      <point x="32" y="283" type="curve" smooth="yes"/>
      <point x="32" y="102"/>
      <point x="144" y="-12"/>
    </contour>
    <contour>
      <point x="317" y="6" type="curve" smooth="yes"/>
      <point x="147" y="6"/>
      <point x="52" y="121"/>
      <point x="52" y="283" type="curve" smooth="yes"/>
      <point x="52" y="310"/>
      <point x="54" y="337"/>
      <point x="68" y="403" type="curve" smooth="yes"/>
      <point x="102" y="561"/>
      <point x="228" y="692"/>
      <point x="409" y="692" type="curve" smooth="yes"/>
      <point x="579" y="692"/>
      <point x="674" y="577"/>
      <point x="674" y="415" type="curve" smooth="yes"/>
      <point x="674" y="388"/>
      <point x="672" y="363"/>
      <point x="658" y="295" type="curve" smooth="yes"/>
      <point x="625" y="137"/>
      <point x="498" y="6"/>
    </contour>
    <contour>
      <point x="338" y="149" type="curve" smooth="yes"/>
      <point x="397" y="149"/>
      <point x="446" y="186"/>
      <point x="471" y="230" type="curve"/>
      <point x="456" y="238" type="line"/>
      <point x="431" y="194"/>
      <point x="389" y="167"/>
      <point x="339" y="167" type="curve" smooth="yes"/>
      <point x="268" y="167"/>
      <point x="226" y="218"/>
      <point x="226" y="301" type="curve" smooth="yes"/>
      <point x="226" y="312"/>
      <point x="227" y="328"/>
      <point x="230" y="347" type="curve" smooth="yes"/>
      <point x="234" y="369" type="line" smooth="yes"/>
      <point x="253" y="473"/>
      <point x="320" y="526"/>
      <point x="396" y="526" type="curve" smooth="yes"/>
      <point x="452" y="526"/>
      <point x="480" y="497"/>
      <point x="496" y="458" type="curve"/>
      <point x="513" y="464" type="line"/>
      <point x="497" y="506"/>
      <point x="459" y="543"/>
      <point x="397" y="543" type="curve" smooth="yes"/>
      <point x="285" y="543"/>
      <point x="206" y="445"/>
      <point x="206" y="301" type="curve" smooth="yes"/>
      <point x="206" y="201"/>
      <point x="262" y="149"/>
    </contour>
  </outline>
</glyph>
<glyph name="ordfeminine" format="1">
  <advance width="354"/>
  <unicode hex="00AA"/>
  <outline>
    <contour>
      <point x="352" y="383" type="line"/>
      <point x="304" y="383" type="line"/>
      <point x="347" y="599" type="line" smooth="yes"/>
      <point x="348" y="605"/>
      <point x="349" y="614"/>
      <point x="349" y="619" type="curve" smooth="yes"/>
      <point x="349" y="674"/>
      <point x="315" y="704"/>
      <point x="249" y="704" type="curve" smooth="yes"/>
      <point x="192" y="704"/>
      <point x="149" y="680"/>
      <point x="123" y="637" type="curve"/>
      <point x="138" y="629" type="line"/>
      <point x="164" y="671"/>
      <point x="202" y="687"/>
      <point x="248" y="687" type="curve" smooth="yes"/>
      <point x="301" y="687"/>
      <point x="331" y="667"/>
      <point x="331" y="619" type="curve" smooth="yes"/>
      <point x="331" y="613"/>
      <point x="330" y="605"/>
      <point x="329" y="598" type="curve" smooth="yes"/>
      <point x="318" y="542" type="line"/>
      <point x="221" y="542" type="line" smooth="yes"/>
      <point x="111" y="542"/>
      <point x="75" y="495"/>
      <point x="75" y="437" type="curve" smooth="yes"/>
      <point x="75" y="390"/>
      <point x="108" y="360"/>
      <point x="169" y="360" type="curve" smooth="yes" name="hr01"/>
      <point x="232" y="360"/>
      <point x="270" y="388"/>
      <point x="291" y="416" type="curve"/>
      <point x="293" y="416" type="line"/>
      <point x="287" y="389" type="line" smooth="yes"/>
      <point x="286" y="385"/>
      <point x="285" y="380"/>
      <point x="285" y="378" type="curve" smooth="yes"/>
      <point x="285" y="370"/>
      <point x="290" y="366"/>
      <point x="300" y="366" type="curve" smooth="yes" name="hr02"/>
      <point x="348" y="366" type="line"/>
    </contour>
    <contour>
      <point x="315" y="525" type="line"/>
      <point x="303" y="467" type="line" smooth="yes"/>
      <point x="291" y="407"/>
      <point x="231" y="377"/>
      <point x="169" y="377" type="curve" smooth="yes" name="hr03"/>
      <point x="121" y="377"/>
      <point x="96" y="398"/>
      <point x="96" y="437" type="curve" smooth="yes"/>
      <point x="96" y="442"/>
      <point x="97" y="450"/>
      <point x="100" y="462" type="curve" smooth="yes"/>
      <point x="109" y="497"/>
      <point x="137" y="525"/>
      <point x="219" y="525" type="curve" smooth="yes"/>
    </contour>
  </outline>
</glyph>
<glyph name="registered" format="1">
  <advance width="466"/>
  <unicode hex="00AE"/>
  <outline>
    <contour>
      <point x="251" y="298" type="curve" smooth="yes" name="hr00"/>
      <point x="422" y="298"/>
      <point x="485" y="443"/>
      <point x="485" y="544" type="curve" smooth="yes"/>
      <point x="485" y="643"/>
      <point x="416" y="710"/>
      <point x="313" y="710" type="curve" smooth="yes"/>
      <point x="142" y="710"/>
      <point x="79" y="565"/>
      <point x="79" y="464" type="curve" smooth="yes"/>
      <point x="79" y="365"/>
      <point x="148" y="298"/>
    </contour>
    <contour>
      <point x="254" y="314" type="curve" smooth="yes"/>
      <point x="159" y="314"/>
      <point x="97" y="375"/>
      <point x="97" y="464" type="curve" smooth="yes"/>
      <point x="97" y="477"/>
      <point x="98" y="490"/>
      <point x="105" y="524" type="curve" smooth="yes"/>
      <point x="125" y="622"/>
      <point x="202" y="694"/>
      <point x="310" y="694" type="curve" smooth="yes"/>
      <point x="405" y="694"/>
      <point x="467" y="633"/>
      <point x="467" y="544" type="curve" smooth="yes"/>
      <point x="467" y="531"/>
      <point x="466" y="518"/>
      <point x="459" y="484" type="curve" smooth="yes"/>
      <point x="439" y="386"/>
      <point x="362" y="314"/>
    </contour>
    <contour>
      <point x="231" y="488" type="line"/>
      <point x="295" y="488" type="line"/>
      <point x="330" y="397" type="line"/>
      <point x="347" y="397" type="line"/>
      <point x="311" y="489" type="line"/>
      <point x="343" y="490"/>
      <point x="372" y="514"/>
      <point x="372" y="562" type="curve" smooth="yes"/>
      <point x="372" y="593"/>
      <point x="351" y="609"/>
      <point x="318" y="609" type="curve" smooth="yes"/>
      <point x="239" y="609" type="line"/>
      <point x="197" y="397" type="line"/>
      <point x="213" y="397" type="line"/>
    </contour>
    <contour>
      <point x="234" y="503" type="line"/>
      <point x="252" y="594" type="line"/>
      <point x="314" y="594" type="line" smooth="yes"/>
      <point x="341" y="594"/>
      <point x="355" y="583"/>
      <point x="355" y="562" type="curve" smooth="yes"/>
      <point x="355" y="558"/>
      <point x="354" y="551"/>
      <point x="352" y="542" type="curve" smooth="yes"/>
      <point x="346" y="511"/>
      <point x="328" y="503"/>
      <point x="295" y="503" type="curve" smooth="yes"/>
    </contour>
  </outline>
</glyph>
<glyph name="macron" format="1">
  <advance width="600"/>
  <unicode hex="00AF"/>
  <outline>
    <contour>
      <point x="193" y="658" type="line" name="hr00"/>
      <point x="451" y="658" type="line"/>
      <point x="454" y="676" type="line"/>
      <point x="196" y="676" type="line"/>
    </contour>
    <contour>
      <point x="300" y="540" type="move" name="_top"/>
    </contour>
  </outline>
</glyph>
<glyph name="degree" format="1">
  <advance width="466"/>
  <unicode hex="00B0"/>
  <outline>
    <contour>
      <point x="271" y="374" type="curve" smooth="yes" name="hr00"/>
      <point x="371" y="374"/>
      <point x="450" y="452"/>
      <point x="450" y="560" type="curve" smooth="yes"/>
      <point x="450" y="647"/>
      <point x="394" y="710"/>
      <point x="309" y="710" type="curve" smooth="yes"/>
      <point x="209" y="710"/>
      <point x="130" y="632"/>
      <point x="130" y="524" type="curve" smooth="yes"/>
      <point x="130" y="437"/>
      <point x="186" y="374"/>
    </contour>
    <contour>
      <point x="273" y="393" type="curve" smooth="yes"/>
      <point x="194" y="393"/>
      <point x="151" y="449"/>
      <point x="151" y="525" type="curve" smooth="yes"/>
      <point x="151" y="621"/>
      <point x="219" y="691"/>
      <point x="307" y="691" type="curve" smooth="yes"/>
      <point x="386" y="691"/>
      <point x="429" y="635"/>
      <point x="429" y="559" type="curve" smooth="yes"/>
      <point x="429" y="463"/>
      <point x="361" y="393"/>
    </contour>
  </outline>
</glyph>
<glyph name="plusminus" format="1">
  <advance width="600"/>
  <unicode hex="00B1"/>
  <outline>
    <contour>
      <point x="283" y="115" type="line" name="hr00"/>
      <point x="330" y="349" type="line"/>
      <point x="558" y="349" type="line"/>
      <point x="561" y="368" type="line"/>
      <point x="333" y="368" type="line"/>
      <point x="380" y="602" type="line"/>
      <point x="359" y="602" type="line"/>
      <point x="312" y="368" type="line"/>
      <point x="84" y="368" type="line"/>
      <point x="81" y="349" type="line"/>
      <point x="309" y="349" type="line"/>
      <point x="262" y="115" type="line"/>
    </contour>
    <contour>
      <point x="487" y="0" type="line"/>
      <point x="491" y="19" type="line"/>
      <point x="15" y="19" type="line"/>
      <point x="11" y="0" type="line"/>
    </contour>
  </outline>
</glyph>
<glyph name="twosuperior" format="1">
  <advance width="338"/>
  <unicode hex="00B2"/>
  <outline>
    <contour>
      <point x="314" y="346" type="line" name="hr00"/>
      <point x="80" y="346" type="line"/>
      <point x="232" y="452" type="line" smooth="yes"/>
      <point x="315" y="510"/>
      <point x="353" y="551"/>
      <point x="353" y="608" type="curve" smooth="yes"/>
      <point x="353" y="661"/>
      <point x="314" y="704"/>
      <point x="246" y="704" type="curve" smooth="yes"/>
      <point x="173" y="704"/>
      <point x="132" y="667"/>
      <point x="107" y="615" type="curve"/>
      <point x="124" y="609" type="line"/>
      <point x="145" y="656"/>
      <point x="181" y="687"/>
      <point x="243" y="687" type="curve" smooth="yes"/>
      <point x="302" y="687"/>
      <point x="333" y="654"/>
      <point x="333" y="608" type="curve" smooth="yes"/>
      <point x="333" y="603"/>
      <point x="333" y="597"/>
      <point x="330" y="583" type="curve" smooth="yes"/>
      <point x="323" y="546"/>
      <point x="286" y="509"/>
      <point x="220" y="463" type="curve" smooth="yes"/>
      <point x="58" y="349" type="line"/>
      <point x="54" y="329" type="line"/>
      <point x="310" y="329" type="line"/>
    </contour>
  </outline>
</glyph>
<glyph name="threesuperior" format="1">
  <advance width="345"/>
  <unicode hex="00B3"/>
  <outline>
    <contour>
      <point x="172" y="529" type="line" name="hr00"/>
      <point x="169" y="512" type="line"/>
      <point x="222" y="512" type="line" smooth="yes"/>
      <point x="287" y="512"/>
      <point x="310" y="488"/>
      <point x="310" y="444" type="curve" smooth="yes"/>
      <point x="310" y="437"/>
      <point x="309" y="432"/>
      <point x="307" y="420" type="curve" smooth="yes"/>
      <point x="296" y="370"/>
      <point x="261" y="340"/>
      <point x="193" y="340" type="curve" smooth="yes"/>
      <point x="133" y="340"/>
      <point x="106" y="359"/>
      <point x="88" y="390" type="curve"/>
      <point x="74" y="380" type="line"/>
      <point x="91" y="348"/>
      <point x="127" y="323"/>
      <point x="192" y="323" type="curve" smooth="yes"/>
      <point x="276" y="323"/>
      <point x="329" y="370"/>
      <point x="329" y="445" type="curve" smooth="yes"/>
      <point x="329" y="486"/>
      <point x="310" y="513"/>
      <point x="266" y="520" type="curve"/>
      <point x="266" y="522" type="line"/>
      <point x="324" y="530"/>
      <point x="357" y="565"/>
      <point x="357" y="617" type="curve" smooth="yes"/>
      <point x="357" y="670"/>
      <point x="322" y="704"/>
      <point x="254" y="704" type="curve" smooth="yes"/>
      <point x="198" y="704"/>
      <point x="157" y="684"/>
      <point x="130" y="651" type="curve"/>
      <point x="143" y="641" type="line"/>
      <point x="170" y="670"/>
      <point x="199" y="687"/>
      <point x="252" y="687" type="curve" smooth="yes"/>
      <point x="310" y="687"/>
      <point x="337" y="660"/>
      <point x="337" y="617" type="curve" smooth="yes"/>
      <point x="337" y="612"/>
      <point x="337" y="609"/>
      <point x="335" y="598" type="curve" smooth="yes"/>
      <point x="327" y="556"/>
      <point x="292" y="529"/>
      <point x="218" y="529" type="curve" smooth="yes"/>
    </contour>
  </outline>
</glyph>
<glyph name="acute" format="1">
  <advance width="600"/>
  <unicode hex="00B4"/>
  <outline>
    <contour>
      <point x="435" y="738" type="line" name="hr00"/>
      <point x="418" y="751" type="line"/>
      <point x="275" y="598" type="line"/>
      <point x="288" y="587" type="line"/>
    </contour>
    <contour>
      <point x="300" y="540" type="move" name="_top"/>
    </contour>
  </outline>
</glyph>
<glyph name="mu" format="1">
  <advance width="558"/>
  <unicode hex="00B5"/>
  <outline>
    <contour>
      <point x="35" y="-200" type="line"/>
      <point x="66" y="-44" type="line"/>
      <point x="86" y="80" type="line"/>
      <point x="88" y="80" type="line"/>
      <point x="101" y="23"/>
      <point x="144" y="-12"/>
      <point x="216" y="-12" type="curve" smooth="yes"/>
      <point x="299" y="-12"/>
      <point x="354" y="29"/>
      <point x="394" y="105" type="curve"/>
      <point x="397" y="105" type="line"/>
      <point x="383" y="35" type="line" smooth="yes"/>
      <point x="382" y="29"/>
      <point x="381" y="25"/>
      <point x="381" y="19" type="curve" smooth="yes" name="hr01"/>
      <point x="381" y="6"/>
      <point x="389" y="0"/>
      <point x="404" y="0" type="curve" smooth="yes"/>
      <point x="482" y="0" type="line"/>
      <point x="486" y="19" type="line"/>
      <point x="401" y="19" type="line"/>
      <point x="498" y="506" type="line"/>
      <point x="477" y="506" type="line"/>
      <point x="415" y="194" type="line" smooth="yes"/>
      <point x="403" y="134"/>
      <point x="374" y="95"/>
      <point x="352" y="69" type="curve" smooth="yes"/>
      <point x="312" y="22"/>
      <point x="264" y="7"/>
      <point x="219" y="7" type="curve" smooth="yes" name="hr02"/>
      <point x="144" y="7"/>
      <point x="105" y="46"/>
      <point x="105" y="123" type="curve" smooth="yes"/>
      <point x="105" y="136"/>
      <point x="108" y="164"/>
      <point x="112" y="186" type="curve" smooth="yes"/>
      <point x="176" y="506" type="line"/>
      <point x="155" y="506" type="line"/>
      <point x="14" y="-200" type="line"/>
    </contour>
  </outline>
</glyph>
<glyph name="paragraph" format="1">
  <advance width="590"/>
  <unicode hex="00B6"/>
  <outline>
    <contour>
      <point x="169" y="-149" type="line" name="hr00"/>
      <point x="190" y="-149" type="line"/>
      <point x="356" y="680" type="line"/>
      <point x="488" y="680" type="line"/>
      <point x="322" y="-149" type="line"/>
      <point x="343" y="-149" type="line"/>
      <point x="509" y="680" type="line"/>
      <point x="578" y="680" type="line"/>
      <point x="582" y="698" type="line"/>
      <point x="349" y="698" type="line" smooth="yes"/>
      <point x="205" y="698"/>
      <point x="99" y="616"/>
      <point x="99" y="486" type="curve" smooth="yes"/>
      <point x="99" y="387"/>
      <point x="170" y="330"/>
      <point x="265" y="330" type="curve"/>
    </contour>
  </outline>
</glyph>
<glyph name="periodcentered" format="1">
  <advance width="298"/>
  <unicode hex="00B7"/>
  <outline>
    <contour>
      <point x="157" y="277" type="curve" smooth="yes" name="hr00"/>
      <point x="177" y="277"/>
      <point x="182" y="287"/>
      <point x="185" y="298" type="curve" smooth="yes"/>
      <point x="186" y="302"/>
      <point x="188" y="311"/>
      <point x="188" y="316" type="curve" smooth="yes"/>
      <point x="188" y="325"/>
      <point x="182" y="335"/>
      <point x="163" y="335" type="curve" smooth="yes"/>
      <point x="143" y="335"/>
      <point x="137" y="325"/>
      <point x="134" y="314" type="curve" smooth="yes"/>
      <point x="133" y="310"/>
      <point x="131" y="301"/>
      <point x="131" y="296" type="curve" smooth="yes"/>
      <point x="131" y="287"/>
      <point x="137" y="277"/>
    </contour>
  </outline>
</glyph>
<glyph name="cedilla" format="1">
  <advance width="600"/>
  <unicode hex="00B8"/>
  <outline>
    <contour>
      <point x="273" y="-202" type="curve" smooth="yes" name="hr00"/>
      <point x="330" y="-202"/>
      <point x="367" y="-167"/>
      <point x="367" y="-125" type="curve" smooth="yes"/>
      <point x="367" y="-92"/>
      <point x="346" y="-72"/>
      <point x="310" y="-72" type="curve" smooth="yes"/>
      <point x="302" y="-72"/>
      <point x="290" y="-73"/>
      <point x="281" y="-75" type="curve"/>
      <point x="279" y="-73" type="line"/>
      <point x="313" y="3" type="line"/>
      <point x="295" y="3" type="line"/>
      <point x="257" y="-84" type="line"/>
      <point x="294" y="-86" type="line" smooth="yes"/>
      <point x="333" y="-88"/>
      <point x="346" y="-103"/>
      <point x="346" y="-126" type="curve" smooth="yes"/>
      <point x="346" y="-160"/>
      <point x="316" y="-184"/>
      <point x="273" y="-184" type="curve" smooth="yes"/>
      <point x="245" y="-184"/>
      <point x="225" y="-174"/>
      <point x="212" y="-157" type="curve"/>
      <point x="198" y="-170" type="line"/>
      <point x="209" y="-187"/>
      <point x="236" y="-202"/>
    </contour>
    <contour>
      <point x="302" y="0" type="move" name="_bottom"/>
    </contour>
  </outline>
</glyph>
<glyph name="onesuperior" format="1">
  <advance width="334"/>
  <unicode hex="00B9"/>
  <outline>
    <contour>
      <point x="322" y="329" type="line" name="hr00"/>
      <point x="326" y="346" type="line"/>
      <point x="208" y="346" type="line"/>
      <point x="277" y="698" type="line"/>
      <point x="254" y="698" type="line"/>
      <point x="94" y="623" type="line"/>
      <point x="99" y="608" type="line"/>
      <point x="254" y="680" type="line"/>
      <point x="189" y="346" type="line"/>
      <point x="60" y="346" type="line"/>
      <point x="56" y="329" type="line"/>
    </contour>
  </outline>
</glyph>
<glyph name="ordmasculine" format="1">
  <advance width="364"/>
  <unicode hex="00BA"/>
  <outline>
    <contour>
      <point x="207" y="360" type="curve" smooth="yes" name="hr00"/>
      <point x="297" y="360"/>
      <point x="354" y="433"/>
      <point x="372" y="518" type="curve" smooth="yes"/>
      <point x="376" y="537"/>
      <point x="378" y="557"/>
      <point x="378" y="576" type="curve" smooth="yes"/>
      <point x="378" y="653"/>
      <point x="333" y="704"/>
      <point x="265" y="704" type="curve" smooth="yes"/>
      <point x="175" y="704"/>
      <point x="118" y="631"/>
      <point x="100" y="546" type="curve" smooth="yes"/>
      <point x="96" y="527"/>
      <point x="94" y="507"/>
      <point x="94" y="488" type="curve" smooth="yes"/>
      <point x="94" y="411"/>
      <point x="139" y="360"/>
    </contour>
    <contour>
      <point x="208" y="377" type="curve" smooth="yes"/>
      <point x="142" y="377"/>
      <point x="113" y="426"/>
      <point x="113" y="488" type="curve" smooth="yes"/>
      <point x="113" y="499"/>
      <point x="115" y="510"/>
      <point x="117" y="521" type="curve" smooth="yes"/>
      <point x="124" y="556" type="line" smooth="yes"/>
      <point x="139" y="631"/>
      <point x="189" y="687"/>
      <point x="264" y="687" type="curve" smooth="yes"/>
      <point x="330" y="687"/>
      <point x="359" y="638"/>
      <point x="359" y="576" type="curve" smooth="yes"/>
      <point x="359" y="565"/>
      <point x="357" y="554"/>
      <point x="355" y="543" type="curve" smooth="yes"/>
      <point x="348" y="508" type="line" smooth="yes"/>
      <point x="333" y="433"/>
      <point x="283" y="377"/>
    </contour>
  </outline>
</glyph>
<glyph name="questiondown" format="1">
  <advance width="453"/>
  <unicode hex="00BF"/>
  <outline>
    <contour>
      <point x="160" y="-204" type="curve" smooth="yes" name="hr00"/>
      <point x="268" y="-204"/>
      <point x="333" y="-145"/>
      <point x="369" y="-54" type="curve"/>
      <point x="350" y="-48" type="line"/>
      <point x="314" y="-133"/>
      <point x="261" y="-185"/>
      <point x="161" y="-185" type="curve" smooth="yes"/>
      <point x="65" y="-185"/>
      <point x="13" y="-133"/>
      <point x="13" y="-48" type="curve" smooth="yes"/>
      <point x="13" y="-39"/>
      <point x="16" y="-16"/>
      <point x="18" y="-2" type="curve" smooth="yes"/>
      <point x="32" y="95"/>
      <point x="104" y="146"/>
      <point x="248" y="157" type="curve"/>
      <point x="281" y="330" type="line"/>
      <point x="259" y="330" type="line"/>
      <point x="229" y="175" type="line"/>
      <point x="65" y="160"/>
      <point x="-9" y="78"/>
      <point x="-9" y="-48" type="curve" smooth="yes"/>
      <point x="-9" y="-142"/>
      <point x="56" y="-204"/>
    </contour>
    <contour>
      <point x="297" y="453" type="curve" smooth="yes"/>
      <point x="317" y="453"/>
      <point x="323" y="463"/>
      <point x="326" y="474" type="curve" smooth="yes"/>
      <point x="327" y="478"/>
      <point x="329" y="487"/>
      <point x="329" y="492" type="curve" smooth="yes"/>
      <point x="329" y="501"/>
      <point x="323" y="511"/>
      <point x="303" y="511" type="curve" smooth="yes"/>
      <point x="283" y="511"/>
      <point x="278" y="501"/>
      <point x="275" y="490" type="curve" smooth="yes"/>
      <point x="274" y="486"/>
      <point x="272" y="477"/>
      <point x="272" y="472" type="curve" smooth="yes"/>
      <point x="272" y="463"/>
      <point x="278" y="453"/>
    </contour>
  </outline>
</glyph>
<glyph name="AE" format="1">
  <advance width="884"/>
  <unicode hex="00C6"/>
  <outline>
    <contour>
      <point x="385" y="0" type="line" name="hr00"/>
      <point x="763" y="0" type="line"/>
      <point x="767" y="20" type="line"/>
      <point x="411" y="20" type="line"/>
      <point x="476" y="344" type="line"/>
      <point x="820" y="344" type="line"/>
      <point x="824" y="364" type="line"/>
      <point x="480" y="364" type="line"/>
      <point x="543" y="678" type="line"/>
      <point x="899" y="678" type="line"/>
      <point x="903" y="698" type="line"/>
      <point x="502" y="698" type="line"/>
      <point x="-21" y="0" type="line"/>
      <point x="4" y="0" type="line"/>
      <point x="180" y="234" type="line"/>
      <point x="432" y="234" type="line"/>
    </contour>
    <contour>
      <point x="521" y="678" type="line"/>
      <point x="436" y="253" type="line"/>
      <point x="194" y="253" type="line"/>
      <point x="511" y="678" type="line"/>
    </contour>
    <contour>
      <point x="572" y="698" type="move" name="top"/>
    </contour>
  </outline>
</glyph>
<glyph name="Ccedilla" format="1">
  <advance width="595"/>
  <unicode hex="00C7"/>
  <outline>
    <contour>
      <point x="397" y="690" type="curve" smooth="yes" name="hr00"/>
      <point x="501" y="690"/>
      <point x="547" y="640"/>
      <point x="568" y="564" type="curve"/>
      <point x="589" y="569" type="line"/>
      <point x="567" y="656"/>
      <point x="510" y="710"/>
      <point x="398" y="710" type="curve" smooth="yes"/>
      <point x="158" y="710"/>
      <point x="69" y="418"/>
      <point x="69" y="220" type="curve" smooth="yes"/>
      <point x="69" y="74"/>
      <point x="153" y="-7"/>
      <point x="279" y="-12" type="curve"/>
      <point x="247" y="-84" type="line"/>
      <point x="284" y="-86" type="line" smooth="yes"/>
      <point x="323" y="-88"/>
      <point x="336" y="-103"/>
      <point x="336" y="-126" type="curve" smooth="yes"/>
      <point x="336" y="-160"/>
      <point x="306" y="-184"/>
      <point x="263" y="-184" type="curve" smooth="yes"/>
      <point x="235" y="-184"/>
      <point x="215" y="-174"/>
      <point x="202" y="-157" type="curve"/>
      <point x="188" y="-170" type="line"/>
      <point x="199" y="-187"/>
      <point x="226" y="-202"/>
      <point x="263" y="-202" type="curve" smooth="yes"/>
      <point x="320" y="-202"/>
      <point x="357" y="-167"/>
      <point x="357" y="-125" type="curve" smooth="yes"/>
      <point x="357" y="-92"/>
      <point x="336" y="-72"/>
      <point x="300" y="-72" type="curve" smooth="yes"/>
      <point x="292" y="-72"/>
      <point x="280" y="-73"/>
      <point x="271" y="-75" type="curve"/>
      <point x="269" y="-73" type="line"/>
      <point x="296" y="-12" type="line"/>
      <point x="391" y="-10"/>
      <point x="458" y="34"/>
      <point x="519" y="141" type="curve"/>
      <point x="500" y="151" type="line"/>
      <point x="447" y="55"/>
      <point x="384" y="8"/>
      <point x="291" y="8" type="curve" smooth="yes"/>
      <point x="162" y="8"/>
      <point x="91" y="90"/>
      <point x="91" y="220" type="curve" smooth="yes"/>
      <point x="91" y="248"/>
      <point x="93" y="287"/>
      <point x="101" y="329" type="curve" smooth="yes"/>
      <point x="112" y="384" type="line" smooth="yes"/>
      <point x="149" y="570"/>
      <point x="255" y="690"/>
    </contour>
  </outline>
</glyph>
<glyph name="multiply" format="1">
  <advance width="600"/>
  <unicode hex="00D7"/>
  <outline>
    <contour>
      <point x="453" y="110" type="line" name="hr00"/>
      <point x="468" y="122" type="line"/>
      <point x="323" y="304" type="line"/>
      <point x="540" y="486" type="line"/>
      <point x="528" y="500" type="line"/>
      <point x="311" y="319" type="line"/>
      <point x="167" y="499" type="line"/>
      <point x="152" y="487" type="line"/>
      <point x="296" y="306" type="line"/>
      <point x="77" y="123" type="line"/>
      <point x="89" y="109" type="line"/>
      <point x="308" y="292" type="line"/>
    </contour>
  </outline>
</glyph>
<glyph name="Oslash" format="1">
  <advance width="658"/>
  <unicode hex="00D8"/>
  <outline>
    <contour>
      <point x="291" y="-12" type="curve" smooth="yes" name="hr00"/>
      <point x="535" y="-12"/>
      <point x="623" y="280"/>
      <point x="623" y="478" type="curve" smooth="yes"/>
      <point x="623" y="531"/>
      <point x="612" y="575"/>
      <point x="592" y="610" type="curve"/>
      <point x="689" y="719" type="line"/>
      <point x="674" y="731" type="line"/>
      <point x="581" y="627" type="line"/>
      <point x="543" y="682"/>
      <point x="479" y="710"/>
      <point x="401" y="710" type="curve" smooth="yes"/>
      <point x="158" y="710"/>
      <point x="69" y="418"/>
      <point x="69" y="220" type="curve" smooth="yes"/>
      <point x="69" y="167"/>
      <point x="80" y="123"/>
      <point x="100" y="88" type="curve"/>
      <point x="3" y="-21" type="line"/>
      <point x="18" y="-33" type="line"/>
      <point x="111" y="71" type="line"/>
      <point x="149" y="16"/>
      <point x="213" y="-12"/>
    </contour>
    <contour>
      <point x="101" y="329" type="curve" smooth="yes"/>
      <point x="112" y="384" type="line" smooth="yes"/>
      <point x="149" y="570"/>
      <point x="256" y="690"/>
      <point x="401" y="690" type="curve" smooth="yes"/>
      <point x="477" y="690"/>
      <point x="534" y="661"/>
      <point x="567" y="611" type="curve"/>
      <point x="115" y="105" type="line"/>
      <point x="99" y="137"/>
      <point x="91" y="176"/>
      <point x="91" y="220" type="curve" smooth="yes"/>
      <point x="91" y="248"/>
      <point x="93" y="287"/>
    </contour>
    <contour>
      <point x="591" y="369" type="curve" smooth="yes"/>
      <point x="580" y="314" type="line" smooth="yes"/>
      <point x="543" y="128"/>
      <point x="436" y="8"/>
      <point x="291" y="8" type="curve" smooth="yes"/>
      <point x="215" y="8"/>
      <point x="158" y="37"/>
      <point x="125" y="87" type="curve"/>
      <point x="577" y="593" type="line"/>
      <point x="593" y="561"/>
      <point x="601" y="522"/>
      <point x="601" y="478" type="curve" smooth="yes"/>
      <point x="601" y="450"/>
      <point x="599" y="411"/>
    </contour>
    <contour>
      <point x="413" y="698" type="move" name="top"/>
    </contour>
  </outline>
</glyph>
<glyph name="Thorn" format="1">
  <advance width="592"/>
  <unicode hex="00DE"/>
  <outline>
    <contour>
      <point x="76" y="0" type="line" name="hr00"/>
      <point x="109" y="166" type="line"/>
      <point x="355" y="166" type="line" smooth="yes"/>
      <point x="485" y="166"/>
      <point x="565" y="250"/>
      <point x="565" y="394" type="curve" smooth="yes"/>
      <point x="565" y="479"/>
      <point x="511" y="542"/>
      <point x="414" y="542" type="curve" smooth="yes"/>
      <point x="184" y="542" type="line"/>
      <point x="215" y="698" type="line"/>
      <point x="194" y="698" type="line"/>
      <point x="54" y="0" type="line"/>
    </contour>
    <contour>
      <point x="180" y="522" type="line"/>
      <point x="412" y="522" type="line" smooth="yes"/>
      <point x="504" y="522"/>
      <point x="543" y="464"/>
      <point x="543" y="394" type="curve" smooth="yes"/>
      <point x="543" y="383"/>
      <point x="542" y="364"/>
      <point x="534" y="325" type="curve" smooth="yes"/>
      <point x="518" y="245"/>
      <point x="460" y="186"/>
      <point x="357" y="186" type="curve" smooth="yes"/>
      <point x="113" y="186" type="line"/>
    </contour>
  </outline>
</glyph>
<glyph name="germandbls" format="1">
  <advance width="628"/>
  <unicode hex="00DF"/>
  <outline>
    <contour>
      <point x="562" y="140" type="curve" smooth="yes"/>
      <point x="562" y="210"/>
      <point x="522" y="236"/>
      <point x="464" y="256" type="curve" smooth="yes"/>
      <point x="414" y="273" type="line" smooth="yes"/>
      <point x="359" y="292"/>
      <point x="333" y="310"/>
      <point x="333" y="367" type="curve" smooth="yes"/>
      <point x="333" y="458"/>
      <point x="425" y="488"/>
      <point x="536" y="488" type="curve" smooth="yes"/>
      <point x="552" y="488" type="line"/>
      <point x="558" y="521" type="line" smooth="yes"/>
      <point x="562" y="545"/>
      <point x="565" y="568"/>
      <point x="565" y="590" type="curve" smooth="yes" name="hr01"/>
      <point x="565" y="690"/>
      <point x="509" y="752"/>
      <point x="410" y="752" type="curve" smooth="yes"/>
      <point x="279" y="752"/>
      <point x="204" y="661"/>
      <point x="176" y="521" type="curve" smooth="yes"/>
      <point x="173" y="506" type="line"/>
      <point x="78" y="506" type="line"/>
      <point x="74" y="487" type="line"/>
      <point x="169" y="487" type="line"/>
      <point x="72" y="0" type="line"/>
      <point x="93" y="0" type="line"/>
      <point x="197" y="521" type="line" smooth="yes"/>
      <point x="222" y="645"/>
      <point x="287" y="733"/>
      <point x="407" y="733" type="curve" smooth="yes"/>
      <point x="500" y="733"/>
      <point x="544" y="680"/>
      <point x="544" y="590" type="curve" smooth="yes"/>
      <point x="544" y="569"/>
      <point x="542" y="546"/>
      <point x="537" y="521" type="curve" smooth="yes"/>
      <point x="534" y="506" type="line"/>
      <point x="403" y="505"/>
      <point x="312" y="463"/>
      <point x="312" y="367" type="curve" smooth="yes"/>
      <point x="312" y="297"/>
      <point x="351" y="273"/>
      <point x="408" y="254" type="curve" smooth="yes"/>
      <point x="458" y="237" type="line" smooth="yes"/>
      <point x="513" y="218"/>
      <point x="541" y="195"/>
      <point x="541" y="139" type="curve" smooth="yes" name="hr02"/>
      <point x="541" y="55"/>
      <point x="479" y="7"/>
      <point x="386" y="7" type="curve" smooth="yes"/>
      <point x="312" y="7"/>
      <point x="257" y="36"/>
      <point x="218" y="98" type="curve"/>
      <point x="200" y="86" type="line"/>
      <point x="242" y="23"/>
      <point x="302" y="-12"/>
      <point x="386" y="-12" type="curve" smooth="yes"/>
      <point x="484" y="-12"/>
      <point x="562" y="40"/>
    </contour>
  </outline>
</glyph>
<glyph name="ae" format="1">
  <advance width="860"/>
  <unicode hex="00E6"/>
  <outline>
    <contour>
      <point x="204" y="7" type="curve" smooth="yes" name="hr00"/>
      <point x="116" y="7"/>
      <point x="68" y="42"/>
      <point x="68" y="102" type="curve" smooth="yes"/>
      <point x="68" y="112"/>
      <point x="68" y="119"/>
      <point x="73" y="143" type="curve" smooth="yes"/>
      <point x="83" y="195"/>
      <point x="129" y="228"/>
      <point x="240" y="234" type="curve" smooth="yes"/>
      <point x="420" y="243" type="line"/>
      <point x="406" y="162" type="line" smooth="yes"/>
      <point x="388" y="58"/>
      <point x="294" y="7"/>
    </contour>
    <contour>
      <point x="661" y="499" type="curve" smooth="yes"/>
      <point x="758" y="499"/>
      <point x="799" y="458"/>
      <point x="799" y="399" type="curve" smooth="yes"/>
      <point x="799" y="335"/>
      <point x="745" y="267"/>
      <point x="444" y="262" type="curve"/>
      <point x="446" y="273" type="line" smooth="yes"/>
      <point x="469" y="402"/>
      <point x="549" y="499"/>
    </contour>
    <contour>
      <point x="202" y="-12" type="curve" smooth="yes"/>
      <point x="309" y="-12"/>
      <point x="396" y="48"/>
      <point x="418" y="138" type="curve"/>
      <point x="421" y="138" type="line"/>
      <point x="434" y="42"/>
      <point x="500" y="-12"/>
      <point x="592" y="-12" type="curve" smooth="yes"/>
      <point x="676" y="-12"/>
      <point x="747" y="30"/>
      <point x="800" y="125" type="curve"/>
      <point x="781" y="132" type="line"/>
      <point x="740" y="54"/>
      <point x="674" y="7"/>
      <point x="592" y="7" type="curve" smooth="yes"/>
      <point x="489" y="7"/>
      <point x="436" y="79"/>
      <point x="436" y="190" type="curve" smooth="yes"/>
      <point x="436" y="207"/>
      <point x="439" y="225"/>
      <point x="442" y="243" type="curve"/>
      <point x="770" y="250"/>
      <point x="821" y="329"/>
      <point x="821" y="399" type="curve" smooth="yes"/>
      <point x="821" y="473"/>
      <point x="758" y="518"/>
      <point x="663" y="518" type="curve" smooth="yes"/>
      <point x="573" y="518"/>
      <point x="506" y="465"/>
      <point x="465" y="387" type="curve"/>
      <point x="462" y="387" type="line"/>
      <point x="460" y="459"/>
      <point x="417" y="518"/>
      <point x="309" y="518" type="curve" smooth="yes"/>
      <point x="203" y="518"/>
      <point x="155" y="478"/>
      <point x="115" y="411" type="curve"/>
      <point x="132" y="402" type="line"/>
      <point x="174" y="470"/>
      <point x="216" y="499"/>
      <point x="307" y="499" type="curve" smooth="yes"/>
      <point x="411" y="499"/>
      <point x="442" y="446"/>
      <point x="442" y="381" type="curve" smooth="yes"/>
      <point x="442" y="366"/>
      <point x="441" y="348"/>
      <point x="437" y="329" type="curve" smooth="yes"/>
      <point x="424" y="261" type="line"/>
      <point x="241" y="252" type="line" smooth="yes"/>
      <point x="109" y="246"/>
      <point x="47" y="203"/>
      <point x="47" y="103" type="curve" smooth="yes"/>
      <point x="47" y="29"/>
      <point x="104" y="-12"/>
    </contour>
    <contour>
      <point x="495" y="540" type="move" name="top"/>
    </contour>
  </outline>
</glyph>
<glyph name="ccedilla" format="1">
  <advance width="479"/>
  <unicode hex="00E7"/>
  <outline>
    <contour>
      <point x="301" y="518" type="curve" smooth="yes" name="hr00"/>
      <point x="146" y="518"/>
      <point x="61" y="373"/>
      <point x="61" y="186" type="curve" smooth="yes"/>
      <point x="61" y="75"/>
      <point x="112" y="-8"/>
      <point x="215" y="-12" type="curve"/>
      <point x="183" y="-84" type="line"/>
      <point x="220" y="-86" type="line" smooth="yes"/>
      <point x="259" y="-88"/>
      <point x="272" y="-103"/>
      <point x="272" y="-126" type="curve" smooth="yes"/>
      <point x="272" y="-160"/>
      <point x="242" y="-184"/>
      <point x="199" y="-184" type="curve" smooth="yes"/>
      <point x="171" y="-184"/>
      <point x="151" y="-174"/>
      <point x="138" y="-157" type="curve"/>
      <point x="124" y="-170" type="line"/>
      <point x="135" y="-187"/>
      <point x="162" y="-202"/>
      <point x="199" y="-202" type="curve" smooth="yes"/>
      <point x="256" y="-202"/>
      <point x="293" y="-167"/>
      <point x="293" y="-125" type="curve" smooth="yes"/>
      <point x="293" y="-92"/>
      <point x="272" y="-72"/>
      <point x="236" y="-72" type="curve" smooth="yes"/>
      <point x="228" y="-72"/>
      <point x="216" y="-73"/>
      <point x="207" y="-75" type="curve"/>
      <point x="205" y="-73" type="line"/>
      <point x="232" y="-12" type="line"/>
      <point x="315" y="-8"/>
      <point x="375" y="41"/>
      <point x="422" y="114" type="curve"/>
      <point x="405" y="123" type="line"/>
      <point x="359" y="53"/>
      <point x="301" y="7"/>
      <point x="223" y="7" type="curve" smooth="yes"/>
      <point x="123" y="7"/>
      <point x="81" y="87"/>
      <point x="81" y="186" type="curve" smooth="yes"/>
      <point x="81" y="211"/>
      <point x="83" y="224"/>
      <point x="87" y="248" type="curve" smooth="yes"/>
      <point x="96" y="297" type="line" smooth="yes"/>
      <point x="119" y="421"/>
      <point x="197" y="499"/>
      <point x="299" y="499" type="curve" smooth="yes"/>
      <point x="366" y="499"/>
      <point x="417" y="463"/>
      <point x="432" y="398" type="curve"/>
      <point x="451" y="403" type="line"/>
      <point x="437" y="471"/>
      <point x="380" y="518"/>
    </contour>
  </outline>
</glyph>
<glyph name="eth" format="1">
  <advance width="560"/>
  <unicode hex="00F0"/>
  <outline>
    <contour>
      <point x="469" y="738" type="line" name="hr00"/>
      <point x="462" y="752" type="line"/>
      <point x="333" y="670" type="line"/>
      <point x="296" y="700"/>
      <point x="258" y="723"/>
      <point x="222" y="740" type="curve"/>
      <point x="190" y="740" type="line"/>
      <point x="236" y="718"/>
      <point x="278" y="691"/>
      <point x="316" y="660" type="curve"/>
      <point x="199" y="586" type="line"/>
      <point x="206" y="572" type="line"/>
      <point x="328" y="649" type="line"/>
      <point x="399" y="587"/>
      <point x="449" y="509"/>
      <point x="466" y="417" type="curve"/>
      <point x="463" y="415" type="line"/>
      <point x="435" y="472"/>
      <point x="379" y="504"/>
      <point x="309" y="504" type="curve" smooth="yes"/>
      <point x="165" y="504"/>
      <point x="60" y="377"/>
      <point x="60" y="178" type="curve" smooth="yes"/>
      <point x="60" y="60"/>
      <point x="129" y="-12"/>
      <point x="239" y="-12" type="curve" smooth="yes"/>
      <point x="385" y="-12"/>
      <point x="494" y="104"/>
      <point x="494" y="328" type="curve" smooth="yes"/>
      <point x="494" y="481"/>
      <point x="426" y="588"/>
      <point x="345" y="660" type="curve"/>
    </contour>
    <contour>
      <point x="240" y="7" type="curve" smooth="yes"/>
      <point x="144" y="7"/>
      <point x="80" y="70"/>
      <point x="80" y="178" type="curve" smooth="yes"/>
      <point x="80" y="195"/>
      <point x="80" y="215"/>
      <point x="84" y="235" type="curve" smooth="yes"/>
      <point x="92" y="279" type="line" smooth="yes"/>
      <point x="116" y="410"/>
      <point x="203" y="485"/>
      <point x="312" y="485" type="curve" smooth="yes"/>
      <point x="408" y="485"/>
      <point x="472" y="422"/>
      <point x="472" y="314" type="curve" smooth="yes"/>
      <point x="472" y="297"/>
      <point x="472" y="277"/>
      <point x="468" y="257" type="curve" smooth="yes"/>
      <point x="460" y="213" type="line" smooth="yes"/>
      <point x="436" y="82"/>
      <point x="351" y="7"/>
    </contour>
  </outline>
</glyph>
<glyph name="divide" format="1">
  <advance width="600"/>
  <unicode hex="00F7"/>
  <outline>
    <contour>
      <point x="547" y="296" type="line" name="hr00"/>
      <point x="551" y="315" type="line"/>
      <point x="75" y="315" type="line"/>
      <point x="71" y="296" type="line"/>
    </contour>
    <contour>
      <point x="270" y="81" type="curve" smooth="yes"/>
      <point x="292" y="81"/>
      <point x="299" y="91"/>
      <point x="301" y="102" type="curve" smooth="yes"/>
      <point x="302" y="107"/>
      <point x="304" y="119"/>
      <point x="304" y="124" type="curve" smooth="yes"/>
      <point x="304" y="133"/>
      <point x="297" y="143"/>
      <point x="276" y="143" type="curve" smooth="yes"/>
      <point x="254" y="143"/>
      <point x="246" y="133"/>
      <point x="244" y="122" type="curve" smooth="yes"/>
      <point x="243" y="117"/>
      <point x="241" y="105"/>
      <point x="241" y="100" type="curve" smooth="yes"/>
      <point x="241" y="91"/>
      <point x="248" y="81"/>
    </contour>
    <contour>
      <point x="348" y="468" type="curve" smooth="yes"/>
      <point x="370" y="468"/>
      <point x="377" y="478"/>
      <point x="379" y="489" type="curve" smooth="yes"/>
      <point x="380" y="494"/>
      <point x="382" y="506"/>
      <point x="382" y="511" type="curve" smooth="yes"/>
      <point x="382" y="520"/>
      <point x="375" y="530"/>
      <point x="354" y="530" type="curve" smooth="yes"/>
      <point x="332" y="530"/>
      <point x="324" y="520"/>
      <point x="322" y="509" type="curve" smooth="yes"/>
      <point x="321" y="504"/>
      <point x="319" y="492"/>
      <point x="319" y="487" type="curve" smooth="yes"/>
      <point x="319" y="478"/>
      <point x="326" y="468"/>
    </contour>
  </outline>
</glyph>
<glyph name="oslash" format="1">
  <advance width="534"/>
  <unicode hex="00F8"/>
  <outline>
    <contour>
      <point x="225" y="-12" type="curve" smooth="yes" name="hr00"/>
      <point x="390" y="-12"/>
      <point x="475" y="150"/>
      <point x="475" y="337" type="curve" smooth="yes"/>
      <point x="475" y="379"/>
      <point x="464" y="418"/>
      <point x="444" y="449" type="curve"/>
      <point x="505" y="521" type="line"/>
      <point x="491" y="532" type="line"/>
      <point x="433" y="464" type="line"/>
      <point x="405" y="498"/>
      <point x="363" y="518"/>
      <point x="309" y="518" type="curve" smooth="yes"/>
      <point x="144" y="518"/>
      <point x="59" y="356"/>
      <point x="59" y="169" type="curve" smooth="yes"/>
      <point x="59" y="127"/>
      <point x="70" y="88"/>
      <point x="90" y="57" type="curve"/>
      <point x="29" y="-15" type="line"/>
      <point x="43" y="-26" type="line"/>
      <point x="101" y="42" type="line"/>
      <point x="129" y="9"/>
      <point x="170" y="-12"/>
    </contour>
    <contour>
      <point x="80" y="169" type="curve" smooth="yes"/>
      <point x="80" y="195"/>
      <point x="81" y="221"/>
      <point x="85" y="241" type="curve" smooth="yes"/>
      <point x="93" y="281" type="line" smooth="yes"/>
      <point x="120" y="416"/>
      <point x="195" y="499"/>
      <point x="307" y="499" type="curve" smooth="yes"/>
      <point x="359" y="499"/>
      <point x="397" y="479"/>
      <point x="421" y="449" type="curve"/>
      <point x="103" y="73" type="line"/>
      <point x="87" y="100"/>
      <point x="80" y="133"/>
    </contour>
    <contour>
      <point x="227" y="7" type="curve" smooth="yes"/>
      <point x="175" y="7"/>
      <point x="137" y="26"/>
      <point x="113" y="57" type="curve"/>
      <point x="431" y="433" type="line"/>
      <point x="446" y="406"/>
      <point x="454" y="372"/>
      <point x="454" y="337" type="curve" smooth="yes"/>
      <point x="454" y="311"/>
      <point x="453" y="285"/>
      <point x="449" y="265" type="curve" smooth="yes"/>
      <point x="441" y="225" type="line" smooth="yes"/>
      <point x="414" y="90"/>
      <point x="339" y="7"/>
    </contour>
    <contour>
      <point x="316" y="540" type="move" name="top"/>
    </contour>
  </outline>
</glyph>
<glyph name="thorn" format="1">
  <advance width="560"/>
  <unicode hex="00FE"/>
  <outline>
    <contour>
      <point x="13" y="-200" type="line" name="hr00"/>
      <point x="34" y="-200" type="line"/>
      <point x="92" y="93" type="line"/>
      <point x="95" y="93" type="line"/>
      <point x="113" y="31"/>
      <point x="166" y="-12"/>
      <point x="251" y="-12" type="curve" smooth="yes"/>
      <point x="411" y="-12"/>
      <point x="500" y="146"/>
      <point x="500" y="330" type="curve" smooth="yes"/>
      <point x="500" y="437"/>
      <point x="442" y="518"/>
      <point x="337" y="518" type="curve" smooth="yes"/>
      <point x="252" y="518"/>
      <point x="198" y="469"/>
      <point x="156" y="395" type="curve"/>
      <point x="153" y="395" type="line"/>
      <point x="222" y="740" type="line"/>
      <point x="201" y="740" type="line"/>
    </contour>
    <contour>
      <point x="251" y="7" type="curve" smooth="yes"/>
      <point x="132" y="7"/>
      <point x="93" y="93"/>
      <point x="106" y="160" type="curve" smooth="yes"/>
      <point x="134" y="302" type="line" smooth="yes"/>
      <point x="148" y="372"/>
      <point x="188" y="427"/>
      <point x="227" y="459" type="curve" smooth="yes"/>
      <point x="262" y="488"/>
      <point x="295" y="499"/>
      <point x="337" y="499" type="curve" smooth="yes"/>
      <point x="435" y="499"/>
      <point x="479" y="423"/>
      <point x="479" y="330" type="curve" smooth="yes"/>
      <point x="479" y="302"/>
      <point x="477" y="281"/>
      <point x="473" y="259" type="curve" smooth="yes"/>
      <point x="466" y="224" type="line" smooth="yes"/>
      <point x="440" y="92"/>
      <point x="366" y="7"/>
    </contour>
  </outline>
</glyph>
<glyph name="Aogonek" format="1">
  <advance width="594"/>
  <unicode hex="0104"/>
  <outline>
    <contour>
      <point x="-12" y="0" type="line" name="hr00"/>
      <point x="12" y="0" type="line"/>
      <point x="134" y="234" type="line"/>
      <point x="452" y="234" type="line"/>
      <point x="496" y="0" type="line"/>
      <point x="377" y="-57"/>
      <point x="350" y="-99"/>
      <point x="350" y="-136" type="curve" smooth="yes"/>
      <point x="350" y="-181"/>
      <point x="381" y="-202"/>
      <point x="422" y="-202" type="curve" smooth="yes"/>
      <point x="456" y="-202"/>
      <point x="484" y="-188"/>
      <point x="500" y="-170" type="curve"/>
      <point x="487" y="-159" type="line"/>
      <point x="475" y="-171"/>
      <point x="454" y="-184"/>
      <point x="422" y="-184" type="curve" smooth="yes"/>
      <point x="393" y="-184"/>
      <point x="371" y="-168"/>
      <point x="371" y="-136" type="curve" smooth="yes"/>
      <point x="371" y="-85"/>
      <point x="416" y="-58"/>
      <point x="519" y="0" type="curve"/>
      <point x="384" y="698" type="line"/>
      <point x="354" y="698" type="line"/>
    </contour>
    <contour>
      <point x="448" y="253" type="line"/>
      <point x="144" y="253" type="line"/>
      <point x="364" y="673" type="line"/>
      <point x="367" y="673" type="line"/>
    </contour>
  </outline>
</glyph>
<glyph name="aogonek" format="1">
  <advance width="567"/>
  <unicode hex="0105"/>
  <outline>
    <contour>
      <point x="495" y="19" type="line"/>
      <point x="410" y="19" type="line"/>
      <point x="507" y="506" type="line"/>
      <point x="486" y="506" type="line"/>
      <point x="468" y="413" type="line"/>
      <point x="465" y="413" type="line"/>
      <point x="447" y="475"/>
      <point x="394" y="518"/>
      <point x="309" y="518" type="curve" smooth="yes" name="hr01"/>
      <point x="149" y="518"/>
      <point x="60" y="360"/>
      <point x="60" y="176" type="curve" smooth="yes"/>
      <point x="60" y="69"/>
      <point x="118" y="-12"/>
      <point x="223" y="-12" type="curve" smooth="yes"/>
      <point x="308" y="-12"/>
      <point x="362" y="37"/>
      <point x="404" y="111" type="curve"/>
      <point x="407" y="111" type="line"/>
      <point x="392" y="35" type="line" smooth="yes"/>
      <point x="391" y="29"/>
      <point x="390" y="25"/>
      <point x="390" y="19" type="curve" smooth="yes" name="hr02"/>
      <point x="390" y="6"/>
      <point x="398" y="0"/>
      <point x="413" y="0" type="curve"/>
      <point x="460" y="0" type="line"/>
      <point x="461" y="-3" type="line"/>
      <point x="348" y="-58"/>
      <point x="322" y="-100"/>
      <point x="322" y="-136" type="curve" smooth="yes"/>
      <point x="322" y="-181"/>
      <point x="353" y="-202"/>
      <point x="394" y="-202" type="curve" smooth="yes"/>
      <point x="428" y="-202"/>
      <point x="456" y="-188"/>
      <point x="472" y="-170" type="curve"/>
      <point x="459" y="-159" type="line"/>
      <point x="447" y="-171"/>
      <point x="426" y="-184"/>
      <point x="394" y="-184" type="curve" smooth="yes"/>
      <point x="365" y="-184"/>
      <point x="343" y="-168"/>
      <point x="343" y="-136" type="curve" smooth="yes"/>
      <point x="343" y="-85"/>
      <point x="388" y="-58"/>
      <point x="491" y="0" type="curve"/>
    </contour>
    <contour>
      <point x="223" y="7" type="curve" smooth="yes" name="hr03"/>
      <point x="125" y="7"/>
      <point x="81" y="83"/>
      <point x="81" y="176" type="curve" smooth="yes"/>
      <point x="81" y="204"/>
      <point x="83" y="225"/>
      <point x="87" y="247" type="curve" smooth="yes"/>
      <point x="94" y="282" type="line" smooth="yes"/>
      <point x="120" y="414"/>
      <point x="194" y="499"/>
      <point x="309" y="499" type="curve" smooth="yes"/>
      <point x="428" y="499"/>
      <point x="467" y="413"/>
      <point x="454" y="346" type="curve" smooth="yes"/>
      <point x="426" y="204" type="line" smooth="yes"/>
      <point x="412" y="134"/>
      <point x="372" y="79"/>
      <point x="333" y="47" type="curve" smooth="yes"/>
      <point x="298" y="18"/>
      <point x="265" y="7"/>
    </contour>
  </outline>
</glyph>
<glyph name="Dcroat" format="1">
  <advance width="651"/>
  <unicode hex="0110"/>
  <outline>
    <contour>
      <point x="58" y="0" type="line" name="hr00"/>
      <point x="285" y="0" type="line" smooth="yes"/>
      <point x="513" y="0"/>
      <point x="613" y="241"/>
      <point x="613" y="468" type="curve" smooth="yes"/>
      <point x="613" y="612"/>
      <point x="533" y="698"/>
      <point x="381" y="698" type="curve" smooth="yes"/>
      <point x="196" y="698" type="line"/>
      <point x="133" y="378" type="line"/>
      <point x="45" y="378" type="line"/>
      <point x="41" y="359" type="line"/>
      <point x="129" y="359" type="line"/>
    </contour>
    <contour>
      <point x="84" y="20" type="line"/>
      <point x="151" y="359" type="line"/>
      <point x="318" y="359" type="line"/>
      <point x="322" y="378" type="line"/>
      <point x="155" y="378" type="line"/>
      <point x="214" y="678" type="line"/>
      <point x="378" y="678" type="line" smooth="yes"/>
      <point x="522" y="678"/>
      <point x="591" y="598"/>
      <point x="591" y="468" type="curve" smooth="yes"/>
      <point x="591" y="440"/>
      <point x="589" y="400"/>
      <point x="581" y="358" type="curve" smooth="yes"/>
      <point x="570" y="303" type="line" smooth="yes"/>
      <point x="539" y="150"/>
      <point x="443" y="20"/>
      <point x="285" y="20" type="curve" smooth="yes"/>
    </contour>
  </outline>
</glyph>
<glyph name="Eogonek" format="1">
  <advance width="553"/>
  <unicode hex="0118"/>
  <outline>
    <contour>
      <point x="54" y="0" type="line" name="hr00"/>
      <point x="401" y="0" type="line"/>
      <point x="402" y="-3" type="line"/>
      <point x="289" y="-58"/>
      <point x="263" y="-100"/>
      <point x="263" y="-136" type="curve" smooth="yes"/>
      <point x="263" y="-181"/>
      <point x="294" y="-202"/>
      <point x="335" y="-202" type="curve" smooth="yes"/>
      <point x="369" y="-202"/>
      <point x="397" y="-188"/>
      <point x="413" y="-170" type="curve"/>
      <point x="400" y="-159" type="line"/>
      <point x="388" y="-171"/>
      <point x="367" y="-184"/>
      <point x="335" y="-184" type="curve" smooth="yes"/>
      <point x="306" y="-184"/>
      <point x="284" y="-168"/>
      <point x="284" y="-136" type="curve" smooth="yes"/>
      <point x="284" y="-85"/>
      <point x="329" y="-58"/>
      <point x="432" y="0" type="curve"/>
      <point x="436" y="20" type="line"/>
      <point x="80" y="20" type="line"/>
      <point x="145" y="344" type="line"/>
      <point x="489" y="344" type="line"/>
      <point x="493" y="364" type="line"/>
      <point x="149" y="364" type="line"/>
      <point x="212" y="678" type="line"/>
      <point x="568" y="678" type="line"/>
      <point x="572" y="698" type="line"/>
      <point x="194" y="698" type="line"/>
    </contour>
  </outline>
</glyph>
<glyph name="eogonek" format="1">
  <advance width="505"/>
  <unicode hex="0119"/>
  <outline>
    <contour>
      <point x="249" y="-202" type="curve" smooth="yes" name="hr00"/>
      <point x="283" y="-202"/>
      <point x="311" y="-188"/>
      <point x="327" y="-170" type="curve"/>
      <point x="314" y="-159" type="line"/>
      <point x="302" y="-171"/>
      <point x="281" y="-184"/>
      <point x="249" y="-184" type="curve" smooth="yes"/>
      <point x="220" y="-184"/>
      <point x="198" y="-168"/>
      <point x="198" y="-136" type="curve" smooth="yes"/>
      <point x="198" y="-80"/>
      <point x="239" y="-46"/>
      <point x="335" y="10" type="curve" smooth="yes"/>
      <point x="376" y="34"/>
      <point x="414" y="69"/>
      <point x="445" y="124" type="curve"/>
      <point x="426" y="132" type="line"/>
      <point x="385" y="54"/>
      <point x="319" y="7"/>
      <point x="237" y="7" type="curve" smooth="yes"/>
      <point x="134" y="7"/>
      <point x="82" y="61"/>
      <point x="82" y="189" type="curve" smooth="yes"/>
      <point x="82" y="200"/>
      <point x="84" y="223"/>
      <point x="85" y="233" type="curve"/>
      <point x="424" y="240"/>
      <point x="466" y="332"/>
      <point x="466" y="395" type="curve" smooth="yes"/>
      <point x="466" y="471"/>
      <point x="403" y="518"/>
      <point x="308" y="518" type="curve" smooth="yes"/>
      <point x="162" y="518"/>
      <point x="61" y="371"/>
      <point x="61" y="187" type="curve" smooth="yes"/>
      <point x="61" y="51"/>
      <point x="124" y="-12"/>
      <point x="237" y="-12" type="curve" smooth="yes"/>
      <point x="254" y="-12"/>
      <point x="269" y="-10"/>
      <point x="285" y="-6" type="curve"/>
      <point x="285" y="-9" type="line"/>
      <point x="197" y="-53"/>
      <point x="177" y="-102"/>
      <point x="177" y="-136" type="curve" smooth="yes"/>
      <point x="177" y="-181"/>
      <point x="208" y="-202"/>
    </contour>
    <contour>
      <point x="306" y="499" type="curve" smooth="yes"/>
      <point x="403" y="499"/>
      <point x="444" y="456"/>
      <point x="444" y="395" type="curve" smooth="yes"/>
      <point x="444" y="328"/>
      <point x="387" y="257"/>
      <point x="87" y="252" type="curve"/>
      <point x="90" y="269" type="line" smooth="yes"/>
      <point x="113" y="402"/>
      <point x="194" y="499"/>
    </contour>
  </outline>
</glyph>
<glyph name="Hbar" format="1">
  <advance width="686"/>
  <unicode hex="0126"/>
  <outline>
    <contour>
      <point x="505" y="0" type="line" name="hr00"/>
      <point x="527" y="0" type="line"/>
      <point x="635" y="537" type="line"/>
      <point x="718" y="537" type="line"/>
      <point x="722" y="556" type="line"/>
      <point x="639" y="556" type="line"/>
      <point x="667" y="698" type="line"/>
      <point x="645" y="698" type="line"/>
      <point x="617" y="556" type="line"/>
      <point x="191" y="556" type="line"/>
      <point x="219" y="698" type="line"/>
      <point x="197" y="698" type="line"/>
      <point x="169" y="556" type="line"/>
      <point x="86" y="556" type="line"/>
      <point x="82" y="537" type="line"/>
      <point x="165" y="537" type="line"/>
      <point x="57" y="0" type="line"/>
      <point x="79" y="0" type="line"/>
      <point x="148" y="344" type="line"/>
      <point x="574" y="344" type="line"/>
    </contour>
    <contour>
      <point x="152" y="364" type="line"/>
      <point x="187" y="537" type="line"/>
      <point x="613" y="537" type="line"/>
      <point x="578" y="364" type="line"/>
    </contour>
  </outline>
</glyph>
<glyph name="hbar" format="1">
  <advance width="552"/>
  <unicode hex="0127"/>
  <outline>
    <contour>
      <point x="57" y="0" type="line" name="hr00"/>
      <point x="78" y="0" type="line"/>
      <point x="140" y="312" type="line"/>
      <point x="152" y="372"/>
      <point x="181" y="411"/>
      <point x="203" y="437" type="curve" smooth="yes"/>
      <point x="243" y="484"/>
      <point x="291" y="499"/>
      <point x="336" y="499" type="curve" smooth="yes"/>
      <point x="411" y="499"/>
      <point x="450" y="460"/>
      <point x="450" y="383" type="curve" smooth="yes"/>
      <point x="450" y="370"/>
      <point x="447" y="342"/>
      <point x="443" y="320" type="curve" smooth="yes"/>
      <point x="386" y="35" type="line" smooth="yes"/>
      <point x="385" y="29"/>
      <point x="384" y="25"/>
      <point x="384" y="19" type="curve" smooth="yes"/>
      <point x="384" y="6"/>
      <point x="392" y="0"/>
      <point x="407" y="0" type="curve" smooth="yes"/>
      <point x="485" y="0" type="line"/>
      <point x="489" y="19" type="line"/>
      <point x="404" y="19" type="line"/>
      <point x="464" y="321" type="line" smooth="yes"/>
      <point x="468" y="341"/>
      <point x="471" y="366"/>
      <point x="471" y="386" type="curve" smooth="yes"/>
      <point x="471" y="469"/>
      <point x="424" y="518"/>
      <point x="339" y="518" type="curve" smooth="yes"/>
      <point x="256" y="518"/>
      <point x="201" y="477"/>
      <point x="161" y="401" type="curve"/>
      <point x="158" y="401" type="line"/>
      <point x="203" y="629" type="line"/>
      <point x="365" y="629" type="line"/>
      <point x="369" y="647" type="line"/>
      <point x="207" y="647" type="line"/>
      <point x="225" y="740" type="line"/>
      <point x="204" y="740" type="line"/>
      <point x="186" y="647" type="line"/>
      <point x="119" y="647" type="line"/>
      <point x="115" y="629" type="line"/>
      <point x="182" y="629" type="line"/>
    </contour>
  </outline>
</glyph>
<glyph name="Iogonek" format="1">
  <advance width="368"/>
  <unicode hex="012E"/>
  <outline>
    <contour>
      <point x="15" y="0" type="line" name="hr00"/>
      <point x="220" y="0" type="line"/>
      <point x="221" y="-3" type="line"/>
      <point x="108" y="-58"/>
      <point x="82" y="-100"/>
      <point x="82" y="-136" type="curve" smooth="yes"/>
      <point x="82" y="-181"/>
      <point x="113" y="-202"/>
      <point x="154" y="-202" type="curve" smooth="yes"/>
      <point x="188" y="-202"/>
      <point x="216" y="-188"/>
      <point x="232" y="-170" type="curve"/>
      <point x="219" y="-159" type="line"/>
      <point x="207" y="-171"/>
      <point x="186" y="-184"/>
      <point x="154" y="-184" type="curve" smooth="yes"/>
      <point x="125" y="-184"/>
      <point x="103" y="-168"/>
      <point x="103" y="-136" type="curve" smooth="yes"/>
      <point x="103" y="-85"/>
      <point x="148" y="-58"/>
      <point x="251" y="0" type="curve"/>
      <point x="255" y="19" type="line"/>
      <point x="148" y="19" type="line"/>
      <point x="280" y="679" type="line"/>
      <point x="387" y="679" type="line"/>
      <point x="391" y="698" type="line"/>
      <point x="155" y="698" type="line"/>
      <point x="151" y="679" type="line"/>
      <point x="258" y="679" type="line"/>
      <point x="126" y="19" type="line"/>
      <point x="19" y="19" type="line"/>
    </contour>
  </outline>
</glyph>
<glyph name="iogonek" format="1">
  <advance width="235"/>
  <unicode hex="012F"/>
  <outline>
    <contour>
      <point x="163" y="19" type="line"/>
      <point x="78" y="19" type="line"/>
      <point x="176" y="506" type="line"/>
      <point x="155" y="506" type="line"/>
      <point x="60" y="35" type="line" smooth="yes"/>
      <point x="59" y="29"/>
      <point x="58" y="25"/>
      <point x="58" y="19" type="curve" smooth="yes"/>
      <point x="58" y="6"/>
      <point x="66" y="0"/>
      <point x="81" y="0" type="curve" smooth="yes"/>
      <point x="128" y="0" type="line"/>
      <point x="129" y="-3" type="line"/>
      <point x="16" y="-58"/>
      <point x="-10" y="-100"/>
      <point x="-10" y="-136" type="curve" smooth="yes"/>
      <point x="-10" y="-181"/>
      <point x="21" y="-202"/>
      <point x="62" y="-202" type="curve" smooth="yes"/>
      <point x="96" y="-202"/>
      <point x="124" y="-188"/>
      <point x="140" y="-170" type="curve"/>
      <point x="127" y="-159" type="line"/>
      <point x="115" y="-171"/>
      <point x="94" y="-184"/>
      <point x="62" y="-184" type="curve" smooth="yes"/>
      <point x="33" y="-184"/>
      <point x="11" y="-168"/>
      <point x="11" y="-136" type="curve" smooth="yes" name="hr01"/>
      <point x="11" y="-85"/>
      <point x="56" y="-58"/>
      <point x="159" y="0" type="curve"/>
    </contour>
    <contour>
      <point x="200" y="673" type="curve" smooth="yes"/>
      <point x="217" y="673"/>
      <point x="224" y="680"/>
      <point x="227" y="692" type="curve" smooth="yes"/>
      <point x="228" y="698"/>
      <point x="229" y="702"/>
      <point x="229" y="706" type="curve" smooth="yes"/>
      <point x="229" y="714"/>
      <point x="224" y="722"/>
      <point x="209" y="722" type="curve" smooth="yes"/>
      <point x="192" y="722"/>
      <point x="185" y="715"/>
      <point x="182" y="703" type="curve" smooth="yes"/>
      <point x="181" y="697"/>
      <point x="180" y="693"/>
      <point x="180" y="689" type="curve" smooth="yes"/>
      <point x="180" y="681"/>
      <point x="185" y="673"/>
    </contour>
  </outline>
</glyph>
<glyph name="dotlessi" format="1">
  <advance width="235"/>
  <unicode hex="0131"/>
  <outline>
    <contour>
      <point x="159" y="0" type="line" name="hr00"/>
      <point x="163" y="19" type="line"/>
      <point x="78" y="19" type="line"/>
      <point x="176" y="506" type="line"/>
      <point x="155" y="506" type="line"/>
      <point x="60" y="35" type="line" smooth="yes"/>
      <point x="59" y="29"/>
      <point x="58" y="25"/>
      <point x="58" y="19" type="curve" smooth="yes"/>
      <point x="58" y="6"/>
      <point x="66" y="0"/>
      <point x="81" y="0" type="curve" smooth="yes"/>
    </contour>
    <contour>
      <point x="108" y="0" type="move" name="bottom"/>
    </contour>
    <contour>
      <point x="159" y="0" type="move" name="bottomright"/>
    </contour>
    <contour>
      <point x="172" y="540" type="move" name="top"/>
    </contour>
  </outline>
</glyph>
<glyph name="IJ" format="1">
  <advance width="624"/>
  <unicode hex="0132"/>
  <outline>
    <contour>
      <point x="398" y="698" type="line" name="hr00"/>
      <point x="394" y="678" type="line"/>
      <point x="590" y="678" type="line"/>
      <point x="495" y="202" type="line" smooth="yes"/>
      <point x="470" y="76"/>
      <point x="388" y="7"/>
      <point x="267" y="7" type="curve" smooth="yes"/>
      <point x="168" y="7"/>
      <point x="98" y="49"/>
      <point x="89" y="139" type="curve"/>
      <point x="69" y="134" type="line"/>
      <point x="78" y="46"/>
      <point x="147" y="-12"/>
      <point x="264" y="-12" type="curve" smooth="yes"/>
      <point x="400" y="-12"/>
      <point x="489" y="63"/>
      <point x="517" y="202" type="curve" smooth="yes"/>
      <point x="616" y="698" type="line"/>
    </contour>
    <contour>
      <point x="103" y="290" type="line"/>
      <point x="125" y="290" type="line"/>
      <point x="207" y="698" type="line"/>
      <point x="185" y="698" type="line"/>
    </contour>
  </outline>
</glyph>
<glyph name="kgreenlandic" format="1">
  <advance width="471"/>
  <unicode hex="0138"/>
  <outline>
    <contour>
      <point x="53" y="0" type="line" name="hr00"/>
      <point x="74" y="0" type="line"/>
      <point x="110" y="178" type="line"/>
      <point x="218" y="268" type="line"/>
      <point x="345" y="21" type="line" smooth="yes"/>
      <point x="353" y="6"/>
      <point x="359" y="0"/>
      <point x="374" y="0" type="curve" smooth="yes"/>
      <point x="423" y="0" type="line"/>
      <point x="427" y="19" type="line"/>
      <point x="370" y="19" type="line"/>
      <point x="235" y="281" type="line"/>
      <point x="487" y="506" type="line"/>
      <point x="460" y="506" type="line"/>
      <point x="232" y="304" type="line"/>
      <point x="120" y="210" type="line"/>
      <point x="116" y="210" type="line"/>
      <point x="175" y="506" type="line"/>
      <point x="154" y="506" type="line"/>
    </contour>
  </outline>
</glyph>
<glyph name="Lslash" format="1">
  <advance width="471"/>
  <unicode hex="0141"/>
  <outline>
    <contour>
      <point x="408" y="20" type="line" name="hr00"/>
      <point x="83" y="20" type="line"/>
      <point x="141" y="310" type="line"/>
      <point x="346" y="374" type="line"/>
      <point x="347" y="394" type="line"/>
      <point x="145" y="331" type="line"/>
      <point x="219" y="698" type="line"/>
      <point x="197" y="698" type="line"/>
      <point x="122" y="324" type="line"/>
      <point x="21" y="292" type="line"/>
      <point x="20" y="272" type="line"/>
      <point x="118" y="303" type="line"/>
      <point x="57" y="0" type="line"/>
      <point x="404" y="0" type="line"/>
    </contour>
  </outline>
</glyph>
<glyph name="lslash" format="1">
  <advance width="242"/>
  <unicode hex="0142"/>
  <outline>
    <contour>
      <point x="167" y="19" type="line" name="hr00"/>
      <point x="82" y="19" type="line"/>
      <point x="150" y="358" type="line"/>
      <point x="243" y="388" type="line"/>
      <point x="243" y="408" type="line"/>
      <point x="154" y="379" type="line"/>
      <point x="226" y="740" type="line"/>
      <point x="205" y="740" type="line"/>
      <point x="131" y="372" type="line"/>
      <point x="54" y="347" type="line"/>
      <point x="54" y="327" type="line"/>
      <point x="127" y="351" type="line"/>
      <point x="64" y="35" type="line" smooth="yes"/>
      <point x="63" y="29"/>
      <point x="62" y="25"/>
      <point x="62" y="19" type="curve" smooth="yes"/>
      <point x="62" y="6"/>
      <point x="70" y="0"/>
      <point x="85" y="0" type="curve" smooth="yes"/>
      <point x="163" y="0" type="line"/>
    </contour>
  </outline>
</glyph>
<glyph name="Eng" format="1">
  <advance width="680"/>
  <unicode hex="014A"/>
  <outline>
    <contour>
      <point x="75" y="0" type="line" name="hr00"/>
      <point x="209" y="671" type="line"/>
      <point x="212" y="671" type="line"/>
      <point x="494" y="0" type="line"/>
      <point x="503" y="0" type="line"/>
      <point x="467" y="-181" type="line"/>
      <point x="382" y="-181" type="line"/>
      <point x="378" y="-200" type="line"/>
      <point x="455" y="-200" type="line" smooth="yes"/>
      <point x="475" y="-200"/>
      <point x="486" y="-191"/>
      <point x="490" y="-171" type="curve" smooth="yes"/>
      <point x="664" y="698" type="line"/>
      <point x="643" y="698" type="line"/>
      <point x="509" y="27" type="line"/>
      <point x="506" y="27" type="line"/>
      <point x="224" y="698" type="line"/>
      <point x="194" y="698" type="line"/>
      <point x="54" y="0" type="line"/>
    </contour>
  </outline>
</glyph>
<glyph name="eng" format="1">
  <advance width="548"/>
  <unicode hex="014B"/>
  <outline>
    <contour>
      <point x="254" y="-181" type="line"/>
      <point x="250" y="-200" type="line"/>
      <point x="320" y="-200" type="line" smooth="yes"/>
      <point x="348" y="-200"/>
      <point x="358" y="-193"/>
      <point x="363" y="-167" type="curve" smooth="yes"/>
      <point x="460" y="321" type="line" smooth="yes"/>
      <point x="464" y="341"/>
      <point x="467" y="366"/>
      <point x="467" y="386" type="curve" smooth="yes"/>
      <point x="467" y="469"/>
      <point x="420" y="518"/>
      <point x="335" y="518" type="curve" smooth="yes"/>
      <point x="252" y="518"/>
      <point x="197" y="477"/>
      <point x="157" y="401" type="curve"/>
      <point x="154" y="401" type="line"/>
      <point x="175" y="506" type="line" name="hr01"/>
      <point x="154" y="506" type="line"/>
      <point x="53" y="0" type="line"/>
      <point x="74" y="0" type="line"/>
      <point x="136" y="312" type="line" smooth="yes"/>
      <point x="148" y="372"/>
      <point x="177" y="411"/>
      <point x="199" y="437" type="curve" smooth="yes"/>
      <point x="239" y="484"/>
      <point x="287" y="499"/>
      <point x="332" y="499" type="curve" smooth="yes" name="hr02"/>
      <point x="407" y="499"/>
      <point x="446" y="460"/>
      <point x="446" y="383" type="curve" smooth="yes"/>
      <point x="446" y="370"/>
      <point x="443" y="342"/>
      <point x="439" y="320" type="curve" smooth="yes"/>
      <point x="339" y="-181" type="line"/>
    </contour>
  </outline>
</glyph>
<glyph name="OE" format="1">
  <advance width="928"/>
  <unicode hex="0152"/>
  <outline>
    <contour>
      <point x="807" y="0" type="line"/>
      <point x="811" y="20" type="line"/>
      <point x="455" y="20" type="line"/>
      <point x="520" y="344" type="line"/>
      <point x="864" y="344" type="line"/>
      <point x="868" y="364" type="line"/>
      <point x="524" y="364" type="line"/>
      <point x="587" y="678" type="line"/>
      <point x="943" y="678" type="line"/>
      <point x="947" y="698" type="line"/>
      <point x="569" y="698" type="line"/>
      <point x="533" y="705"/>
      <point x="474" y="710"/>
      <point x="426" y="710" type="curve" smooth="yes" name="hr01"/>
      <point x="100" y="710"/>
      <point x="69" y="321"/>
      <point x="69" y="217" type="curve" smooth="yes"/>
      <point x="69" y="64"/>
      <point x="167" y="-12"/>
      <point x="312" y="-12" type="curve" smooth="yes"/>
      <point x="347" y="-12"/>
      <point x="398" y="-10"/>
      <point x="432" y="0" type="curve" name="hr02"/>
    </contour>
    <contour>
      <point x="312" y="8" type="curve" smooth="yes" name="hr03"/>
      <point x="172" y="8"/>
      <point x="91" y="82"/>
      <point x="91" y="217" type="curve" smooth="yes"/>
      <point x="91" y="249"/>
      <point x="95" y="294"/>
      <point x="104" y="341" type="curve" smooth="yes"/>
      <point x="116" y="400" type="line" smooth="yes"/>
      <point x="150" y="566"/>
      <point x="256" y="690"/>
      <point x="424" y="690" type="curve" smooth="yes"/>
      <point x="476" y="690"/>
      <point x="534" y="684"/>
      <point x="565" y="677" type="curve"/>
      <point x="433" y="22" type="line"/>
      <point x="398" y="8"/>
      <point x="346" y="8"/>
    </contour>
  </outline>
</glyph>
<glyph name="oe" format="1">
  <advance width="884"/>
  <unicode hex="0153"/>
  <outline>
    <contour>
      <point x="227" y="7" type="curve" smooth="yes" name="hr00"/>
      <point x="125" y="7"/>
      <point x="80" y="81"/>
      <point x="80" y="169" type="curve" smooth="yes"/>
      <point x="80" y="195"/>
      <point x="81" y="221"/>
      <point x="85" y="241" type="curve" smooth="yes"/>
      <point x="93" y="281" type="line" smooth="yes"/>
      <point x="120" y="416"/>
      <point x="195" y="499"/>
      <point x="307" y="499" type="curve" smooth="yes"/>
      <point x="409" y="499"/>
      <point x="454" y="425"/>
      <point x="454" y="337" type="curve" smooth="yes"/>
      <point x="454" y="311"/>
      <point x="453" y="285"/>
      <point x="449" y="265" type="curve" smooth="yes"/>
      <point x="441" y="225" type="line" smooth="yes"/>
      <point x="414" y="90"/>
      <point x="339" y="7"/>
    </contour>
    <contour>
      <point x="686" y="499" type="curve" smooth="yes"/>
      <point x="783" y="499"/>
      <point x="824" y="456"/>
      <point x="824" y="395" type="curve" smooth="yes"/>
      <point x="824" y="328"/>
      <point x="767" y="257"/>
      <point x="467" y="252" type="curve"/>
      <point x="470" y="269" type="line" smooth="yes"/>
      <point x="493" y="402"/>
      <point x="574" y="499"/>
    </contour>
    <contour>
      <point x="617" y="-12" type="curve" smooth="yes"/>
      <point x="701" y="-12"/>
      <point x="772" y="29"/>
      <point x="825" y="124" type="curve"/>
      <point x="806" y="132" type="line"/>
      <point x="765" y="54"/>
      <point x="699" y="7"/>
      <point x="617" y="7" type="curve" smooth="yes"/>
      <point x="517" y="7"/>
      <point x="462" y="65"/>
      <point x="462" y="193" type="curve" smooth="yes"/>
      <point x="462" y="203"/>
      <point x="464" y="224"/>
      <point x="465" y="233" type="curve"/>
      <point x="804" y="240"/>
      <point x="846" y="333"/>
      <point x="846" y="395" type="curve" smooth="yes"/>
      <point x="846" y="471"/>
      <point x="783" y="518"/>
      <point x="688" y="518" type="curve" smooth="yes"/>
      <point x="583" y="518"/>
      <point x="511" y="442"/>
      <point x="476" y="358" type="curve"/>
      <point x="473" y="358" type="line"/>
      <point x="465" y="449"/>
      <point x="407" y="518"/>
      <point x="309" y="518" type="curve" smooth="yes"/>
      <point x="144" y="518"/>
      <point x="59" y="356"/>
      <point x="59" y="169" type="curve" smooth="yes"/>
      <point x="59" y="69"/>
      <point x="118" y="-12"/>
      <point x="225" y="-12" type="curve" smooth="yes"/>
      <point x="329" y="-12"/>
      <point x="401" y="51"/>
      <point x="441" y="157" type="curve"/>
      <point x="444" y="157" type="line"/>
      <point x="454" y="46"/>
      <point x="510" y="-12"/>
    </contour>
  </outline>
</glyph>
<glyph name="Scedilla" format="1">
  <advance width="536"/>
  <unicode hex="015E"/>
  <outline>
    <contour>
      <point x="195" y="-202" type="curve" smooth="yes" name="hr00"/>
      <point x="252" y="-202"/>
      <point x="289" y="-167"/>
      <point x="289" y="-125" type="curve" smooth="yes"/>
      <point x="289" y="-92"/>
      <point x="268" y="-72"/>
      <point x="232" y="-72" type="curve" smooth="yes"/>
      <point x="224" y="-72"/>
      <point x="212" y="-73"/>
      <point x="203" y="-75" type="curve"/>
      <point x="201" y="-73" type="line"/>
      <point x="228" y="-12" type="line"/>
      <point x="235" y="-12" type="line" smooth="yes"/>
      <point x="396" y="-12"/>
      <point x="466" y="86"/>
      <point x="466" y="204" type="curve" smooth="yes"/>
      <point x="466" y="283"/>
      <point x="421" y="332"/>
      <point x="327" y="357" type="curve" smooth="yes"/>
      <point x="244" y="379" type="line" smooth="yes"/>
      <point x="163" y="400"/>
      <point x="129" y="440"/>
      <point x="129" y="513" type="curve" smooth="yes"/>
      <point x="129" y="608"/>
      <point x="189" y="690"/>
      <point x="323" y="690" type="curve" smooth="yes"/>
      <point x="422" y="690"/>
      <point x="474" y="666"/>
      <point x="510" y="601" type="curve"/>
      <point x="528" y="612" type="line"/>
      <point x="494" y="675"/>
      <point x="438" y="710"/>
      <point x="324" y="710" type="curve" smooth="yes"/>
      <point x="178" y="710"/>
      <point x="107" y="620"/>
      <point x="107" y="513" type="curve" smooth="yes"/>
      <point x="107" y="433"/>
      <point x="146" y="382"/>
      <point x="236" y="359" type="curve" smooth="yes"/>
      <point x="322" y="337" type="line" smooth="yes"/>
      <point x="407" y="315"/>
      <point x="443" y="276"/>
      <point x="443" y="204" type="curve" smooth="yes"/>
      <point x="443" y="99"/>
      <point x="386" y="8"/>
      <point x="236" y="8" type="curve" smooth="yes"/>
      <point x="122" y="8"/>
      <point x="70" y="47"/>
      <point x="32" y="112" type="curve"/>
      <point x="14" y="99" type="line"/>
      <point x="51" y="36"/>
      <point x="107" y="-6"/>
      <point x="211" y="-11" type="curve"/>
      <point x="179" y="-84" type="line"/>
      <point x="216" y="-86" type="line" smooth="yes"/>
      <point x="255" y="-88"/>
      <point x="268" y="-103"/>
      <point x="268" y="-126" type="curve" smooth="yes"/>
      <point x="268" y="-160"/>
      <point x="238" y="-184"/>
      <point x="195" y="-184" type="curve" smooth="yes"/>
      <point x="167" y="-184"/>
      <point x="147" y="-174"/>
      <point x="134" y="-157" type="curve"/>
      <point x="120" y="-170" type="line"/>
      <point x="131" y="-187"/>
      <point x="158" y="-202"/>
    </contour>
  </outline>
</glyph>
